<?xml version="1.0" standalone="no"?>
<svg id="Group" width="70" height="70" viewBox="0 0 70 70" fill="none" xmlns="http://www.w3.org/2000/svg" style="max-width: 100%; max-height: 100%;">
<mask id="path-1-inside-1_732_9224" fill="white">
<path d="M62.8076 54.9195C63.2935 54.4336 63.7406 53.9672 64.246 53.4814C63.8184 52.8207 63.3907 52.1016 62.9436 51.4409C62.5743 50.8967 62.5937 50.3914 62.8853 49.8084C63.313 48.8951 63.7018 47.9622 64.0517 47.01C64.2655 46.4075 64.5765 46.0189 65.2374 45.8828C66.0344 45.7274 66.8314 45.533 67.6479 45.3387C67.6479 44.678 67.6479 44.0561 67.6479 43.337C66.9481 43.1816 66.2288 42.9872 65.4901 42.8706C64.6737 42.7346 64.246 42.3265 63.9933 41.5103C63.7212 40.5969 63.2935 39.7224 62.8659 38.8479C62.5937 38.2843 62.5549 37.7984 62.9048 37.2737C63.3713 36.5936 63.7989 35.8939 64.2266 35.1943C63.7212 34.7279 63.2547 34.3004 62.7104 33.7951C62.1855 34.1255 61.5246 34.5142 60.8831 34.9611C60.261 35.4081 59.6779 35.4081 58.9975 35.0389C58.1616 34.5919 57.2869 34.2421 56.3927 33.9506C55.6929 33.7174 55.2846 33.3481 55.1486 32.6097C55.0125 31.8517 54.8376 31.0938 54.6626 30.3359C54.3127 30.3359 54.0017 30.3359 53.6712 30.3359C53.6712 32.668 53.6712 34.9611 53.6712 37.2932C56.2955 37.4292 58.3366 38.5564 59.6779 40.8107C61.5051 43.8812 60.6304 47.9234 57.7534 49.9639C57.3063 50.2748 56.8592 50.4498 56.3344 50.1777C55.5179 49.7501 55.479 48.7785 56.2955 48.1566C57.2286 47.4375 57.8895 46.5436 58.1616 45.3776C58.8226 42.4625 56.7426 39.7612 53.6323 39.6641C53.6323 39.9167 53.6323 40.1693 53.6323 40.422C53.6323 48.176 53.6323 55.93 53.6323 63.6841C53.6323 67.5708 51.2024 69.9806 47.3146 69.9806C39.0725 69.9806 30.8303 69.9806 22.6076 69.9806C18.7587 69.9806 16.3288 67.5514 16.3288 63.7035C16.3288 56.7462 16.3288 49.8084 16.3288 42.8512C16.3288 42.5791 16.3288 42.3265 16.3288 41.9767C15.7067 41.9767 15.1041 41.9767 14.5015 41.9767C13.8017 41.9767 13.3546 41.6463 13.2186 40.9467C13.1797 40.8107 13.1602 40.6552 13.1214 40.5192C12.6354 38.1094 12.6354 38.1094 10.361 37.2737C10.1861 37.2154 9.89447 37.2932 9.71952 37.3903C9.0586 37.779 8.39767 38.2066 7.75618 38.6341C7.13413 39.0422 6.58984 39.0033 6.04554 38.4592C5.19023 37.6041 4.33491 36.749 3.46015 35.8745C2.95473 35.3692 2.91586 34.8251 3.30464 34.2421C3.38239 34.1255 3.46015 33.9894 3.53791 33.8728C3.96557 33.1927 4.64593 32.5514 4.72369 31.8323C4.78201 31.1521 4.23771 30.3942 3.90725 29.6946C3.82949 29.5197 3.59622 29.3254 3.40183 29.2671C2.62427 29.0533 1.84671 28.8784 1.06915 28.7229C0.330464 28.5675 0 28.1399 0 27.4014C0 26.216 0 25.0111 0 23.8257C0 23.126 0.311025 22.6791 1.01083 22.5236C1.63288 22.3876 2.23549 22.2515 2.85754 22.1155C3.05193 22.0766 3.24632 22.0378 3.42127 21.9795C3.94613 21.8434 4.8792 19.4725 4.58761 19.0255C4.1794 18.3648 3.75174 17.7041 3.32408 17.0627C2.91586 16.4797 2.97417 15.9356 3.49903 15.4109C4.35435 14.5558 5.20966 13.6813 6.06498 12.8262C6.5704 12.3209 7.11469 12.2626 7.69786 12.6513C8.37823 13.0788 9.03916 13.5453 9.73896 13.9339C9.95279 14.0505 10.2638 14.0311 10.5165 13.9728C10.7692 13.9145 10.9831 13.7007 11.2358 13.6619C12.4993 13.487 12.8492 12.593 12.9853 11.4853C13.0242 11.0577 13.1408 10.6302 13.2769 10.2027C13.4713 9.58079 14.035 9.23098 14.6182 9.34758C15.2208 9.48362 15.6484 10.0083 15.5318 10.6496C15.2985 11.9128 15.0458 13.176 14.7154 14.4198C14.6182 14.7307 14.1905 15.0416 13.86 15.1971C12.8492 15.6635 11.7995 16.0522 10.7887 16.4992C10.2638 16.7324 9.81672 16.7518 9.35018 16.4409C8.65038 15.9939 7.97001 15.5469 7.19245 15.0611C6.76479 15.5664 6.35657 16.0911 5.87059 16.6741C6.20106 17.1988 6.62871 17.8984 7.09525 18.5786C7.46459 19.1227 7.42572 19.628 7.15357 20.211C6.70647 21.1244 6.33713 22.0572 5.98723 23.0094C5.7734 23.6119 5.44293 24.0006 4.78201 24.1172C3.985 24.2726 3.188 24.467 2.37156 24.6613C2.37156 25.322 2.37156 25.9634 2.37156 26.6435C3.188 26.8379 4.00444 27.0322 4.82088 27.2071C5.40405 27.3237 5.71508 27.6735 5.92891 28.2177C6.29825 29.2282 6.72591 30.2388 7.19245 31.2299C7.42572 31.7546 7.44515 32.2016 7.13413 32.668C6.66759 33.387 6.22049 34.0866 5.75396 34.8057C6.23993 35.2915 6.70647 35.7385 7.19245 36.2243C7.85337 35.8162 8.53374 35.4081 9.19467 34.9417C9.7584 34.553 10.2638 34.553 10.8859 34.8445C11.7995 35.2915 12.7326 35.6802 13.6851 36.0105C14.2877 36.2243 14.6765 36.5547 14.7931 37.2154C14.9292 38.0122 15.143 38.809 15.318 39.6058C15.6679 39.6058 15.9595 39.6058 16.2899 39.6058C16.2899 37.2932 16.2899 34.9806 16.2899 32.668C13.1602 32.4153 10.8859 30.9578 9.77784 28.0039C8.68925 25.1666 9.66121 21.96 12.0522 20.0944C12.8492 19.4725 13.5879 19.4725 14.035 20.075C14.4821 20.6968 14.3071 21.2604 13.5101 21.9212C11.9161 23.2038 11.3135 24.8751 11.8384 26.8573C12.3632 28.7618 13.6851 29.8695 15.629 30.2388C15.8428 30.2776 16.0567 30.2776 16.3288 30.2971C16.3288 29.9861 16.3288 29.7335 16.3288 29.4614C16.3288 21.7074 16.3288 13.9534 16.3288 6.19933C16.3288 2.44864 18.7781 0 22.5687 0C30.8498 0 39.1502 0 47.4313 0C51.2219 0 53.6518 2.44864 53.6712 6.25763C53.6712 13.4675 53.6712 20.6968 53.6712 28.0039C54.2349 28.0039 54.7792 28.0039 55.3235 28.0039C56.276 28.0039 56.6259 28.2954 56.8398 29.2282C56.9953 29.9472 57.1508 30.6469 57.3063 31.3659C57.4424 31.9489 59.7751 32.9206 60.2805 32.6097C60.9608 32.1821 61.6218 31.7546 62.3021 31.3076C62.9048 30.9189 63.449 30.9967 63.935 31.4825C64.7903 32.3376 65.6457 33.2121 66.5204 34.0672C67.0258 34.5725 67.0841 35.1166 66.6954 35.6996C66.2677 36.3798 65.8012 37.0405 65.4124 37.7401C65.2958 37.9539 65.3152 38.2649 65.3541 38.5175C65.4124 38.7896 65.6651 39.0422 65.704 39.3143C65.8789 40.4803 66.6371 40.8107 67.6868 40.9856C70.1555 41.4131 70 41.5103 69.9806 43.8617C69.9806 44.5614 69.9806 45.2804 69.9806 45.98C69.9806 46.9517 69.7279 47.2626 68.7753 47.4958C68.0367 47.6707 67.298 47.8068 66.5787 48.0011C66.3843 48.0594 66.1705 48.2343 66.0733 48.4092C65.8984 48.7396 65.8595 49.1671 65.6262 49.4781C65.043 50.2943 65.2569 50.9745 65.8401 51.6741C66.1705 52.0627 66.4038 52.5291 66.6759 52.9567C67.0453 53.5203 67.0064 54.0644 66.5399 54.5503C65.6651 55.4636 64.7709 56.3576 63.8767 57.2321C63.3907 57.6985 62.8659 57.7568 62.2827 57.3876C61.6218 56.96 60.9997 56.513 60.2999 56.1632C60.0472 56.0272 59.6973 56.0272 59.4057 56.0855C59.0364 56.1827 58.7059 56.4742 58.3366 56.5325C57.4424 56.6685 57.1897 57.2321 57.0925 58.0289C57.0147 58.6313 56.8592 59.2143 56.7037 59.7973C56.5287 60.4386 55.965 60.769 55.3818 60.6718C54.7598 60.5552 54.3516 59.9917 54.4682 59.3115C54.7015 58.0872 54.9347 56.8823 55.2652 55.6968C55.3624 55.3665 55.7317 55.0167 56.0622 54.8612C57.1119 54.3559 58.1811 53.9089 59.2697 53.5203C59.6779 53.3842 60.2416 53.4231 60.6109 53.598C61.4079 53.9284 62.0883 54.4531 62.8076 54.9195ZM18.6615 34.9611C18.6615 44.5419 18.6615 54.1033 18.6615 63.6841C18.6615 66.2687 20.0417 67.668 22.6076 67.668C30.8692 67.668 39.1308 67.668 47.3924 67.668C49.9195 67.668 51.3385 66.2687 51.3385 63.7618C51.3385 44.5808 51.3385 25.4192 51.3385 6.2382C51.3385 3.73126 49.9389 2.33204 47.3924 2.33204C39.1502 2.33204 30.9081 2.33204 22.6854 2.33204C20.0222 2.33204 18.6615 3.69239 18.6615 6.37424C18.6615 15.9162 18.6615 25.4386 18.6615 34.9611Z" stroke-dasharray="0,0,0,682.5084838867188">
<animate attributeType="XML" attributeName="stroke-dasharray" repeatCount="indefinite" 
dur="5.125s" values="0,0,0,682.5084838867188; 
          0,341.2542419433594,341.2542419433594,0; 
          682.5084838867188,0,0,0" keyTimes="0; 0.5; 1" 
          fill="freeze"></animate></path>
</mask>
<path d="M62.8076 54.9195C63.2935 54.4336 63.7406 53.9672 64.246 53.4814C63.8184 52.8207 63.3907 52.1016 62.9436 51.4409C62.5743 50.8967 62.5937 50.3914 62.8853 49.8084C63.313 48.8951 63.7018 47.9622 64.0517 47.01C64.2655 46.4075 64.5765 46.0189 65.2374 45.8828C66.0344 45.7274 66.8314 45.533 67.6479 45.3387C67.6479 44.678 67.6479 44.0561 67.6479 43.337C66.9481 43.1816 66.2288 42.9872 65.4901 42.8706C64.6737 42.7346 64.246 42.3265 63.9933 41.5103C63.7212 40.5969 63.2935 39.7224 62.8659 38.8479C62.5937 38.2843 62.5549 37.7984 62.9048 37.2737C63.3713 36.5936 63.7989 35.8939 64.2266 35.1943C63.7212 34.7279 63.2547 34.3004 62.7104 33.7951C62.1855 34.1255 61.5246 34.5142 60.8831 34.9611C60.261 35.4081 59.6779 35.4081 58.9975 35.0389C58.1616 34.5919 57.2869 34.2421 56.3927 33.9506C55.6929 33.7174 55.2846 33.3481 55.1486 32.6097C55.0125 31.8517 54.8376 31.0938 54.6626 30.3359C54.3127 30.3359 54.0017 30.3359 53.6712 30.3359C53.6712 32.668 53.6712 34.9611 53.6712 37.2932C56.2955 37.4292 58.3366 38.5564 59.6779 40.8107C61.5051 43.8812 60.6304 47.9234 57.7534 49.9639C57.3063 50.2748 56.8592 50.4498 56.3344 50.1777C55.5179 49.7501 55.479 48.7785 56.2955 48.1566C57.2286 47.4375 57.8895 46.5436 58.1616 45.3776C58.8226 42.4625 56.7426 39.7612 53.6323 39.6641C53.6323 39.9167 53.6323 40.1693 53.6323 40.422C53.6323 48.176 53.6323 55.93 53.6323 63.6841C53.6323 67.5708 51.2024 69.9806 47.3146 69.9806C39.0725 69.9806 30.8303 69.9806 22.6076 69.9806C18.7587 69.9806 16.3288 67.5514 16.3288 63.7035C16.3288 56.7462 16.3288 49.8084 16.3288 42.8512C16.3288 42.5791 16.3288 42.3265 16.3288 41.9767C15.7067 41.9767 15.1041 41.9767 14.5015 41.9767C13.8017 41.9767 13.3546 41.6463 13.2186 40.9467C13.1797 40.8107 13.1602 40.6552 13.1214 40.5192C12.6354 38.1094 12.6354 38.1094 10.361 37.2737C10.1861 37.2154 9.89447 37.2932 9.71952 37.3903C9.0586 37.779 8.39767 38.2066 7.75618 38.6341C7.13413 39.0422 6.58984 39.0033 6.04554 38.4592C5.19023 37.6041 4.33491 36.749 3.46015 35.8745C2.95473 35.3692 2.91586 34.8251 3.30464 34.2421C3.38239 34.1255 3.46015 33.9894 3.53791 33.8728C3.96557 33.1927 4.64593 32.5514 4.72369 31.8323C4.78201 31.1521 4.23771 30.3942 3.90725 29.6946C3.82949 29.5197 3.59622 29.3254 3.40183 29.2671C2.62427 29.0533 1.84671 28.8784 1.06915 28.7229C0.330464 28.5675 0 28.1399 0 27.4014C0 26.216 0 25.0111 0 23.8257C0 23.126 0.311025 22.6791 1.01083 22.5236C1.63288 22.3876 2.23549 22.2515 2.85754 22.1155C3.05193 22.0766 3.24632 22.0378 3.42127 21.9795C3.94613 21.8434 4.8792 19.4725 4.58761 19.0255C4.1794 18.3648 3.75174 17.7041 3.32408 17.0627C2.91586 16.4797 2.97417 15.9356 3.49903 15.4109C4.35435 14.5558 5.20966 13.6813 6.06498 12.8262C6.5704 12.3209 7.11469 12.2626 7.69786 12.6513C8.37823 13.0788 9.03916 13.5453 9.73896 13.9339C9.95279 14.0505 10.2638 14.0311 10.5165 13.9728C10.7692 13.9145 10.9831 13.7007 11.2358 13.6619C12.4993 13.487 12.8492 12.593 12.9853 11.4853C13.0242 11.0577 13.1408 10.6302 13.2769 10.2027C13.4713 9.58079 14.035 9.23098 14.6182 9.34758C15.2208 9.48362 15.6484 10.0083 15.5318 10.6496C15.2985 11.9128 15.0458 13.176 14.7154 14.4198C14.6182 14.7307 14.1905 15.0416 13.86 15.1971C12.8492 15.6635 11.7995 16.0522 10.7887 16.4992C10.2638 16.7324 9.81672 16.7518 9.35018 16.4409C8.65038 15.9939 7.97001 15.5469 7.19245 15.0611C6.76479 15.5664 6.35657 16.0911 5.87059 16.6741C6.20106 17.1988 6.62871 17.8984 7.09525 18.5786C7.46459 19.1227 7.42572 19.628 7.15357 20.211C6.70647 21.1244 6.33713 22.0572 5.98723 23.0094C5.7734 23.6119 5.44293 24.0006 4.78201 24.1172C3.985 24.2726 3.188 24.467 2.37156 24.6613C2.37156 25.322 2.37156 25.9634 2.37156 26.6435C3.188 26.8379 4.00444 27.0322 4.82088 27.2071C5.40405 27.3237 5.71508 27.6735 5.92891 28.2177C6.29825 29.2282 6.72591 30.2388 7.19245 31.2299C7.42572 31.7546 7.44515 32.2016 7.13413 32.668C6.66759 33.387 6.22049 34.0866 5.75396 34.8057C6.23993 35.2915 6.70647 35.7385 7.19245 36.2243C7.85337 35.8162 8.53374 35.4081 9.19467 34.9417C9.7584 34.553 10.2638 34.553 10.8859 34.8445C11.7995 35.2915 12.7326 35.6802 13.6851 36.0105C14.2877 36.2243 14.6765 36.5547 14.7931 37.2154C14.9292 38.0122 15.143 38.809 15.318 39.6058C15.6679 39.6058 15.9595 39.6058 16.2899 39.6058C16.2899 37.2932 16.2899 34.9806 16.2899 32.668C13.1602 32.4153 10.8859 30.9578 9.77784 28.0039C8.68925 25.1666 9.66121 21.96 12.0522 20.0944C12.8492 19.4725 13.5879 19.4725 14.035 20.075C14.4821 20.6968 14.3071 21.2604 13.5101 21.9212C11.9161 23.2038 11.3135 24.8751 11.8384 26.8573C12.3632 28.7618 13.6851 29.8695 15.629 30.2388C15.8428 30.2776 16.0567 30.2776 16.3288 30.2971C16.3288 29.9861 16.3288 29.7335 16.3288 29.4614C16.3288 21.7074 16.3288 13.9534 16.3288 6.19933C16.3288 2.44864 18.7781 0 22.5687 0C30.8498 0 39.1502 0 47.4313 0C51.2219 0 53.6518 2.44864 53.6712 6.25763C53.6712 13.4675 53.6712 20.6968 53.6712 28.0039C54.2349 28.0039 54.7792 28.0039 55.3235 28.0039C56.276 28.0039 56.6259 28.2954 56.8398 29.2282C56.9953 29.9472 57.1508 30.6469 57.3063 31.3659C57.4424 31.9489 59.7751 32.9206 60.2805 32.6097C60.9608 32.1821 61.6218 31.7546 62.3021 31.3076C62.9048 30.9189 63.449 30.9967 63.935 31.4825C64.7903 32.3376 65.6457 33.2121 66.5204 34.0672C67.0258 34.5725 67.0841 35.1166 66.6954 35.6996C66.2677 36.3798 65.8012 37.0405 65.4124 37.7401C65.2958 37.9539 65.3152 38.2649 65.3541 38.5175C65.4124 38.7896 65.6651 39.0422 65.704 39.3143C65.8789 40.4803 66.6371 40.8107 67.6868 40.9856C70.1555 41.4131 70 41.5103 69.9806 43.8617C69.9806 44.5614 69.9806 45.2804 69.9806 45.98C69.9806 46.9517 69.7279 47.2626 68.7753 47.4958C68.0367 47.6707 67.298 47.8068 66.5787 48.0011C66.3843 48.0594 66.1705 48.2343 66.0733 48.4092C65.8984 48.7396 65.8595 49.1671 65.6262 49.4781C65.043 50.2943 65.2569 50.9745 65.8401 51.6741C66.1705 52.0627 66.4038 52.5291 66.6759 52.9567C67.0453 53.5203 67.0064 54.0644 66.5399 54.5503C65.6651 55.4636 64.7709 56.3576 63.8767 57.2321C63.3907 57.6985 62.8659 57.7568 62.2827 57.3876C61.6218 56.96 60.9997 56.513 60.2999 56.1632C60.0472 56.0272 59.6973 56.0272 59.4057 56.0855C59.0364 56.1827 58.7059 56.4742 58.3366 56.5325C57.4424 56.6685 57.1897 57.2321 57.0925 58.0289C57.0147 58.6313 56.8592 59.2143 56.7037 59.7973C56.5287 60.4386 55.965 60.769 55.3818 60.6718C54.7598 60.5552 54.3516 59.9917 54.4682 59.3115C54.7015 58.0872 54.9347 56.8823 55.2652 55.6968C55.3624 55.3665 55.7317 55.0167 56.0622 54.8612C57.1119 54.3559 58.1811 53.9089 59.2697 53.5203C59.6779 53.3842 60.2416 53.4231 60.6109 53.598C61.4079 53.9284 62.0883 54.4531 62.8076 54.9195ZM18.6615 34.9611C18.6615 44.5419 18.6615 54.1033 18.6615 63.6841C18.6615 66.2687 20.0417 67.668 22.6076 67.668C30.8692 67.668 39.1308 67.668 47.3924 67.668C49.9195 67.668 51.3385 66.2687 51.3385 63.7618C51.3385 44.5808 51.3385 25.4192 51.3385 6.2382C51.3385 3.73126 49.9389 2.33204 47.3924 2.33204C39.1502 2.33204 30.9081 2.33204 22.6854 2.33204C20.0222 2.33204 18.6615 3.69239 18.6615 6.37424C18.6615 15.9162 18.6615 25.4386 18.6615 34.9611Z" stroke="black" stroke-width="4" mask="url(#path-1-inside-1_732_9224)" stroke-dasharray="0,0,0,682.5084838867188">
<animate attributeType="XML" attributeName="stroke-dasharray" repeatCount="indefinite" dur="5.125s" values="0,0,0,682.5084838867188; 
          0,341.2542419433594,341.2542419433594,0; 
          682.5084838867188,0,0,0" keyTimes="0; 0.5; 1" fill="freeze">
          </animate></path>
<path d="M10.3303 50.0296L10.3304 50.0289C10.334 49.8899 10.3826 49.8165 10.4099 49.7886C10.424 49.7742 10.4362 49.7673 10.4456 49.7635C10.4541 49.7602 10.4692 49.7559 10.4954 49.757C10.5305 49.7599 10.5757 49.7782 10.6149 49.8207C10.6546 49.8636 10.6647 49.9057 10.6639 49.9324L10.6638 49.9359C10.6591 50.1055 10.5343 50.1914 10.4284 50.1884L10.3999 51.188L10.4293 50.1884C10.3858 50.1872 10.3596 50.1809 10.3469 50.1768C10.3465 50.1756 10.346 50.1742 10.3455 50.1727C10.339 50.1531 10.3282 50.108 10.3303 50.0296Z" stroke="black" stroke-width="2" stroke-dasharray="0,0,0,3.237243175506592">
<animate attributeType="XML" attributeName="stroke-dasharray" repeatCount="indefinite" dur="5.125s" values="0,0,0,3.237243175506592; 
          0,1.618621587753296,1.618621587753296,0; 
          3.237243175506592,0,0,0" keyTimes="0; 0.5; 1" fill="freeze">
          </animate></path>
<path d="M10.488 54.4229L10.5023 54.4233H10.5165C10.5305 54.4233 10.5669 54.43 10.6082 54.4722C10.6502 54.5152 10.6634 54.5613 10.6634 54.5894C10.6634 54.6688 10.6311 54.7428 10.5807 54.7948C10.5307 54.8464 10.4878 54.8536 10.4682 54.853L10.4535 54.8525H10.4388C10.3916 54.8525 10.3632 54.8466 10.3495 54.8426C10.3492 54.8418 10.3489 54.8411 10.3486 54.8402C10.342 54.8219 10.3307 54.7795 10.3307 54.706C10.3307 54.5641 10.3781 54.4862 10.4059 54.4559C10.4199 54.4406 10.4317 54.4336 10.4399 54.4301C10.4474 54.4269 10.4616 54.4222 10.488 54.4229Z" stroke="black" stroke-width="2" stroke-dasharray="0,0,0,1.2411415576934814">
<animate attributeType="XML" attributeName="stroke-dasharray" repeatCount="indefinite" dur="5.125s" values="0,0,0,1.2411415576934814; 
          0,0.6205707788467407,0.6205707788467407,0; 
          1.2411415576934814,0,0,0" keyTimes="0; 0.5; 1" fill="freeze">
          </animate></path>
<path d="M10.4582 59.5161H10.4439L10.4296 59.5165C10.3927 59.5176 10.369 59.5143 10.3558 59.5116C10.3472 59.4919 10.3342 59.4503 10.3308 59.3754C10.3336 59.2327 10.3803 59.1546 10.4073 59.124C10.4214 59.1082 10.4334 59.1006 10.4425 59.0965C10.4509 59.0926 10.4672 59.0869 10.497 59.0869C10.5217 59.0869 10.5619 59.0974 10.6033 59.1383C10.6448 59.1793 10.6622 59.2266 10.6638 59.2633C10.6652 59.3317 10.6388 59.3979 10.5902 59.4491C10.5401 59.502 10.4892 59.5161 10.4582 59.5161ZM10.3635 59.5259C10.3635 59.5259 10.363 59.5253 10.3621 59.524C10.3631 59.5252 10.3636 59.5259 10.3635 59.5259Z" stroke="black" stroke-width="2" stroke-dasharray="0,0,0,1.2351032495498657">
<animate attributeType="XML" attributeName="stroke-dasharray" repeatCount="indefinite" dur="5.125s" values="0,0,0,1.2351032495498657; 
          0,0.6175516247749329,0.6175516247749329,0; 
          1.2351032495498657,0,0,0" keyTimes="0; 0.5; 1" fill="freeze">
          </animate></path>
<path d="M59.4661 10.796C59.4172 10.7939 59.3916 10.7847 59.3824 10.7807C59.3741 10.7771 59.3722 10.7748 59.3718 10.7744C59.3718 10.7743 59.3718 10.7743 59.3718 10.7743L59.3718 10.7743C59.371 10.7735 59.3636 10.7654 59.3553 10.7424C59.3468 10.7186 59.3365 10.6758 59.3365 10.6104C59.3365 10.4551 59.3858 10.3903 59.4008 10.3745C59.4097 10.365 59.4181 10.3596 59.4274 10.3558C59.4366 10.3521 59.4567 10.3459 59.4929 10.3468C59.6004 10.3505 59.6692 10.4388 59.6692 10.5132C59.6692 10.5611 59.6435 10.6465 59.5686 10.7246C59.5122 10.7834 59.4721 10.7942 59.4661 10.796Z" stroke="black" stroke-width="2" stroke-dasharray="0,0,0,1.24873685836792">
<animate attributeType="XML" attributeName="stroke-dasharray" repeatCount="indefinite" dur="5.125s" values="0,0,0,1.24873685836792; 
          0,0.62436842918396,0.62436842918396,0; 
          1.24873685836792,0,0,0" keyTimes="0; 0.5; 1" fill="freeze">
          </animate></path>
<path d="M59.3362 15.2837L59.3365 15.2698V15.2559C59.3365 15.1114 59.3836 15.0479 59.4027 15.0282C59.4194 15.0108 59.4475 14.9906 59.5122 14.9923C59.5489 14.9936 59.5833 15.0078 59.6148 15.0416C59.6462 15.0752 59.6654 15.1194 59.6687 15.1644C59.6627 15.228 59.6298 15.3073 59.566 15.3724C59.5009 15.4389 59.4548 15.4415 59.4548 15.4418C59.4548 15.4418 59.455 15.4418 59.4554 15.4418L59.4545 15.4418C59.4038 15.4403 59.3762 15.4309 59.3658 15.4265C59.3615 15.4247 59.3591 15.4233 59.3579 15.4225C59.3565 15.4205 59.3536 15.4153 59.35 15.4052C59.3439 15.3875 59.3343 15.349 59.3362 15.2837ZM59.357 15.4218C59.357 15.4218 59.3572 15.4219 59.3575 15.4222L59.357 15.4218Z" stroke="black" stroke-width="2" stroke-dasharray="0,0,0,1.2562146186828613">
<animate attributeType="XML" attributeName="stroke-dasharray" repeatCount="indefinite" dur="5.125s" values="0,0,0,1.2562146186828613; 
          0,0.6281073093414307,0.6281073093414307,0; 
          1.2562146186828613,0,0,0" keyTimes="0; 0.5; 1" fill="freeze">
          </animate></path>
<path d="M59.464 20.1049H59.4493L59.4346 20.1053C59.391 20.1066 59.3695 20.0995 59.3641 20.0975C59.3636 20.0973 59.3632 20.0971 59.3628 20.097C59.361 20.0943 59.3578 20.0888 59.3542 20.0791C59.3471 20.0605 59.3365 20.022 59.3365 19.9583C59.3365 19.7923 59.3881 19.7141 59.4097 19.69C59.4212 19.6771 59.4312 19.6707 59.4402 19.6667C59.449 19.6628 59.4679 19.6562 59.5029 19.6562C59.5538 19.6562 59.5899 19.6741 59.6165 19.7004C59.644 19.7276 59.6676 19.7706 59.6697 19.8321C59.6707 19.8785 59.6492 19.9559 59.582 20.0281C59.5198 20.095 59.4705 20.1037 59.4644 20.1047C59.4637 20.1049 59.4635 20.1049 59.464 20.1049Z" stroke="black" stroke-width="2" stroke-dasharray="0,0,0,1.2647393941879272">
<animate attributeType="XML" attributeName="stroke-dasharray" repeatCount="indefinite" dur="5.125s" values="0,0,0,1.2647393941879272; 
          0,0.6323696970939636,0.6323696970939636,0; 
          1.2647393941879272,0,0,0" keyTimes="0; 0.5; 1" fill="freeze">
          </animate></path>
<path d="M25.4385 34.2931L24.7311 35.0003L25.4385 35.7075C26.0331 36.302 26.6129 36.8767 27.1813 37.4401L27.21 37.4686C27.769 38.0226 28.3168 38.5656 28.8597 39.1084C29.0146 39.2632 29.1418 39.3909 29.2495 39.5127C29.3309 39.6156 29.3284 39.6729 29.3282 39.6775L29.3282 39.6776L29.3282 39.6778C29.3282 39.6815 29.3276 39.7167 29.264 39.7777C29.2084 39.8307 29.1645 39.8376 29.1495 39.838C29.1411 39.8383 29.1334 39.837 29.1246 39.8336C29.1164 39.8304 29.099 39.822 29.0748 39.7993C27.4892 38.2527 25.9228 36.6867 24.3562 35.082C24.3207 35.0448 24.3029 35.0183 24.2946 35.0038C24.3053 34.9741 24.3405 34.9003 24.451 34.7851C25.9417 33.2755 27.4518 31.7658 28.9619 30.2755C29.0914 30.1518 29.1688 30.1477 29.1731 30.1475C29.1778 30.1473 29.1823 30.1476 29.1912 30.1511C29.2009 30.155 29.2263 30.1673 29.2631 30.2026L29.9555 29.4812L29.2625 30.2021C29.3045 30.2425 29.3194 30.2706 29.3239 30.2809C29.3277 30.2895 29.3277 30.2926 29.3276 30.295L29.3276 30.2952C29.3275 30.2986 29.3267 30.3185 29.3086 30.3573C29.2901 30.3971 29.2523 30.4585 29.1787 30.5347C28.2848 31.4572 27.3714 32.3668 26.421 33.3133C26.098 33.635 25.7707 33.961 25.4385 34.2931Z" stroke="black" stroke-width="2" stroke-dasharray="0,0,0,29.394365310668945">
<animate attributeType="XML" attributeName="stroke-dasharray" repeatCount="indefinite" dur="5.125s" values="0,0,0,29.394365310668945; 
          0,14.697182655334473,14.697182655334473,0; 
          29.394365310668945,0,0,0" keyTimes="0; 0.5; 1" fill="freeze">
          </animate></path>
<path d="M40.0055 29.5202L40.7253 30.2144C40.7504 30.1884 40.77 30.1726 40.7829 30.1635C40.7898 30.1587 40.795 30.1557 40.7983 30.1539C40.8253 30.158 40.9673 30.1929 41.2112 30.4293C42.1539 31.3588 43.0852 32.2942 44.0175 33.2306C44.4849 33.7 44.9525 34.1696 45.4218 34.6388C45.6032 34.8201 45.6701 34.9266 45.6936 34.9729C45.6899 34.9803 45.6852 34.9894 45.6792 35.0001C45.6385 35.072 45.5556 35.1853 45.3955 35.3496C44.4654 36.2923 43.5295 37.2236 42.5927 38.1559C42.1251 38.6212 41.6573 39.0867 41.1899 39.554C40.9604 39.7753 40.8261 39.807 40.8026 39.8103C40.7999 39.809 40.7957 39.8067 40.7901 39.8031C40.7789 39.7958 40.7612 39.7827 40.7379 39.7603C40.7172 39.7404 40.705 39.7249 40.6983 39.7151C40.6937 39.7085 40.6913 39.704 40.6902 39.7017C40.6902 39.7012 40.6903 39.7006 40.6903 39.6999C40.6919 39.683 40.7146 39.5534 40.9264 39.3417L40.9264 39.3418L40.9322 39.3359C41.6993 38.5562 42.4803 37.7795 43.2936 36.9707C43.7133 36.5534 44.1415 36.1275 44.5809 35.6882L45.2938 34.9755L44.5754 34.2684C43.315 33.0277 42.1319 31.8449 40.9458 30.6592C40.7245 30.4379 40.6843 30.3046 40.6781 30.2744C40.6835 30.2645 40.6968 30.244 40.7257 30.2139L40.0055 29.5202ZM40.0055 29.5202C39.5001 30.0449 39.5779 30.7056 40.2388 31.3664L40.2391 31.3667C41.1997 32.327 42.1602 33.2873 43.1621 34.2786L46.1094 36.0499C46.8869 35.2531 46.9064 34.7089 46.1288 33.9316C45.663 33.4659 45.1971 32.998 44.7306 32.5294C43.7954 31.5902 42.8573 30.648 41.9105 29.7145C41.2107 29.0343 40.5304 28.976 40.0055 29.5202ZM45.705 34.9449C45.7051 34.9449 45.7049 34.9454 45.7046 34.9466L45.705 34.9449Z" stroke="black" stroke-width="2" stroke-dasharray="0,0,0,49.62030792236328">
<animate attributeType="XML" attributeName="stroke-dasharray" repeatCount="indefinite" dur="5.125s" values="0,0,0,49.62030792236328; 
          0,24.81015396118164,24.81015396118164,0; 
          49.62030792236328,0,0,0" keyTimes="0; 0.5; 1" fill="freeze">
          </animate></path>
<path d="M33.6651 39.6595L33.6652 39.6595L33.6683 39.6466C34.4248 36.5244 35.2009 33.4209 35.9967 30.2969C36.0186 30.217 36.0567 30.1836 36.0805 30.1694C36.1069 30.1537 36.1391 30.147 36.1789 30.1573L36.1861 30.1591L36.1932 30.1608C36.2567 30.1762 36.2884 30.2075 36.3044 30.2344C36.3193 30.2592 36.3382 30.3093 36.3156 30.3974L36.3155 30.3974L36.3132 30.4068C35.5559 33.4739 34.7791 36.5415 34.0014 39.6125L33.9982 39.6251L33.9954 39.6377C33.9786 39.7119 33.9593 39.7567 33.9463 39.7808C33.9339 39.8037 33.9259 39.8106 33.9258 39.8107L33.9238 39.8122C33.9227 39.8129 33.9198 39.8146 33.9143 39.817C33.9072 39.82 33.8941 39.8247 33.8733 39.8291C33.7643 39.8217 33.7059 39.7774 33.6829 39.7513C33.6692 39.7358 33.664 39.723 33.6618 39.7142C33.66 39.707 33.6571 39.6906 33.6651 39.6595Z" stroke="black" stroke-width="2" stroke-dasharray="0,0,0,20.306676864624023">
<animate attributeType="XML" attributeName="stroke-dasharray" repeatCount="indefinite" dur="5.125s" values="0,0,0,20.306676864624023; 
          0,10.153338432312012,10.153338432312012,0; 
          20.306676864624023,0,0,0" keyTimes="0; 0.5; 1" fill="freeze">
          </animate></path>
<path d="M30.3249 5.82998L31.3246 5.80367C31.3237 5.77182 31.3261 5.74999 31.3283 5.73673C31.3294 5.73084 31.3304 5.72648 31.3312 5.72344C31.352 5.70891 31.4595 5.64572 31.7362 5.64455C32.8496 5.66397 33.9423 5.66396 35.0251 5.66396H35.0292H35.0356H35.0419H35.0483H35.0547H35.0611H35.0674H35.0738H35.0802H35.0866H35.093H35.0993H35.1057H35.1121H35.1185H35.1248H35.1312H35.1376H35.144H35.1504H35.1567H35.1631H35.1695H35.1759H35.1823H35.1886H35.195H35.2014H35.2078H35.2141H35.2205H35.2269H35.2333H35.2397H35.246H35.2524H35.2588H35.2652H35.2716H35.2779H35.2843H35.2907H35.2971H35.3034H35.3098H35.3162H35.3226H35.329H35.3353H35.3417H35.3481H35.3545H35.3609H35.3672H35.3736H35.38H35.3864H35.3927H35.3991H35.4055H35.4119H35.4183H35.4246H35.431H35.4374H35.4438H35.4501H35.4565H35.4629H35.4693H35.4757H35.482H35.4884H35.4948H35.5012H35.5076H35.5139H35.5203H35.5267H35.5331H35.5394H35.5458H35.5522H35.5586H35.565H35.5713H35.5777H35.5841H35.5905H35.5969H35.6032H35.6096H35.616H35.6224H35.6287H35.6351H35.6415H35.6479H35.6543H35.6606H35.667H35.6734H35.6798H35.6862H35.6925H35.6989H35.7053H35.7117H35.718H35.7244H35.7308H35.7372H35.7436H35.7499H35.7563H35.7627H35.7691H35.7754H35.7818H35.7882H35.7946H35.801H35.8073H35.8137H35.8201H35.8265H35.8329H35.8392H35.8456H35.852H35.8584H35.8647H35.8711H35.8775H35.8839H35.8903H35.8966H35.903H35.9094H35.9158H35.9222H35.9285H35.9349H35.9413H35.9477H35.954H35.9604H35.9668H35.9732H35.9796H35.9859H35.9923H35.9987H36.0051H36.0115H36.0178H36.0242H36.0306H36.037H36.0433H36.0497H36.0561H36.0625H36.0689H36.0752H36.0816H36.088H36.0944H36.1007H36.1071H36.1135H36.1199H36.1263H36.1326H36.139H36.1454H36.1518H36.1582H36.1645H36.1709H36.1773H36.1837H36.19H36.1964H36.2028H36.2092H36.2156H36.2219H36.2283H36.2347H36.2411H36.2475H36.2538H36.2602H36.2666H36.273H36.2793H36.2857H36.2921H36.2985H36.3049H36.3112H36.3176H36.324H36.3304H36.3368H36.3431H36.3495H36.3559H36.3623H36.3686H36.375H36.3814H36.3878H36.3942H36.4005H36.4069H36.4133H36.4197H36.426H36.4324H36.4388H36.4452H36.4516H36.4579H36.4643H36.4707H36.4771H36.4835H36.4898H36.4962H36.5026H36.509H36.5153H36.5217H36.5281H36.5345H36.5409H36.5472H36.5536H36.56H36.5664H36.5728H36.5791H36.5855H36.5919H36.5983H36.6046H36.611H36.6174H36.6238H36.6302H36.6365H36.6429H36.6493H36.6557H36.6621H36.6684H36.6748H36.6812H36.6876H36.6939H36.7003H36.7067H36.7131H36.7195H36.7258H36.7322H36.7386H36.745H36.7513H36.7577H36.7641H36.7705H36.7769H36.7832H36.7896H36.796H36.8024H36.8088H36.8151H36.8215H36.8279H36.8343H36.8406H36.847H36.8534H36.8598H36.8662H36.8725H36.8789H36.8853H36.8917H36.8981H36.9044H36.9108H36.9172H36.9236H36.9299H36.9363H36.9427H36.9491H36.9555H36.9618H36.9682H36.9746H36.981H36.9874H36.9937H37.0001H37.0065H37.0129H37.0192H37.0256H37.032H37.0384H37.0448H37.0511H37.0575H37.0639H37.0703H37.0767H37.083H37.0894H37.0958H37.1022H37.1085H37.1149H37.1213H37.1277H37.1341H37.1404H37.1468H37.1532H37.1596H37.1659H37.1723H37.1787H37.1851H37.1915H37.1978H37.2042H37.2106H37.217H37.2234H37.2297H37.2361H37.2425H37.2489H37.2552H37.2616H37.268H37.2744H37.2808H37.2871H37.2935H37.2999H37.3063H37.3127H37.319H37.3254H37.3318H37.3382H37.3445H37.3509H37.3573H37.3637H37.3701H37.3764H37.3828H37.3892H37.3956H37.402H37.4083H37.4147H37.4211H37.4275H37.4338H37.4402H37.4466H37.453H37.4594H37.4657H37.4721H37.4785H37.4849H37.4912H37.4976H37.504H37.5104H37.5168H37.5231H37.5295H37.5359H37.5423H37.5487H37.555H37.5614H37.5678H37.5742H37.5805H37.5869H37.5933H37.5997H37.6061H37.6124H37.6188H37.6252H37.6316H37.638H37.6443H37.6507H37.6571H37.6635H37.6698H37.6762H37.6826H37.689H37.6954H37.7017H37.7081H37.7145H37.7209H37.7273H37.7336H37.74H37.7464H37.7528H37.7591H37.7655H37.7719H37.7783H37.7847H37.791H37.7974H37.8038H37.8102H37.8165H37.8229H37.8293H37.8357H37.8421H37.8484H37.8548H37.8612H37.8676H37.874H37.8803H37.8867H37.8931H37.8995H37.9058H37.9122H37.9186H37.925H37.9314H37.9377H37.9441H37.9505H37.9569H37.9633H37.9696H37.976H37.9824H37.9888H37.9951H38.0015H38.0079H38.0143H38.0207H38.027H38.0334H38.0398H38.0462H38.0526H38.0589H38.0653H38.0717H38.0781H38.0844H38.0908H38.0972H38.1036H38.11H38.1163H38.1227H38.1291H38.1355H38.1418H38.1482H38.1546H38.161H38.1674H38.1737H38.1801H38.1865H38.1929H38.1993H38.2056H38.212H38.2184H38.2248H38.2311H38.2375H38.2439H38.2503H38.2567H38.263H38.2694H38.2758H38.2822H38.2886H38.2949C38.5471 5.66396 38.6312 5.73169 38.6376 5.73729C38.6414 5.74056 38.642 5.74155 38.6438 5.74571C38.6462 5.75133 38.6557 5.7762 38.6557 5.82998C38.6557 5.85484 38.6533 5.87171 38.6513 5.88178C38.6496 5.89009 38.648 5.89462 38.6473 5.89629C38.6467 5.89683 38.6459 5.8976 38.6447 5.89861C38.6335 5.908 38.5381 5.97657 38.2755 5.97657H38.2627H38.25H38.2372H38.2245H38.2117H38.1989H38.1862H38.1734H38.1607H38.1479H38.1351H38.1224H38.1096H38.0969H38.0841H38.0713H38.0586H38.0458H38.033H38.0203H38.0075H37.9947H37.982H37.9692H37.9564H37.9437H37.9309H37.9181H37.9054H37.8926H37.8798H37.8671H37.8543H37.8415H37.8287H37.816H37.8032H37.7904H37.7777H37.7649H37.7521H37.7393H37.7266H37.7138H37.701H37.6882H37.6755H37.6627H37.6499H37.6371H37.6244H37.6116H37.5988H37.586H37.5732H37.5605H37.5477H37.5349H37.5221H37.5093H37.4966H37.4838H37.471H37.4582H37.4454H37.4327H37.4199H37.4071H37.3943H37.3815H37.3687H37.356H37.3432H37.3304H37.3176H37.3048H37.292H37.2792H37.2665H37.2537H37.2409H37.2281H37.2153H37.2025H37.1897H37.1769H37.1642H37.1514H37.1386H37.1258H37.113H37.1002H37.0874H37.0746H37.0618H37.049H37.0362H37.0235H37.0107H36.9979H36.9851H36.9723H36.9595H36.9467H36.9339H36.9211H36.9083H36.8955H36.8827H36.8699H36.8571H36.8443H36.8315H36.8187H36.8059H36.7932H36.7804H36.7676H36.7548H36.742H36.7292H36.7164H36.7036H36.6908H36.678H36.6652H36.6524H36.6396H36.6268H36.614H36.6012H36.5884H36.5756H36.5628H36.55H36.5372H36.5244H36.5116H36.4988H36.486H36.4732H36.4604H36.4476H36.4348H36.422H36.4091H36.3963H36.3835H36.3707H36.3579H36.3451H36.3323H36.3195H36.3067H36.2939H36.2811H36.2683H36.2555H36.2427H36.2299H36.2171H36.2043H36.1915H36.1787H36.1659H36.153H36.1402H36.1274H36.1146H36.1018H36.089H36.0762H36.0634H36.0506H36.0378H36.025H36.0122H35.9994H35.9865H35.9737H35.9609H35.9481H35.9353H35.9225H35.9097H35.8969H35.8841H35.8713H35.8585H35.8456H35.8328H35.82H35.8072H35.7944H35.7816H35.7688H35.756H35.7432H35.7303H35.7175H35.7047H35.6919H35.6791H35.6663H35.6535H35.6407H35.6279H35.615H35.6022H35.5894H35.5766H35.5638H35.551H35.5382H35.5254H35.5125H35.4997H35.4869H35.4741H35.4613H35.4485H35.4357H35.4229H35.41H35.3972H35.3844H35.3716H35.3588H35.346H35.3332H35.3204H35.3075H35.2947H35.2819H35.2691H35.2563H35.2435H35.2307H35.2178H35.205H35.1922H35.1794H35.1666H35.1538H35.141H35.1282H35.1153H35.1025H35.0897H35.0769H35.0641H35.0513H35.0385H35.0256H35.0128H35H34.9872H34.9744H34.9616H34.9488H34.9359H34.9231H34.9103H34.8975H34.8847H34.8719H34.8591H34.8462H34.8334H34.8206H34.8078H34.795H34.7822H34.7694H34.7566H34.7437H34.7309H34.7181H34.7053H34.6925H34.6797H34.6669H34.654H34.6412H34.6284H34.6156H34.6028H34.59H34.5772H34.5644H34.5515H34.5387H34.5259H34.5131H34.5003H34.4875H34.4747H34.4619H34.449H34.4362H34.4234H34.4106H34.3978H34.385H34.3722H34.3594H34.3465H34.3337H34.3209H34.3081H34.2953H34.2825H34.2697H34.2569H34.2441H34.2312H34.2184H34.2056H34.1928H34.18H34.1672H34.1544H34.1416H34.1288H34.116H34.1031H34.0903H34.0775H34.0647H34.0519H34.0391H34.0263H34.0135H34.0007H33.9879H33.9751H33.9622H33.9494H33.9366H33.9238H33.911H33.8982H33.8854H33.8726H33.8598H33.847H33.8342H33.8214H33.8086H33.7958H33.7829H33.7701H33.7573H33.7445H33.7317H33.7189H33.7061H33.6933H33.6805H33.6677H33.6549H33.6421H33.6293H33.6165H33.6037H33.5909H33.5781H33.5653H33.5525H33.5397H33.5269H33.5141H33.5013H33.4885H33.4757H33.4629H33.4501H33.4373H33.4245H33.4117H33.3989H33.3861H33.3733H33.3605H33.3477H33.3349H33.3221H33.3093H33.2965H33.2837H33.2709H33.2581H33.2453H33.2325H33.2197H33.2069H33.1941H33.1813H33.1685H33.1557H33.1429H33.1301H33.1173H33.1045H33.0917H33.0789H33.0661H33.0533H33.0405H33.0277H33.0149H33.0022H32.9894H32.9766H32.9638H32.951H32.9382H32.9254H32.9126H32.8998H32.887H32.8742H32.8615H32.8487H32.8359H32.8231H32.8103H32.7975H32.7847H32.7719H32.7591H32.7464H32.7336H32.7208H32.708H32.6952H32.6824H32.6696H32.6569H32.6441H32.6313H32.6185H32.6057H32.5929H32.5802H32.5674H32.5546H32.5418H32.529H32.5162H32.5035H32.4907H32.4779H32.4651H32.4523H32.4396H32.4268H32.414H32.4012H32.3885H32.3757H32.3629H32.3501H32.3373H32.3246H32.3118H32.299H32.2862H32.2735H32.2607H32.2479H32.2351H32.2224H32.2096H32.1968H32.1841H32.1713H32.1585H32.1457H32.133H32.1202H32.1074H32.0947H32.0819H32.0691H32.0564H32.0436H32.0308H32.0181H32.0053H31.9925H31.9798H31.967H31.9542H31.9415H31.9287H31.9159H31.9032H31.8904H31.8776H31.8649H31.8521H31.8394H31.8266H31.8138H31.8011H31.7883H31.7756H31.7628H31.75H31.7373H31.7245C31.4531 5.97657 31.3561 5.90841 31.3444 5.89888C31.3405 5.89564 31.3402 5.89509 31.3395 5.89347C31.3394 5.89324 31.3393 5.89299 31.3392 5.89271C31.3373 5.88867 31.3262 5.86305 31.3246 5.80296L30.3249 5.82998ZM30.3249 5.82998C30.3055 5.09151 30.8303 4.64453 31.744 4.64453L30.3249 5.82998Z" stroke="black" stroke-width="2" stroke-dasharray="0,0,0,20.95759391784668">
<animate attributeType="XML" attributeName="stroke-dasharray" repeatCount="indefinite
" dur="5.125s" values="0,0,0,20.95759391784668; 
          0,10.47879695892334,10.47879695892334,0; 
          20.95759391784668,0,0,0" keyTimes="0; 0.5; 1" fill="freeze">
          </animate></path>
<setting>{"type":"direct","speed":16,"random":1,"shift":1,"size":1,"rupture":50}</setting></svg>