<?xml version="1.0" standalone="no"?>
<svg id="Group36" width="83" height="64" viewBox="0 0 83 64" fill="none" xmlns="http://www.w3.org/2000/svg" style="max-width: 100%; max-height: 100%;">
<path d="M15.1837 47C18.2173 52.1385 22.7408 56.2819 28.1823 58.9062C33.6238 61.5305 39.7388 62.5178 45.754 61.7433C51.7693 60.9689 57.4146 58.4674 61.9762 54.5552C66.5377 50.643 69.8106 45.4958 71.3809 39.7646L73.3658 32.5201M73.3658 32.5201L81.5 46.2985M73.3658 32.5201L59.2768 40.4751M68.3163 17C65.2827 11.8615 60.7592 7.71813 55.3177 5.09384C49.8762 2.46955 43.7612 1.48221 37.746 2.25668C31.7307 3.03115 26.0854 5.53264 21.5238 9.44482C16.9623 13.357 13.6894 18.5042 12.1191 24.2354L10.1342 31.4799M10.1342 31.4799L24.2232 23.5249M10.1342 31.4799L2 17.7015" stroke="#1A1A1A" stroke-width="3" stroke-linecap="round" stroke-linejoin="round" stroke-dasharray="0,0,0,222.81484985351562"><animate attributeType="XML" attributeName="stroke-dasharray" repeatCount="indefinite" dur="2.5s" values="0,0,0,222.81484985351562; 
          0,111.40742492675781,111.40742492675781,0; 
          222.81484985351562,0,0,0" keyTimes="0; 0.5; 1" fill="freeze"></animate></path>
<path d="M32 40.4167C33.95 42.3333 37.85 44.25 41.75 44.25M41.75 44.25C46.625 44.25 51.5 43.2917 51.5 38.5C51.5 33.7083 46.7215 32.75 41.75 32.75M41.75 44.25V32.75M41.75 44.25V50M41.75 32.75C36.875 32.75 32 31.7917 32 27C32 22.2083 36.875 21.25 41.75 21.25M41.75 32.75V21.25M41.75 21.25C45.65 21.25 49.55 23.1667 51.5 25.0833M41.75 21.25V15.5" stroke="#1A1A1A" stroke-width="3" stroke-dasharray="0,0,0,107.04631805419922"><animate attributeType="XML" attributeName="stroke-dasharray" repeatCount="indefinite" dur="2.5s" values="0,0,0,107.04631805419922; 
          0,53.52315902709961,53.52315902709961,0; 
          107.04631805419922,0,0,0" keyTimes="0; 0.5; 1" fill="freeze"></animate></path>
<setting>{"type":"direct","speed":20,"random":1,"shift":1,"size":1,"rupture":50}</setting></svg>