<?xml version="1.0" standalone="no"?>
<svg id="Iconly/Light/Message" width="58" height="52" viewBox="0 0 58 52" fill="none" xmlns="http://www.w3.org/2000/svg" style="max-width: 100%; max-height: 100%;">
<path d="M44.8374 17.6025L32.8683 27.2373C31.7696 28.1001 30.4131 28.5691 29.0161 28.5691C27.6191 28.5691 26.2625 28.1001 25.1638 27.2373L13.0937 17.6025" stroke="#200E32" stroke-width="3" stroke-miterlimit="10" stroke-linecap="round" stroke-linejoin="round" stroke-dasharray="0,0,0,39.11361312866211"><animate attributeType="XML" attributeName="stroke-dasharray" repeatCount="indefinite" dur="2.5s" values="0,0,0,39.11361312866211; 
          0,19.556806564331055,19.556806564331055,0; 
          39.11361312866211,0,0,0" keyTimes="0; 0.5; 1" fill="freeze"></animate></path>
<path d="M15.7143 2H42.1664C44.0578 2.02072 45.9251 2.42702 47.6541 3.19406C49.383 3.96111 50.9374 5.07277 52.2221 6.46107C53.509 7.85192 54.5019 9.4883 55.1411 11.2721C55.7804 13.0559 56.053 14.9505 55.9424 16.8422V35.1578C56.053 37.0495 55.7804 38.944 55.1411 40.7278C54.5019 42.5116 53.509 44.148 52.2221 45.5389C50.9387 46.9258 49.3861 48.0367 47.6592 48.8037C45.9323 49.5707 44.0671 49.9777 42.1776 49.9999H15.7143C7.52162 50.0224 2 43.3588 2 35.169V16.8534C2 8.66354 7.52162 2 15.7143 2Z" stroke="#200E32" stroke-width="3" stroke-miterlimit="10" stroke-linecap="round" stroke-linejoin="round" stroke-dasharray="0,0,0,179.9869384765625"><animate attributeType="XML" attributeName="stroke-dasharray" repeatCount="indefinite" dur="2.5s" values="0,0,0,179.9869384765625; 
          0,89.99346923828125,89.99346923828125,0; 
          179.9869384765625,0,0,0" keyTimes="0; 0.5; 1" fill="freeze"></animate></path>
<setting>{"type":"direct","speed":20,"random":1,"shift":1,"size":1,"rupture":50}</setting></svg>