<?xml version="1.0" standalone="no"?>
<svg id="Star" width="55" height="52" viewBox="0 0 55 52" fill="none" xmlns="http://www.w3.org/2000/svg" style="max-width: 100%; max-height: 100%;">
<path d="M29.234 3.17515L35.4102 15.5996C35.5629 15.9086 35.7883 16.1761 36.0669 16.379C36.3456 16.582 36.6693 16.7144 37.0103 16.7649L50.8374 18.7623C51.3962 18.8376 51.9024 19.131 52.2455 19.5784C52.5566 19.9832 52.7057 20.4894 52.6638 20.9982C52.6219 21.507 52.3919 21.982 52.0188 22.3304L41.9971 32.0214C41.7473 32.2564 41.561 32.5509 41.4556 32.8773C41.3502 33.2037 41.3292 33.5514 41.3944 33.8882L43.7945 47.5633C43.8752 48.1087 43.7381 48.6639 43.4128 49.1091C43.0874 49.5542 42.6 49.8534 42.0558 49.942C41.5861 50.0138 41.1057 49.9393 40.6797 49.7287L28.3647 43.2751C28.0611 43.1099 27.721 43.0233 27.3753 43.0233C27.0297 43.0233 26.6895 43.1099 26.3859 43.2751L13.9802 49.766C13.4806 50.0193 12.9023 50.0691 12.3668 49.905C11.8312 49.7409 11.3801 49.3757 11.1081 48.886C10.8936 48.4767 10.8178 48.0087 10.8921 47.5526L13.2922 33.8775C13.3511 33.5408 13.327 33.1948 13.222 32.8695C13.117 32.5442 12.9342 32.2494 12.6895 32.0108L2.6145 22.3224C2.41969 22.1278 2.26515 21.8966 2.15971 21.6422C2.05427 21.3878 2 21.1151 2 20.8397C2 20.5643 2.05427 20.2916 2.15971 20.0372C2.26515 19.7828 2.41969 19.5517 2.6145 19.357V19.357C2.95252 19.0501 3.37034 18.8449 3.81987 18.765L17.6497 16.7569C17.9901 16.7036 18.3128 16.5698 18.5911 16.3666C18.8694 16.1635 19.0952 15.8968 19.2497 15.5889L25.4206 3.17515C25.5432 2.92523 25.7144 2.7022 25.9241 2.51907C26.1338 2.33594 26.3778 2.19635 26.642 2.10845C27.1783 1.93057 27.7634 1.97277 28.2687 2.22578C28.6828 2.43214 29.0208 2.76453 29.234 3.17515V3.17515Z" stroke="#1A1A1A" stroke-width="3" stroke-miterlimit="10" stroke-linecap="round" stroke-linejoin="round" stroke-dasharray="0,0,0,172.98440551757812"><animate attributeType="XML" attributeName="stroke-dasharray" repeatCount="indefinite" dur="2.5s" values="0,0,0,172.98440551757812; 
          0,86.49220275878906,86.49220275878906,0; 
          172.98440551757812,0,0,0" keyTimes="0; 0.5; 1" fill="freeze"></animate></path>
<setting>{"type":"direct","speed":20,"random":1,"shift":1,"size":1,"rupture":50}</setting></svg>