<?xml version="1.0" standalone="no"?>
<svg id="Group" width="73" height="70" viewBox="0 0 73 70" fill="none" xmlns="http://www.w3.org/2000/svg" style="max-width: 100%; max-height: 100%;">
<mask id="path-1-inside-1_732_9247" fill="white">
<path d="M72.9167 53.6329C72.7458 53.9388 72.5939 54.2447 72.423 54.5507C71.6634 55.7361 70.5241 56.1377 69.1949 56.0803C68.8341 56.9598 68.4733 57.8203 68.1125 58.6998C68.8151 59.369 69.3468 60.1338 69.3848 61.1663C69.4227 62.1224 69.1379 62.9445 68.4733 63.6329C67.9226 64.2065 67.372 64.761 66.8213 65.3155C65.3022 66.826 63.5173 66.8451 61.9792 65.3728C61.9032 65.2964 61.8083 65.2199 61.7323 65.1434C60.8588 65.5067 60.0043 65.8509 59.1309 66.2333C59.1119 66.5201 59.1309 66.826 59.0739 67.1319C58.846 68.7954 57.5358 69.9618 55.8648 69.9809C55.0673 70 54.2508 69.9809 53.4532 69.9809C51.5164 69.9618 50.1872 68.7189 50.0922 66.7686C50.0732 66.3097 49.9213 66.1185 49.5036 65.9656C48.839 65.7361 48.1934 65.4302 47.5288 65.1625C47.111 65.4684 46.7122 65.8509 46.2375 66.0803C44.9843 66.673 43.788 66.5392 42.7246 65.6214C42.022 65.0096 41.3764 64.3403 40.7498 63.652C39.4396 62.2753 39.4206 60.4398 40.7498 59.044C41.0346 58.738 41.0536 58.5468 40.8827 58.1836C40.5599 57.4952 40.2751 56.7878 39.9712 56.0612C36.0596 56.0612 32.1099 56.0612 28.1793 56.0612C27.2298 56.0612 26.6222 55.6023 26.5272 54.8375C26.3943 53.9006 27.0209 53.1931 28.0273 53.174C30.5149 53.1549 33.0024 53.174 35.5089 53.174C35.7368 53.174 35.9836 53.174 36.2684 53.174C36.2684 52.2371 36.2684 51.3576 36.2684 50.4971C36.2874 48.3748 37.4837 47.1128 39.5535 46.9598C39.7624 46.9407 40.0472 46.7878 40.1232 46.6157C40.465 45.8891 40.7308 45.1243 41.0346 44.3403C40.313 43.6711 39.7814 42.8872 39.7434 41.8356C39.7244 40.8987 40.0092 40.0956 40.6548 39.4264C41.2625 38.7954 41.8891 38.1644 42.5157 37.5526C43.826 36.2906 45.6679 36.2524 46.9971 37.5143C47.3579 37.8585 47.6047 37.8585 48.0414 37.6482C48.6681 37.3231 49.3327 37.0937 49.9783 36.826C50.0353 36.3862 50.0543 35.9656 50.1492 35.5449C50.453 34.1874 51.5164 33.2122 52.8836 33.0975C53.871 33.021 54.8774 33.021 55.8648 33.0593C57.7257 33.1358 58.941 34.3403 59.0549 36.2141C59.0739 36.673 59.2068 36.8642 59.6436 36.9981C60.3461 37.2275 61.0107 37.5335 61.7513 37.8585C62.5298 36.9981 63.5173 36.4436 64.8275 36.5966C64.8275 31.74 64.8275 26.9025 64.8275 22.0268C44.1867 22.0268 23.584 22.0268 2.90527 22.0268C2.90527 22.2753 2.90527 22.4857 2.90527 22.696C2.90527 31.1281 2.90527 39.5602 2.90527 48.0115C2.90527 49.2543 3.17112 50.4206 3.89269 51.4532C4.67122 52.5813 5.73459 53.1931 7.13976 53.1931C9.72222 53.174 12.3047 53.1931 14.9061 53.1931C16.0075 53.1931 16.6531 53.7285 16.6531 54.6272C16.6531 55.5258 15.9885 56.0803 14.9061 56.0803C12.4186 56.0803 9.91211 56.0038 7.42459 56.0994C3.43696 56.2524 1.04438 53.3078 0.322808 50.478C0.246853 50.1912 0.132921 49.9235 0.0379774 49.6367C0 35.1816 0 20.7457 0 6.30975C0.0949436 6.08031 0.208876 5.85086 0.265842 5.62141C1.10135 2.25621 3.74078 0 6.93088 0C24.8942 0 42.8575 0 60.8209 0C62.6248 0 64.1439 0.650096 65.3971 1.93117C67.1061 3.69025 67.7327 5.85086 67.7327 8.26004C67.7327 18.0497 67.7327 27.8585 67.7138 37.6482C67.7138 38.3174 67.8277 38.8145 68.3594 39.2734C69.0999 39.9044 69.4038 40.7648 69.3848 41.7591C69.3658 42.8489 68.7961 43.6329 68.1125 44.3021C68.4353 45.1052 68.7202 45.8317 69.043 46.5392C69.1189 46.7113 69.3468 46.9216 69.4987 46.9216C71.3216 46.9407 72.366 47.9159 72.8977 49.5793C72.9167 50.956 72.9167 52.2945 72.9167 53.6329ZM64.7895 19.0631C64.7895 15.0287 64.9034 11.0134 64.7515 6.99809C64.6566 4.41683 62.7957 2.86807 60.2322 2.86807C53.3773 2.86807 46.5224 2.86807 39.6484 2.86807C28.8249 2.86807 18.0013 2.86807 7.17773 2.86807C6.01942 2.86807 5.03201 3.21224 4.25347 4.07266C3.26606 5.16252 2.8673 6.50096 2.8673 7.95411C2.8673 11.4914 2.8673 15.0287 2.8673 18.566C2.8673 18.7189 2.88628 18.891 2.90527 19.0631C23.546 19.0631 44.1678 19.0631 64.7895 19.0631ZM70.0494 51.4914C70.0494 49.8853 70.0494 49.8853 68.4163 49.8662C68.3784 49.8662 68.3214 49.8662 68.2834 49.8662C67.315 49.8279 66.9352 49.4837 66.6124 48.5277C66.2326 47.3996 65.7959 46.2906 65.2832 45.239C64.6946 44.0344 64.6756 43.6711 65.625 42.7151C66.8593 41.4532 66.8403 41.8164 65.625 40.5736C64.4097 39.3308 64.3907 39.3308 63.1375 40.5354C62.3969 41.2619 61.9032 41.2619 60.9728 40.8222C59.8524 40.2868 58.6941 39.8088 57.5168 39.3881C56.5674 39.044 56.2066 38.6616 56.1876 37.6291C56.1496 35.9273 56.1496 35.9273 54.5166 35.9273C52.9216 35.9273 52.9216 35.9273 52.9026 37.5526C52.9026 38.7189 52.5798 39.044 51.4594 39.4264C50.415 39.7706 49.3707 40.2103 48.3832 40.7075C47.168 41.3384 46.7882 41.3384 45.8198 40.3633C44.6425 39.1778 44.9273 39.1969 43.731 40.3824C42.4778 41.6252 42.4778 41.6252 43.674 42.8872C44.4146 43.652 44.4336 44.13 43.9779 45.0669C43.4652 46.1377 42.9904 47.2275 42.6107 48.3556C42.2309 49.5029 41.8891 49.847 40.6928 49.847C39.1168 49.8662 39.1168 49.8662 39.1168 51.434C39.1168 53.1549 39.1168 53.1549 40.7878 53.1549C41.9081 53.1549 42.2499 53.499 42.5917 54.5698C42.9525 55.6788 43.3892 56.7495 43.9019 57.8011C44.4526 58.891 44.4336 59.3308 43.5791 60.2103C42.4778 61.3384 42.4778 61.3384 43.5791 62.4474C44.7754 63.652 44.7754 63.652 45.9527 62.4665C46.7502 61.6635 47.187 61.6635 48.2313 62.1797C49.2377 62.6769 50.2821 63.1358 51.3645 63.499C52.6367 63.9197 52.9216 64.2256 52.9216 65.5832C52.9405 67.2658 52.7317 67.0554 54.4027 67.0746C56.1876 67.0746 56.1876 67.0746 56.2066 65.2581C56.2256 64.2639 56.5484 63.9197 57.5168 63.5755C58.6182 63.174 59.7385 62.7533 60.7829 62.2371C61.9602 61.6444 62.321 61.6444 63.2894 62.6004C64.5426 63.8241 64.1819 63.805 65.4161 62.5813C66.6504 61.3575 66.6504 61.3384 65.4351 60.0765C64.7325 59.3499 64.7135 58.8528 65.1503 57.9541C65.682 56.8451 66.1567 55.6979 66.5744 54.5507C66.9542 53.4799 67.258 53.174 68.4163 53.174C70.2962 53.174 70.0304 53.4226 70.0494 51.4914Z" stroke-dasharray="0,0,0,708.8389892578125"><animate attributeType="XML" attributeName="stroke-dasharray" repeatCount="indefinite" dur="2.9411764705882355s" values="0,0,0,708.8389892578125; 
          0,354.41949462890625,354.41949462890625,0; 
          708.8389892578125,0,0,0" keyTimes="0; 0.5; 1" fill="freeze"></animate></path>
</mask>
<path d="M72.9167 53.6329C72.7458 53.9388 72.5939 54.2447 72.423 54.5507C71.6634 55.7361 70.5241 56.1377 69.1949 56.0803C68.8341 56.9598 68.4733 57.8203 68.1125 58.6998C68.8151 59.369 69.3468 60.1338 69.3848 61.1663C69.4227 62.1224 69.1379 62.9445 68.4733 63.6329C67.9226 64.2065 67.372 64.761 66.8213 65.3155C65.3022 66.826 63.5173 66.8451 61.9792 65.3728C61.9032 65.2964 61.8083 65.2199 61.7323 65.1434C60.8588 65.5067 60.0043 65.8509 59.1309 66.2333C59.1119 66.5201 59.1309 66.826 59.0739 67.1319C58.846 68.7954 57.5358 69.9618 55.8648 69.9809C55.0673 70 54.2508 69.9809 53.4532 69.9809C51.5164 69.9618 50.1872 68.7189 50.0922 66.7686C50.0732 66.3097 49.9213 66.1185 49.5036 65.9656C48.839 65.7361 48.1934 65.4302 47.5288 65.1625C47.111 65.4684 46.7122 65.8509 46.2375 66.0803C44.9843 66.673 43.788 66.5392 42.7246 65.6214C42.022 65.0096 41.3764 64.3403 40.7498 63.652C39.4396 62.2753 39.4206 60.4398 40.7498 59.044C41.0346 58.738 41.0536 58.5468 40.8827 58.1836C40.5599 57.4952 40.2751 56.7878 39.9712 56.0612C36.0596 56.0612 32.1099 56.0612 28.1793 56.0612C27.2298 56.0612 26.6222 55.6023 26.5272 54.8375C26.3943 53.9006 27.0209 53.1931 28.0273 53.174C30.5149 53.1549 33.0024 53.174 35.5089 53.174C35.7368 53.174 35.9836 53.174 36.2684 53.174C36.2684 52.2371 36.2684 51.3576 36.2684 50.4971C36.2874 48.3748 37.4837 47.1128 39.5535 46.9598C39.7624 46.9407 40.0472 46.7878 40.1232 46.6157C40.465 45.8891 40.7308 45.1243 41.0346 44.3403C40.313 43.6711 39.7814 42.8872 39.7434 41.8356C39.7244 40.8987 40.0092 40.0956 40.6548 39.4264C41.2625 38.7954 41.8891 38.1644 42.5157 37.5526C43.826 36.2906 45.6679 36.2524 46.9971 37.5143C47.3579 37.8585 47.6047 37.8585 48.0414 37.6482C48.6681 37.3231 49.3327 37.0937 49.9783 36.826C50.0353 36.3862 50.0543 35.9656 50.1492 35.5449C50.453 34.1874 51.5164 33.2122 52.8836 33.0975C53.871 33.021 54.8774 33.021 55.8648 33.0593C57.7257 33.1358 58.941 34.3403 59.0549 36.2141C59.0739 36.673 59.2068 36.8642 59.6436 36.9981C60.3461 37.2275 61.0107 37.5335 61.7513 37.8585C62.5298 36.9981 63.5173 36.4436 64.8275 36.5966C64.8275 31.74 64.8275 26.9025 64.8275 22.0268C44.1867 22.0268 23.584 22.0268 2.90527 22.0268C2.90527 22.2753 2.90527 22.4857 2.90527 22.696C2.90527 31.1281 2.90527 39.5602 2.90527 48.0115C2.90527 49.2543 3.17112 50.4206 3.89269 51.4532C4.67122 52.5813 5.73459 53.1931 7.13976 53.1931C9.72222 53.174 12.3047 53.1931 14.9061 53.1931C16.0075 53.1931 16.6531 53.7285 16.6531 54.6272C16.6531 55.5258 15.9885 56.0803 14.9061 56.0803C12.4186 56.0803 9.91211 56.0038 7.42459 56.0994C3.43696 56.2524 1.04438 53.3078 0.322808 50.478C0.246853 50.1912 0.132921 49.9235 0.0379774 49.6367C0 35.1816 0 20.7457 0 6.30975C0.0949436 6.08031 0.208876 5.85086 0.265842 5.62141C1.10135 2.25621 3.74078 0 6.93088 0C24.8942 0 42.8575 0 60.8209 0C62.6248 0 64.1439 0.650096 65.3971 1.93117C67.1061 3.69025 67.7327 5.85086 67.7327 8.26004C67.7327 18.0497 67.7327 27.8585 67.7138 37.6482C67.7138 38.3174 67.8277 38.8145 68.3594 39.2734C69.0999 39.9044 69.4038 40.7648 69.3848 41.7591C69.3658 42.8489 68.7961 43.6329 68.1125 44.3021C68.4353 45.1052 68.7202 45.8317 69.043 46.5392C69.1189 46.7113 69.3468 46.9216 69.4987 46.9216C71.3216 46.9407 72.366 47.9159 72.8977 49.5793C72.9167 50.956 72.9167 52.2945 72.9167 53.6329ZM64.7895 19.0631C64.7895 15.0287 64.9034 11.0134 64.7515 6.99809C64.6566 4.41683 62.7957 2.86807 60.2322 2.86807C53.3773 2.86807 46.5224 2.86807 39.6484 2.86807C28.8249 2.86807 18.0013 2.86807 7.17773 2.86807C6.01942 2.86807 5.03201 3.21224 4.25347 4.07266C3.26606 5.16252 2.8673 6.50096 2.8673 7.95411C2.8673 11.4914 2.8673 15.0287 2.8673 18.566C2.8673 18.7189 2.88628 18.891 2.90527 19.0631C23.546 19.0631 44.1678 19.0631 64.7895 19.0631ZM70.0494 51.4914C70.0494 49.8853 70.0494 49.8853 68.4163 49.8662C68.3784 49.8662 68.3214 49.8662 68.2834 49.8662C67.315 49.8279 66.9352 49.4837 66.6124 48.5277C66.2326 47.3996 65.7959 46.2906 65.2832 45.239C64.6946 44.0344 64.6756 43.6711 65.625 42.7151C66.8593 41.4532 66.8403 41.8164 65.625 40.5736C64.4097 39.3308 64.3907 39.3308 63.1375 40.5354C62.3969 41.2619 61.9032 41.2619 60.9728 40.8222C59.8524 40.2868 58.6941 39.8088 57.5168 39.3881C56.5674 39.044 56.2066 38.6616 56.1876 37.6291C56.1496 35.9273 56.1496 35.9273 54.5166 35.9273C52.9216 35.9273 52.9216 35.9273 52.9026 37.5526C52.9026 38.7189 52.5798 39.044 51.4594 39.4264C50.415 39.7706 49.3707 40.2103 48.3832 40.7075C47.168 41.3384 46.7882 41.3384 45.8198 40.3633C44.6425 39.1778 44.9273 39.1969 43.731 40.3824C42.4778 41.6252 42.4778 41.6252 43.674 42.8872C44.4146 43.652 44.4336 44.13 43.9779 45.0669C43.4652 46.1377 42.9904 47.2275 42.6107 48.3556C42.2309 49.5029 41.8891 49.847 40.6928 49.847C39.1168 49.8662 39.1168 49.8662 39.1168 51.434C39.1168 53.1549 39.1168 53.1549 40.7878 53.1549C41.9081 53.1549 42.2499 53.499 42.5917 54.5698C42.9525 55.6788 43.3892 56.7495 43.9019 57.8011C44.4526 58.891 44.4336 59.3308 43.5791 60.2103C42.4778 61.3384 42.4778 61.3384 43.5791 62.4474C44.7754 63.652 44.7754 63.652 45.9527 62.4665C46.7502 61.6635 47.187 61.6635 48.2313 62.1797C49.2377 62.6769 50.2821 63.1358 51.3645 63.499C52.6367 63.9197 52.9216 64.2256 52.9216 65.5832C52.9405 67.2658 52.7317 67.0554 54.4027 67.0746C56.1876 67.0746 56.1876 67.0746 56.2066 65.2581C56.2256 64.2639 56.5484 63.9197 57.5168 63.5755C58.6182 63.174 59.7385 62.7533 60.7829 62.2371C61.9602 61.6444 62.321 61.6444 63.2894 62.6004C64.5426 63.8241 64.1819 63.805 65.4161 62.5813C66.6504 61.3575 66.6504 61.3384 65.4351 60.0765C64.7325 59.3499 64.7135 58.8528 65.1503 57.9541C65.682 56.8451 66.1567 55.6979 66.5744 54.5507C66.9542 53.4799 67.258 53.174 68.4163 53.174C70.2962 53.174 70.0304 53.4226 70.0494 51.4914Z" stroke="black" stroke-width="4" mask="url(#path-1-inside-1_732_9247)" stroke-dasharray="0,0,0,708.8389892578125"><animate attributeType="XML" attributeName="stroke-dasharray" repeatCount="indefinite" dur="2.9411764705882355s" values="0,0,0,708.8389892578125; 
          0,354.41949462890625,354.41949462890625,0; 
          708.8389892578125,0,0,0" keyTimes="0; 0.5; 1" fill="freeze"></animate></path>
<path d="M32.8693 38.2634L33.4734 37.5981L32.8762 36.9266C31.7379 35.6467 30.6581 34.4259 29.579 33.1868L29.579 33.1868L29.5775 33.1851C29.3365 32.9095 29.2877 32.7068 29.2859 32.609C29.2846 32.5372 29.3034 32.4446 29.4402 32.3253C29.5602 32.2229 29.6421 32.2171 29.7072 32.227C29.7961 32.2406 29.9844 32.3102 30.2259 32.5798L30.2261 32.5799C31.4573 33.9532 32.6883 35.3454 33.9003 36.7373L33.9002 36.7373L33.904 36.7416C34.2493 37.1337 34.3238 37.4053 34.3238 37.5816C34.3238 37.7579 34.2493 38.0295 33.904 38.4216L33.904 38.4216L33.9009 38.4252C32.6699 39.8363 31.4198 41.2476 30.1696 42.6401L30.1671 42.6428C29.9657 42.8688 29.7925 42.928 29.7025 42.9375C29.6296 42.9452 29.5403 42.9312 29.4286 42.8221L29.4226 42.8162L29.4164 42.8104C29.3068 42.7069 29.2863 42.6219 29.2882 42.5471C29.2905 42.4542 29.335 42.2723 29.5418 42.0329C29.8137 41.7213 30.0861 41.414 30.3614 41.1033L30.3625 41.1021C30.637 40.7922 30.9145 40.4791 31.1924 40.1607L31.1938 40.1591C31.7249 39.5479 32.2695 38.924 32.8693 38.2634Z" stroke="black" stroke-width="2" stroke-dasharray="0,0,0,28.61893081665039"><animate attributeType="XML" attributeName="stroke-dasharray" repeatCount="indefinite" dur="2.9411764705882355s" values="0,0,0,28.61893081665039; 
          0,14.309465408325195,14.309465408325195,0; 
          28.61893081665039,0,0,0" keyTimes="0; 0.5; 1" fill="freeze"></animate></path>
<path d="M10.5649 36.9107L9.9488 37.5754L10.5499 38.2538C10.7883 38.5227 11.025 38.7891 11.26 39.0536C12.1163 40.017 12.9507 40.9559 13.7632 41.9079C13.9988 42.1884 14.0755 42.2988 14.1011 42.3742C14.1472 42.538 14.1314 42.6302 14.1168 42.6729C14.1048 42.7077 14.0722 42.7767 13.9404 42.8605C13.7738 42.9625 13.6647 42.9753 13.6209 42.9732C13.601 42.9722 13.5878 42.9683 13.5757 42.9625C13.5631 42.9566 13.5355 42.9407 13.4966 42.8984L13.4956 42.8973C12.0235 41.301 10.5737 39.6704 9.18253 38.0047C9.00569 37.7875 8.96241 37.3795 9.30446 36.9791C10.6252 35.4402 11.9847 33.9191 13.3521 32.3892C13.4686 32.2609 13.5871 32.2198 13.6764 32.2145C13.7667 32.2092 13.8694 32.2372 13.9675 32.3265C14.0707 32.4204 14.1095 32.5218 14.1137 32.6144C14.1179 32.7076 14.0887 32.8463 13.9548 33.0035L13.9538 33.0047C13.3669 33.6963 12.7705 34.3631 12.1641 35.041C11.856 35.3854 11.5454 35.7326 11.2322 36.0874L11.1864 36.1394L11.1481 36.1972C11.0021 36.4177 10.8163 36.6395 10.5649 36.9107Z" stroke="black" stroke-width="2" stroke-dasharray="0,0,0,28.714855194091797"><animate attributeType="XML" attributeName="stroke-dasharray" repeatCount="indefinite" dur="2.9411764705882355s" values="0,0,0,28.714855194091797; 
          0,14.357427597045898,14.357427597045898,0; 
          28.714855194091797,0,0,0" keyTimes="0; 0.5; 1" fill="freeze"></animate></path>
<path d="M22.6696 35.3834L22.6696 35.3834L22.6676 35.3916C22.3542 36.7209 22.0408 38.0549 21.7275 39.3884L21.7275 39.3886C21.4158 40.7152 21.1043 42.0415 20.7927 43.363C20.7735 43.4314 20.7549 43.5016 20.7385 43.5637L20.7374 43.5678C20.7225 43.6239 20.7093 43.6739 20.6967 43.7197C20.5813 44.0007 20.3597 44.0729 20.1974 44.0384C20.0696 44.0029 19.976 43.928 19.9215 43.8443C19.8695 43.7645 19.8442 43.665 19.8702 43.5425C20.295 41.666 20.7391 39.7917 21.1829 37.919C21.3524 37.2037 21.5218 36.4886 21.6901 35.7737L21.6903 35.7729C21.7895 35.3497 21.8863 34.9312 21.9825 34.5151C22.2022 33.5653 22.4189 32.6282 22.655 31.6771C22.7297 31.3837 22.8578 31.2501 22.9332 31.2004C22.9938 31.1604 23.0693 31.1377 23.1965 31.1794L23.2174 31.1862L23.2387 31.1922C23.3795 31.2315 23.4391 31.2896 23.4715 31.3377C23.5037 31.3854 23.5517 31.4886 23.5548 31.6863C23.4264 32.2138 23.2945 32.7703 23.1596 33.3392L23.1379 33.4305C22.9859 34.0713 22.83 34.7277 22.6696 35.3834Z" stroke="black" stroke-width="2" stroke-dasharray="0,0,0,27.386266708374023"><animate attributeType="XML" attributeName="stroke-dasharray" repeatCount="indefinite" dur="2.9411764705882355s" values="0,0,0,27.386266708374023; 
          0,13.693133354187012,13.693133354187012,0; 
          27.386266708374023,0,0,0" keyTimes="0; 0.5; 1" fill="freeze"></animate></path>
<path d="M21.5522 54.1934C21.8186 54.1934 21.9953 54.3788 21.9953 54.6274C21.9953 54.8847 21.7909 55.0805 21.5522 55.0805C21.307 55.0805 21.0901 54.8403 21.0901 54.6465C21.0901 54.3978 21.2859 54.1934 21.5522 54.1934Z" stroke="black" stroke-width="2" stroke-dasharray="0,0,0,2.81304669380188"><animate attributeType="XML" attributeName="stroke-dasharray" repeatCount="indefinite" dur="2.9411764705882355s" values="0,0,0,2.81304669380188; 
          0,1.40652334690094,1.40652334690094,0; 
          2.81304669380188,0,0,0" keyTimes="0; 0.5; 1" fill="freeze"></animate></path>
<path d="M39.0213 12.062L39.0212 12.062C39.4426 13.6836 40.9228 14.8782 42.6093 14.9084L39.0213 12.062ZM39.0213 12.062L39.0196 12.0559M39.0213 12.062L39.0196 12.0559M39.0196 12.0559C38.5769 10.3958 39.2768 8.62879 40.6985 7.83691C41.3568 7.48225 42.1679 7.2485 42.8588 7.23304C46.9834 7.15686 51.13 7.17587 55.2859 7.21409L55.2884 7.2141M39.0196 12.0559L55.2884 7.2141M55.2884 7.2141C57.6113 7.2297 59.2662 8.90851 59.2512 11.0829H59.2512M55.2884 7.2141L59.2512 11.0829M59.2512 11.0829V11.0898M59.2512 11.0829V11.0898M59.2512 11.0898C59.2512 13.2548 57.5891 14.9101 55.2537 14.9273C54.2227 14.9273 53.196 14.9225 52.1666 14.9178L52.1661 14.9178C51.1365 14.913 50.1042 14.9082 49.0668 14.9082C48.3317 14.9082 47.6052 14.9125 46.8829 14.9168M59.2512 11.0898L46.8829 14.9168M46.8829 14.9168C45.4536 14.9253 44.0406 14.9336 42.6095 14.9084L46.8829 14.9168ZM58.3838 11.1067L58.3838 11.1059C58.3975 10.2494 58.0819 9.46825 57.4673 8.9105C56.863 8.36212 56.0508 8.10131 55.1812 8.10131C53.823 8.10131 52.4653 8.09919 51.1073 8.09707C48.3907 8.09282 45.6733 8.08857 42.9501 8.10131C42.3889 8.10167 41.8125 8.22839 41.3055 8.45815L41.2868 8.4666L41.2685 8.47582C40.0412 9.09373 39.5256 10.5169 39.8577 11.7615C40.0221 12.4148 40.3747 12.987 40.9076 13.396C41.4409 13.8054 42.0979 14.008 42.8012 14.0208L42.8012 14.0209L42.8103 14.021C44.1975 14.0338 45.5899 14.0295 46.9693 14.0252C47.6534 14.0231 48.3343 14.021 49.0099 14.021H49.022H49.0341H49.0463H49.0584H49.0705H49.0826H49.0948H49.1069H49.119H49.1311H49.1432H49.1554H49.1675H49.1796H49.1917H49.2039H49.216H49.2281H49.2402H49.2523H49.2645H49.2766H49.2887H49.3008H49.3129H49.325H49.3372H49.3493H49.3614H49.3735H49.3856H49.3977H49.4099H49.422H49.4341H49.4462H49.4583H49.4704H49.4825H49.4946H49.5068H49.5189H49.531H49.5431H49.5552H49.5673H49.5794H49.5915H49.6036H49.6157H49.6278H49.64H49.6521H49.6642H49.6763H49.6884H49.7005H49.7126H49.7247H49.7368H49.7489H49.761H49.7731H49.7852H49.7973H49.8094H49.8215H49.8336H49.8457H49.8578H49.8699H49.882H49.8941H49.9062H49.9183H49.9304H49.9425H49.9546H49.9667H49.9788H49.9909H50.003H50.0151H50.0272H50.0393H50.0514H50.0635H50.0756H50.0877H50.0998H50.1119H50.124H50.1361H50.1482H50.1603H50.1724H50.1845H50.1966H50.2086H50.2207H50.2328H50.2449H50.257H50.2691H50.2812H50.2933H50.3054H50.3175H50.3296H50.3417H50.3537H50.3658H50.3779H50.39H50.4021H50.4142H50.4263H50.4384H50.4505H50.4625H50.4746H50.4867H50.4988H50.5109H50.523H50.5351H50.5471H50.5592H50.5713H50.5834H50.5955H50.6076H50.6197H50.6317H50.6438H50.6559H50.668H50.6801H50.6922H50.7042H50.7163H50.7284H50.7405H50.7526H50.7647H50.7767H50.7888H50.8009H50.813H50.8251H50.8372H50.8492H50.8613H50.8734H50.8855H50.8976H50.9096H50.9217H50.9338H50.9459H50.958H50.97H50.9821H50.9942H51.0063H51.0184H51.0304H51.0425H51.0546H51.0667H51.0787H51.0908H51.1029H51.115H51.1271H51.1391H51.1512H51.1633H51.1754H51.1874H51.1995H51.2116H51.2237H51.2357H51.2478H51.2599H51.272H51.2841H51.2961H51.3082H51.3203H51.3324H51.3444H51.3565H51.3686H51.3807H51.3927H51.4048H51.4169H51.429H51.441H51.4531H51.4652H51.4773H51.4893H51.5014H51.5135H51.5255H51.5376H51.5497H51.5618H51.5738H51.5859H51.598H51.6101H51.6221H51.6342H51.6463H51.6584H51.6704H51.6825H51.6946H51.7066H51.7187H51.7308H51.7429H51.7549H51.767H51.7791H51.7912H51.8032H51.8153H51.8274H51.8394H51.8515H51.8636H51.8757H51.8877H51.8998H51.9119H51.924H51.936H51.9481H51.9602H51.9722H51.9843H51.9964H52.0085H52.0205H52.0326H52.0447H52.0567H52.0688H52.0809H52.093H52.105H52.1171H52.1292H52.1412H52.1533H52.1654H52.1775H52.1895H52.2016H52.2137H52.2258H52.2378H52.2499H52.262H52.274H52.2861H52.2982H52.3103H52.3223H52.3344H52.3465H52.3585H52.3706H52.3827H52.3948H52.4068H52.4189H52.431H52.4431H52.4551H52.4672H52.4793H52.4913H52.5034H52.5155H52.5276H52.5396H52.5517H52.5638H52.5759H52.5879H52.6H52.6121H52.6241H52.6362H52.6483H52.6604H52.6724H52.6845H52.6966H52.7087H52.7207H52.7328H52.7449H52.757H52.769H52.7811H52.7932H52.8053H52.8173H52.8294H52.8415H52.8536H52.8656H52.8777H52.8898H52.9019H52.9139H52.926H52.9381H52.9502H52.9622H52.9743H52.9864H52.9985H53.0105H53.0226H53.0347H53.0468H53.0589H53.0709H53.083H53.0951H53.1072H53.1192H53.1313H53.1434H53.1555H53.1676H53.1796H53.1917H53.2038H53.2159H53.2279H53.24H53.2521H53.2642H53.2763H53.2883H53.3004H53.3125H53.3246H53.3367H53.3488H53.3608H53.3729H53.385H53.3971H53.4092H53.4212H53.4333H53.4454H53.4575H53.4696H53.4817H53.4937H53.5058H53.5179H53.53H53.5421H53.5542H53.5662H53.5783H53.5904H53.6025H53.6146H53.6267H53.6387H53.6508H53.6629H53.675H53.6871H53.6992H53.7113H53.7234H53.7354H53.7475H53.7596H53.7717H53.7838H53.7959H53.808H53.8201H53.8321H53.8442H53.8563H53.8684H53.8805H53.8926H53.9047H53.9168H53.9289H53.941H53.9531H53.9651H53.9772H53.9893H54.0014H54.0135H54.0256H54.0377H54.0498H54.0619H54.074H54.0861H54.0982H54.1103H54.1224H54.1345H54.1466H54.1586H54.1707H54.1828H54.1949H54.207H54.2191H54.2312H54.2433H54.2554H54.2675H54.2796H54.2917H54.3038H54.3159H54.328H54.3401H54.3522H54.3643H54.3764H54.3885H54.4006H54.4127H54.4248H54.4369H54.4491H54.4612H54.4733H54.4854H54.4975H54.5096H54.5217H54.5338H54.5459H54.558H54.5701H54.5822H54.5943H54.6064H54.6185H54.6306H54.6428H54.6549H54.667H54.6791H54.6912H54.7033H54.7154H54.7275H54.7396H54.7518H54.7639H54.776H54.7881H54.8002H54.8123H54.8244H54.8366H54.8487H54.8608H54.8729H54.885H54.8971H54.9093H54.9214H54.9335H54.9456H54.9577H54.9698H54.982H54.9941H55.0062H55.0183H55.0304H55.0426H55.0547H55.0668H55.0789H55.0911H55.1032H55.1153H55.1274H55.1396H55.1517H55.1638H55.1759H55.1881H55.2002C56.0532 14.021 56.8434 13.7536 57.4358 13.2238C58.0343 12.6886 58.3698 11.9376 58.3838 11.1067Z" stroke="black" stroke-width="2" stroke-dasharray="0,0,0,137.84202575683594"><animate attributeType="XML" attributeName="stroke-dasharray" repeatCount="indefinite" dur="2.9411764705882355s" values="0,0,0,137.84202575683594; 
          0,68.92101287841797,68.92101287841797,0; 
          137.84202575683594,0,0,0" keyTimes="0; 0.5; 1" fill="freeze"></animate></path>
<path d="M13.3419 7.21397L13.3419 7.21399H13.3491C15.4271 7.21399 17.1342 8.91777 17.1342 11.0515C17.1342 13.203 15.4101 14.9252 13.3147 14.9272C11.2286 14.9101 9.52594 13.199 9.52594 11.0897C9.52594 8.93025 11.2569 7.19897 13.3419 7.21397ZM13.3481 8.10134L13.3391 8.10118H13.3301C11.7079 8.10118 10.3932 9.43497 10.3932 11.0515C10.3932 12.6488 11.689 14.0209 13.3111 14.0209C14.9079 14.0209 16.2479 12.6934 16.2479 11.0706C16.2479 9.43782 14.959 8.13031 13.3481 8.10134Z" stroke="black" stroke-width="2" stroke-dasharray="0,0,0,42.54361343383789"><animate attributeType="XML" attributeName="stroke-dasharray" repeatCount="indefinite" dur="2.9411764705882355s" values="0,0,0,42.54361343383789; 
          0,21.271806716918945,21.271806716918945,0; 
          42.54361343383789,0,0,0" keyTimes="0; 0.5; 1" fill="freeze"></animate></path>
<path d="M25.813 14.9085V14.9085H25.8057C23.7044 14.9085 21.9565 13.1287 22.0013 11.0351L22.0014 11.0351L22.0015 11.028C22.0317 8.91098 23.775 7.19732 25.8401 7.19531C27.9173 7.21237 29.644 8.95129 29.6289 11.1022C29.6137 13.2009 27.8877 14.9236 25.813 14.9085ZM25.7867 8.10162H25.7779L25.7691 8.10178C24.1292 8.13075 22.8593 9.47111 22.888 11.0888C22.9164 12.6904 24.2439 14.0317 25.862 14.002C27.4558 13.9728 28.7904 12.602 28.7614 10.9956C28.7323 9.38434 27.3807 8.10162 25.7867 8.10162Z" stroke="black" stroke-width="2" stroke-dasharray="0,0,0,42.54352569580078"><animate attributeType="XML" attributeName="stroke-dasharray" repeatCount="indefinite" dur="2.9411764705882355s" values="0,0,0,42.54352569580078; 
          0,21.27176284790039,21.27176284790039,0; 
          42.54352569580078,0,0,0" keyTimes="0; 0.5; 1" fill="freeze"></animate></path>
<path d="M54.5984 58.4765H54.5984C58.3816 58.454 61.479 55.3062 61.479 51.53C61.479 47.7156 58.3999 44.6043 54.5954 44.6027C50.7735 44.5819 47.6886 47.6707 47.687 51.4889C47.6665 55.3413 50.7846 58.4989 54.5984 58.4765ZM46.8007 51.5452C46.7839 47.217 50.2544 43.7133 54.5395 43.6964C58.8224 43.6794 62.3295 47.1845 62.3463 51.4957C62.3631 55.7849 58.8368 59.3457 54.5904 59.3637C50.325 59.3625 46.8176 55.8564 46.8007 51.5452Z" stroke="black" stroke-width="2" stroke-dasharray="0,0,0,92.45588684082031"><animate attributeType="XML" attributeName="stroke-dasharray" repeatCount="indefinite" dur="2.9411764705882355s" values="0,0,0,92.45588684082031; 
          0,46.227943420410156,46.227943420410156,0; 
          92.45588684082031,0,0,0" keyTimes="0; 0.5; 1" fill="freeze"></animate></path>
<setting>{"type":"direct","speed":17,"random":1,"shift":1,"size":1,"rupture":50}</setting></svg>