<?xml version="1.0" standalone="no"?>
<svg id="union-1" width="82" height="64" viewBox="0 0 82 64" fill="none" xmlns="http://www.w3.org/2000/svg" style="max-width: 100%; max-height: 100%;">
<path d="M25.2355 35.3333C32.3083 35.3333 39.0914 38.1428 44.0926 43.1438C44.9942 44.0454 45.8245 45.0048 46.58 46.0134C52.2563 53.5911 44.228 62 34.7598 62L15.7112 62C6.24304 62 -1.78528 53.5911 3.89093 46.0134C4.64646 45.0048 5.47682 44.0454 6.37841 43.1438C11.3796 38.1428 18.1627 35.3333 25.2355 35.3333ZM25.2355 35.3333C34.4407 35.3333 41.9029 27.8714 41.9029 18.6667C41.9029 9.46192 34.4406 2 25.2354 2C16.0302 2 8.56794 9.46192 8.56794 18.6667C8.56794 27.8714 16.0303 35.3333 25.2355 35.3333ZM80 23.4286L67.1422 36.2857L60.7134 29.8572" stroke="#1A1A1A" stroke-width="3" stroke-linecap="round" stroke-linejoin="round" stroke-dasharray="0,0,0,250.27745056152344"><animate attributeType="XML" attributeName="stroke-dasharray" repeatCount="indefinite" dur="2.5s" values="0,0,0,250.27745056152344; 
          0,125.13872528076172,125.13872528076172,0; 
          250.27745056152344,0,0,0" keyTimes="0; 0.5; 1" fill="freeze"></animate></path>
<setting>{"type":"direct","speed":20,"random":1,"shift":1,"size":1,"rupture":50}</setting></svg>