<svg width="397" height="353" viewBox="0 0 397 353" fill="none" xmlns="http://www.w3.org/2000/svg">
<g clip-path="url(#clip0_87_3065)">
<path d="M392.983 165.655C388.539 143.796 380.676 122.363 371.274 102.723C355.121 68.8236 328.711 40.7305 294.951 23.9942C212.047 -16.9928 152.219 0.0851371 119.741 33.387C87.2631 66.6889 96.6646 123.9 61.6226 148.663C26.5806 173.426 1.79482 184.526 0.085454 229.783C-1.62391 275.039 20.5978 309.195 56.4945 320.296C92.3912 331.396 146.236 367.26 253.926 346.766C361.616 326.273 388.111 269.062 394.949 228.075C398.367 207.496 397.171 186.32 392.983 165.655Z" fill="#1A1A1A"/>
<path opacity="0.7" d="M392.983 165.655C388.539 143.796 380.676 122.363 371.274 102.723C355.121 68.8237 328.711 40.7305 294.951 23.9942C212.047 -16.9928 152.219 0.0851364 119.741 33.387C87.2631 66.6889 96.6646 123.9 61.6226 148.663C26.5806 173.426 1.79482 184.526 0.085454 229.783C-1.62391 275.039 20.5978 309.195 56.4945 320.296C92.3912 331.396 146.236 367.26 253.926 346.766C361.616 326.273 388.111 269.062 394.949 228.075C398.367 207.496 397.171 186.32 392.983 165.655Z" fill="white"/>
<path d="M118.972 85.2191V34.7539" stroke="#263238" stroke-miterlimit="10" stroke-linecap="round" stroke-linejoin="round"/>
<path d="M118.972 337.715V90.1709" stroke="#263238" stroke-miterlimit="10" stroke-linecap="round" stroke-linejoin="round"/>
<path d="M140.595 40.6455H132.817V74.9721H140.595V40.6455Z" fill="#C9C9C9" stroke="#263238" stroke-miterlimit="10" stroke-linecap="round" stroke-linejoin="round"/>
<path d="M140.595 45.8545H132.817V49.1847H140.595V45.8545Z" fill="white" stroke="#263238" stroke-miterlimit="10" stroke-linecap="round" stroke-linejoin="round"/>
<path d="M140.595 67.1162H132.817V70.4464H140.595V67.1162Z" fill="white" stroke="#263238" stroke-miterlimit="10" stroke-linecap="round" stroke-linejoin="round"/>
<path d="M149.569 40.6455H138.715V74.9721H149.569V40.6455Z" fill="#878787" stroke="#263238" stroke-miterlimit="10" stroke-linecap="round" stroke-linejoin="round"/>
<path d="M148.8 40.6455H141.022V74.9721H148.8V40.6455Z" fill="#C9C9C9" stroke="#263238" stroke-miterlimit="10" stroke-linecap="round" stroke-linejoin="round"/>
<path d="M148.8 45.8545H141.022V49.1847H148.8V45.8545Z" fill="white" stroke="#263238" stroke-miterlimit="10" stroke-linecap="round" stroke-linejoin="round"/>
<path d="M148.8 67.1162H141.022V70.4464H148.8V67.1162Z" fill="white" stroke="#263238" stroke-miterlimit="10" stroke-linecap="round" stroke-linejoin="round"/>
<path d="M157.86 40.6455H147.005V74.9721H157.86V40.6455Z" fill="#878787" stroke="#263238" stroke-miterlimit="10" stroke-linecap="round" stroke-linejoin="round"/>
<path d="M157.09 40.6455H149.313V74.9721H157.09V40.6455Z" fill="#C9C9C9" stroke="#263238" stroke-miterlimit="10" stroke-linecap="round" stroke-linejoin="round"/>
<path d="M157.09 45.8545H149.313V49.1847H157.09V45.8545Z" fill="white" stroke="#263238" stroke-miterlimit="10" stroke-linecap="round" stroke-linejoin="round"/>
<path d="M157.09 67.1162H149.313V70.4464H157.09V67.1162Z" fill="white" stroke="#263238" stroke-miterlimit="10" stroke-linecap="round" stroke-linejoin="round"/>
<path d="M166.064 40.6455H155.21V74.9721H166.064V40.6455Z" fill="#C9C9C9" stroke="#263238" stroke-miterlimit="10" stroke-linecap="round" stroke-linejoin="round"/>
<path d="M173.158 75.3129H191.363L196.149 70.958H173.158V75.3129Z" fill="white" stroke="#263238" stroke-miterlimit="10" stroke-linecap="round" stroke-linejoin="round"/>
<path d="M194.098 75.569L193.5 74.5444L172.731 74.459L173.329 75.569H194.098Z" fill="white" stroke="#263238" stroke-miterlimit="10" stroke-linecap="round" stroke-linejoin="round"/>
<path d="M162.657 41.3269L155.924 45.2168L173.124 74.9333L179.857 71.0434L162.657 41.3269Z" fill="#C9C9C9" stroke="#263238" stroke-miterlimit="10" stroke-linecap="round" stroke-linejoin="round"/>
<path d="M165.217 45.8425L158.484 49.7324L160.153 52.6154L166.886 48.7255L165.217 45.8425Z" fill="white" stroke="#263238" stroke-miterlimit="10" stroke-linecap="round" stroke-linejoin="round"/>
<path d="M175.913 64.2703L169.18 68.1602L170.849 71.0431L177.582 67.1532L175.913 64.2703Z" fill="white" stroke="#263238" stroke-miterlimit="10" stroke-linecap="round" stroke-linejoin="round"/>
<path d="M196.064 71.2146H179.569L162.39 41.499L178.885 41.5844L196.064 71.2146Z" fill="#C9C9C9" stroke="#263238" stroke-miterlimit="10" stroke-linecap="round" stroke-linejoin="round"/>
<path d="M205.038 57.9795C205.038 57.9795 202.047 56.9548 201.192 52.173C200.337 47.3912 198.799 40.9016 200.508 39.3646C202.218 37.8276 205.466 36.9737 205.807 40.0477C206.149 43.1217 205.636 48.7575 206.235 50.1237C206.918 51.4045 208.97 50.5506 208.97 47.9889C208.97 43.8049 207.26 39.45 207.859 35.1805C208.713 29.2887 214.696 28.6055 215.294 35.1805C215.636 38.7669 215.722 42.524 215.722 46.1104C215.722 47.6474 218.286 48.5013 218.115 44.8295C217.944 42.2679 219.824 39.2792 222.388 40.1331C224.952 40.987 222.816 52.2584 221.961 54.2224C221.106 56.1863 215.807 56.6133 215.807 56.6133V61.5659L209.397 61.7367L209.226 56.7841C209.312 56.6987 207.175 57.9795 205.038 57.9795Z" fill="#1A1A1A" stroke="#263238" stroke-miterlimit="10" stroke-linecap="round" stroke-linejoin="round"/>
<path d="M210.765 48.5869C210.85 49.6116 210.936 50.2947 210.936 50.2947" stroke="#263238" stroke-miterlimit="10" stroke-linecap="round" stroke-linejoin="round"/>
<path d="M211.192 32.0215C211.192 32.0215 209.824 32.9608 209.91 35.9494C209.995 37.7426 210.337 42.6098 210.594 46.1961" stroke="#263238" stroke-miterlimit="10" stroke-linecap="round" stroke-linejoin="round"/>
<path d="M213.585 42.0967L213.841 49.2694" stroke="#263238" stroke-miterlimit="10" stroke-linecap="round" stroke-linejoin="round"/>
<path d="M216.747 53.8809C215.893 53.9662 215.209 53.9663 215.209 53.9663" stroke="#263238" stroke-miterlimit="10" stroke-linecap="round" stroke-linejoin="round"/>
<path d="M221.192 41.9268C221.192 41.9268 220.423 43.2076 220.423 45.0008C220.423 46.794 220.508 51.4904 219.482 52.7712C219.226 53.0274 218.884 53.2836 218.542 53.4543" stroke="#263238" stroke-miterlimit="10" stroke-linecap="round" stroke-linejoin="round"/>
<path d="M202.645 51.4902C203.072 53.0272 203.671 54.3081 204.44 54.9058C206.406 56.4428 208.2 54.9912 208.2 54.9912" stroke="#263238" stroke-miterlimit="10" stroke-linecap="round" stroke-linejoin="round"/>
<path d="M202.474 39.9619C202.474 39.9619 200.338 39.9619 201.107 43.7191C201.449 45.3415 201.705 47.3054 202.132 49.0986" stroke="#263238" stroke-miterlimit="10" stroke-linecap="round" stroke-linejoin="round"/>
<path d="M210.594 54.3076L211.021 59.004" stroke="#263238" stroke-miterlimit="10" stroke-linecap="round" stroke-linejoin="round"/>
<path d="M221.704 59.4307L220.85 65.8349L220.337 70.1897L219.739 75.2277H204.354L203.756 70.1897L203.243 65.8349L202.474 59.4307H221.704Z" fill="white" stroke="#263238" stroke-miterlimit="10" stroke-linecap="round" stroke-linejoin="round"/>
<path d="M220.85 65.835L220.337 70.1898H203.756L203.243 65.835H220.85Z" fill="#1A1A1A" stroke="#263238" stroke-miterlimit="10" stroke-linecap="round" stroke-linejoin="round"/>
<path d="M230.166 75.2285H131.45V81.7181H230.166V75.2285Z" fill="white" stroke="#263238" stroke-miterlimit="10" stroke-linecap="round" stroke-linejoin="round"/>
<path d="M230.08 75.2285H207.346V81.7181H230.08V75.2285Z" fill="white" stroke="#263238" stroke-miterlimit="10" stroke-linecap="round" stroke-linejoin="round"/>
<path d="M205.124 81.8037C215.722 85.7316 213.756 93.0751 213.756 93.0751H223.756V81.8037H205.124Z" fill="#919191" stroke="#263238" stroke-miterlimit="10" stroke-linecap="round" stroke-linejoin="round"/>
<path d="M208.542 81.8037C219.14 85.7316 217.175 93.0751 217.175 93.0751H227.174V81.8037H208.542Z" fill="white" stroke="#263238" stroke-miterlimit="10" stroke-linecap="round" stroke-linejoin="round"/>
<path d="M137.433 81.8037C148.031 85.7316 146.065 93.0751 146.065 93.0751H156.065V81.8037H137.433Z" fill="#919191" stroke="#263238" stroke-miterlimit="10" stroke-linecap="round" stroke-linejoin="round"/>
<path d="M140.766 81.8037C151.364 85.7316 149.398 93.0751 149.398 93.0751H159.398V81.8037H140.766Z" fill="white" stroke="#263238" stroke-miterlimit="10" stroke-linecap="round" stroke-linejoin="round"/>
<path d="M367.684 41.9258H279.139V164.716H367.684V41.9258Z" fill="#919191" stroke="#263238" stroke-miterlimit="10" stroke-linecap="round" stroke-linejoin="round"/>
<path d="M363.838 47.2197H282.985V159.336H363.838V47.2197Z" fill="#1A1A1A"/>
<path opacity="0.5" d="M363.838 47.2197H282.985V159.336H363.838V47.2197Z" fill="white"/>
<path d="M300.763 150.797C298.284 154.554 295.464 157.287 292.643 159.336H363.753V47.2197H350.676C350.078 47.3905 349.565 47.5613 348.967 47.7321C336.146 51.7454 322.899 63.4437 315.378 84.7057" stroke="#263238" stroke-miterlimit="10" stroke-linecap="round" stroke-linejoin="round"/>
<path d="M314.181 88.4629C311.446 97.258 309.737 107.676 309.309 119.63C308.882 132.268 306.147 141.404 302.557 147.979" stroke="#263238" stroke-miterlimit="10" stroke-linecap="round" stroke-linejoin="round"/>
<path d="M355.89 75.6543C344.181 82.4855 330.42 93.9276 325.378 111.518C322.643 120.911 325.207 129.364 330.335 136.622" stroke="#263238" stroke-miterlimit="10" stroke-linecap="round" stroke-linejoin="round"/>
<path d="M332.984 140.209C340.078 148.492 350.078 154.981 358.197 159.336H363.753V71.5557C362.129 72.3242 360.505 73.1781 358.71 74.1173" stroke="#263238" stroke-miterlimit="10" stroke-linecap="round" stroke-linejoin="round"/>
<path d="M296.404 76.4229C302.558 63.7853 303.241 53.7947 302.558 47.2197H282.985V98.5388C285.891 94.4401 289.395 88.9752 293.669 81.5463C293.925 81.1193 294.182 80.6924 294.438 80.1801" stroke="#263238" stroke-miterlimit="10" stroke-linecap="round" stroke-linejoin="round"/>
<path d="M304.096 125.01C303.156 131.243 300.25 135.684 296.916 135.684C292.729 135.684 289.395 128.853 289.395 120.399C289.395 111.945 292.729 105.114 296.916 105.114C301.104 105.114 304.438 111.945 304.438 120.399" stroke="#263238" stroke-miterlimit="10" stroke-linecap="round" stroke-linejoin="round"/>
<path d="M307.6 89.0608C307.6 92.3056 306.147 94.9527 304.352 94.9527C302.557 94.9527 301.104 92.3056 301.104 89.0608C301.104 85.816 302.557 83.1689 304.352 83.1689C306.233 83.1689 307.6 85.816 307.6 89.0608Z" stroke="#263238" stroke-miterlimit="10" stroke-linecap="round" stroke-linejoin="round"/>
<path d="M348.625 113.995C351.702 115.446 353.753 118.008 353.753 120.997C353.753 125.608 348.71 129.279 342.471 129.279C336.232 129.279 331.189 125.522 331.189 120.997C331.189 116.386 336.232 112.714 342.471 112.714C343.497 112.714 344.522 112.799 345.462 112.97" stroke="#263238" stroke-miterlimit="10" stroke-linecap="round" stroke-linejoin="round"/>
<path d="M347.257 120.996C347.257 122.96 345.121 124.497 342.557 124.497C339.993 124.497 337.856 122.96 337.856 120.996C337.856 119.032 339.993 117.495 342.557 117.495C345.121 117.495 347.257 119.032 347.257 120.996Z" stroke="#263238" stroke-miterlimit="10" stroke-linecap="round" stroke-linejoin="round"/>
<path d="M354.864 99.8194C354.864 102.466 352.214 104.687 348.967 104.687C345.719 104.687 343.069 102.552 343.069 99.8194C343.069 97.1723 345.719 94.9521 348.967 94.9521C352.214 94.9521 354.864 97.0869 354.864 99.8194Z" stroke="#263238" stroke-miterlimit="10" stroke-linecap="round" stroke-linejoin="round"/>
<path d="M312.215 72.9217C314.434 72.9217 316.232 68.487 316.232 63.0165C316.232 57.546 314.434 53.1113 312.215 53.1113C309.997 53.1113 308.198 57.546 308.198 63.0165C308.198 68.487 309.997 72.9217 312.215 72.9217Z" stroke="#263238" stroke-miterlimit="10" stroke-linecap="round" stroke-linejoin="round"/>
<path d="M323.241 148.321C323.241 151.395 320.677 153.957 317.6 153.957C314.523 153.957 311.959 151.395 311.959 148.321C311.959 145.247 314.523 142.686 317.6 142.686C320.677 142.686 323.241 145.247 323.241 148.321Z" stroke="#263238" stroke-miterlimit="10" stroke-linecap="round" stroke-linejoin="round"/>
<path d="M349.48 64.6396C349.48 66.6036 347.941 68.1406 345.975 68.1406C344.01 68.1406 342.471 66.6036 342.471 64.6396C342.471 62.6757 344.01 61.1387 345.975 61.1387C347.941 61.2241 349.48 62.7611 349.48 64.6396Z" stroke="#263238" stroke-miterlimit="10" stroke-linecap="round" stroke-linejoin="round"/>
<path d="M327.514 89.317C327.514 90.3417 326.66 91.1956 325.634 91.1956C324.608 91.1956 323.754 90.3417 323.754 89.317C323.754 88.2924 324.608 87.4385 325.634 87.4385C326.66 87.4385 327.514 88.2924 327.514 89.317Z" stroke="#263238" stroke-miterlimit="10" stroke-linecap="round" stroke-linejoin="round"/>
<path d="M363.838 47.2197H282.985V159.336H363.838V47.2197Z" stroke="#263238" stroke-miterlimit="10" stroke-linecap="round" stroke-linejoin="round"/>
<path d="M231.704 207.069H209.739V215.352H231.704V207.069Z" fill="#263238" stroke="#263238" stroke-miterlimit="10" stroke-linecap="round" stroke-linejoin="round"/>
<path d="M261.191 208.351H173.757L177.945 140.637H265.293L261.191 208.351Z" fill="#919191" stroke="#263238" stroke-miterlimit="10" stroke-linecap="round" stroke-linejoin="round"/>
<path d="M258.627 208.351H171.278L175.381 140.637H262.815L258.627 208.351Z" fill="#263238" stroke="#263238" stroke-miterlimit="10" stroke-linecap="round" stroke-linejoin="round"/>
<path d="M254.012 204.593H176.321L179.996 144.394H257.687L254.012 204.593Z" fill="white" stroke="#263238" stroke-miterlimit="10" stroke-linecap="round" stroke-linejoin="round"/>
<path d="M231.448 195.627H178.629L181.535 149.261H234.268L231.448 195.627Z" fill="#919191" stroke="#263238" stroke-miterlimit="10" stroke-linecap="round" stroke-linejoin="round"/>
<path d="M199.483 175.646C199.483 175.646 188.458 180.001 188.458 181.196C188.372 182.392 186.235 195.627 186.235 195.627H218.884L216.149 180.428L204.098 175.39L199.483 175.646Z" fill="white" stroke="#263238" stroke-miterlimit="10" stroke-linecap="round" stroke-linejoin="round"/>
<path d="M199.825 172.999C199.825 172.999 198.457 173.34 197.603 174.194C196.748 175.048 195.722 177.866 195.722 177.866V181.196L200.081 178.891L204.44 178.549L208.543 182.392L209.055 176.5C209.055 176.5 208.457 173.17 207.09 172.999C205.722 172.828 199.825 172.999 199.825 172.999Z" fill="white" stroke="#263238" stroke-miterlimit="10" stroke-linecap="round" stroke-linejoin="round"/>
<path d="M199.654 169.84L199.483 175.646L202.047 179.83L206.406 175.476L207.004 170.181L199.654 169.84Z" fill="white" stroke="#263238" stroke-miterlimit="10" stroke-linecap="round" stroke-linejoin="round"/>
<path d="M210.252 163.008C209.91 167.961 206.662 173.853 203.073 173.853C199.483 173.853 196.919 167.876 197.261 163.008C197.603 158.056 200.68 154.128 204.269 154.128C207.859 154.128 210.508 158.056 210.252 163.008Z" fill="white" stroke="#263238" stroke-miterlimit="10" stroke-linecap="round" stroke-linejoin="round"/>
<path d="M197.175 163.606C197.175 163.606 195.979 160.618 195.551 162.923C195.038 165.229 197.432 167.79 197.432 167.79L197.175 163.606Z" fill="white" stroke="#263238" stroke-miterlimit="10" stroke-linecap="round" stroke-linejoin="round"/>
<path d="M210.252 163.008C210.252 163.008 213.072 161.813 212.218 164.289C211.363 166.765 209.312 167.448 209.312 167.448L210.252 163.008Z" fill="white" stroke="#263238" stroke-miterlimit="10" stroke-linecap="round" stroke-linejoin="round"/>
<path d="M202.731 163.606C202.816 162.325 201.79 161.301 200.508 161.301C199.226 161.301 198.115 162.325 198.03 163.606C197.944 164.887 198.97 165.912 200.252 165.912C201.534 165.997 202.645 164.887 202.731 163.606Z" fill="white" stroke="#263238" stroke-miterlimit="10" stroke-linecap="round" stroke-linejoin="round"/>
<path d="M208.457 163.606L211.021 162.923" stroke="#263238" stroke-miterlimit="10" stroke-linecap="round" stroke-linejoin="round"/>
<path d="M208.457 163.606C208.543 162.325 207.517 161.301 206.235 161.301C204.953 161.301 203.842 162.325 203.756 163.606C203.671 164.887 204.697 165.912 205.979 165.912C207.261 165.997 208.372 164.887 208.457 163.606Z" fill="white" stroke="#263238" stroke-miterlimit="10" stroke-linecap="round" stroke-linejoin="round"/>
<path d="M203.756 153.104C203.756 153.104 201.192 151.737 199.226 152.591C197.346 153.445 195.893 157.971 195.979 159.081C196.064 160.276 197.175 163.607 197.175 163.607L199.226 157.715L204.526 155.409L203.756 153.104Z" fill="#263238" stroke="#263238" stroke-miterlimit="10" stroke-linecap="round" stroke-linejoin="round"/>
<path d="M201.107 154.299C201.107 154.299 205.295 150.969 208.713 152.591C212.132 154.299 211.79 157.287 211.705 158.141C211.619 158.995 211.619 162.838 211.619 162.838L209.568 163.179L208.628 160.02C208.628 160.02 207.004 159.422 205.295 158.398C205.295 158.398 200.765 157.8 201.107 154.299Z" fill="#263238" stroke="#263238" stroke-miterlimit="10" stroke-linecap="round" stroke-linejoin="round"/>
<path d="M202.731 163.606L202.474 168.474H203.585" fill="white"/>
<path d="M202.731 163.606L202.474 168.474H203.585" stroke="#263238" stroke-miterlimit="10" stroke-linecap="round" stroke-linejoin="round"/>
<path d="M201.791 170.353H204.355" stroke="#263238" stroke-miterlimit="10" stroke-linecap="round" stroke-linejoin="round"/>
<path d="M202.047 179.83L201.107 195.115" stroke="#263238" stroke-miterlimit="10" stroke-linecap="round" stroke-linejoin="round"/>
<path d="M216.149 180.343C216.149 180.343 212.645 188.199 212.56 189.906C212.474 191.614 212.047 195.286 212.047 195.286" stroke="#263238" stroke-miterlimit="10" stroke-linecap="round" stroke-linejoin="round"/>
<path d="M188.458 181.196C188.458 181.196 191.962 187.259 192.389 188.027C192.816 188.881 192.304 195.2 192.304 195.2" stroke="#263238" stroke-miterlimit="10" stroke-linecap="round" stroke-linejoin="round"/>
<path d="M218.457 186.064L219.568 180.855L221.534 178.891L223.414 175.817H224.269L223.243 179.062L225.807 177.525L227.516 174.878L228.457 175.39L226.063 181.538L222.303 183.417L221.619 185.893L218.457 186.064Z" fill="white" stroke="#263238" stroke-miterlimit="10" stroke-linecap="round" stroke-linejoin="round"/>
<path d="M221.705 195.627L222.046 185.209L218.2 184.526L215.209 195.627H221.705Z" fill="white" stroke="#263238" stroke-miterlimit="10" stroke-linecap="round" stroke-linejoin="round"/>
<path d="M231.192 199.469H178.458L178.629 195.627H231.448L231.192 199.469Z" fill="white" stroke="#263238" stroke-miterlimit="10" stroke-linecap="round" stroke-linejoin="round"/>
<path d="M180.594 197.079H228.97" stroke="#263238" stroke-miterlimit="10" stroke-linecap="round" stroke-linejoin="round"/>
<path d="M254.097 161.642H236.405L237.089 149.432H254.866L254.097 161.642Z" fill="#1A1A1A" stroke="#263238" stroke-miterlimit="10" stroke-linecap="round" stroke-linejoin="round"/>
<path d="M254.097 161.642H236.405L236.491 159.593H254.268L254.097 161.642Z" fill="white" stroke="#263238" stroke-miterlimit="10" stroke-linecap="round" stroke-linejoin="round"/>
<path d="M248.371 154.812L243.755 152.079L243.414 157.544L248.371 154.812Z" fill="white" stroke="#263238" stroke-miterlimit="10" stroke-linecap="round" stroke-linejoin="round"/>
<path d="M252.986 180.513H235.209L235.978 168.303H253.67L252.986 180.513Z" fill="#1A1A1A" stroke="#263238" stroke-miterlimit="10" stroke-linecap="round" stroke-linejoin="round"/>
<path d="M252.986 180.514H235.209L235.294 178.55H253.072L252.986 180.514Z" fill="white" stroke="#263238" stroke-miterlimit="10" stroke-linecap="round" stroke-linejoin="round"/>
<path d="M247.26 173.683L242.644 170.95L242.302 176.501L247.26 173.683Z" fill="white" stroke="#263238" stroke-miterlimit="10" stroke-linecap="round" stroke-linejoin="round"/>
<path d="M251.79 199.469H234.012L234.781 187.259H252.559L251.79 199.469Z" fill="#1A1A1A" stroke="#263238" stroke-miterlimit="10" stroke-linecap="round" stroke-linejoin="round"/>
<path d="M251.79 199.469H234.012L234.183 197.42H251.961L251.79 199.469Z" fill="white" stroke="#263238" stroke-miterlimit="10" stroke-linecap="round" stroke-linejoin="round"/>
<path d="M246.063 192.639L241.448 189.906L241.106 195.371L246.063 192.639Z" fill="white" stroke="#263238" stroke-miterlimit="10" stroke-linecap="round" stroke-linejoin="round"/>
<path d="M236.405 163.606H253.67" stroke="#263238" stroke-miterlimit="10" stroke-linecap="round" stroke-linejoin="round"/>
<path d="M236.32 165.656H253.499" stroke="#263238" stroke-miterlimit="10" stroke-linecap="round" stroke-linejoin="round"/>
<path d="M235.209 182.733H252.473" stroke="#263238" stroke-miterlimit="10" stroke-linecap="round" stroke-linejoin="round"/>
<path d="M235.123 184.697H252.388" stroke="#263238" stroke-miterlimit="10" stroke-linecap="round" stroke-linejoin="round"/>
<path d="M227.602 215.353H214.611C214.611 212.62 216.833 210.485 219.482 210.485H222.645C225.38 210.485 227.602 212.62 227.602 215.353Z" fill="white" stroke="#263238" stroke-miterlimit="10" stroke-linecap="round" stroke-linejoin="round"/>
<path d="M208.457 212.705H145.04V215.352H208.457V212.705Z" fill="#919191" stroke="#263238" stroke-miterlimit="10" stroke-linecap="round" stroke-linejoin="round"/>
<path d="M208.371 212.705H192.474V215.352H208.371V212.705Z" fill="white" stroke="#263238" stroke-miterlimit="10" stroke-linecap="round" stroke-linejoin="round"/>
<path d="M234.354 233.028L242.046 336.605C242.132 337.374 242.73 337.971 243.499 337.971C244.354 337.971 245.038 337.288 244.952 336.434L243.841 232.942H234.354V233.028Z" fill="#919191" stroke="#263238" stroke-miterlimit="10" stroke-linecap="round" stroke-linejoin="round"/>
<path d="M240.166 233.027L244.268 337.8C244.781 337.544 245.037 337.032 245.037 336.519L243.926 233.027H240.166Z" fill="white" stroke="#263238" stroke-miterlimit="10" stroke-linecap="round" stroke-linejoin="round"/>
<path d="M282.644 233.028L290.336 336.605C290.421 337.374 291.019 337.971 291.789 337.971C292.643 337.971 293.327 337.288 293.242 336.434L292.131 232.942H282.644V233.028Z" fill="#919191" stroke="#263238" stroke-miterlimit="10" stroke-linecap="round" stroke-linejoin="round"/>
<path d="M288.028 233.027L292.729 337.715C293.071 337.459 293.327 337.032 293.327 336.519L292.216 233.027H288.028Z" fill="white" stroke="#263238" stroke-miterlimit="10" stroke-linecap="round" stroke-linejoin="round"/>
<path d="M155.211 234.137L147.518 336.605C147.433 337.373 146.835 337.971 146.065 337.971C145.211 337.971 144.527 337.288 144.612 336.434L145.724 233.796L155.211 234.137Z" fill="#263238" stroke="#263238" stroke-miterlimit="10" stroke-linecap="round" stroke-linejoin="round"/>
<path d="M106.921 234.137L99.2288 336.605C99.1434 337.373 98.5451 337.971 97.7759 337.971C96.9212 337.971 96.2374 337.288 96.3229 336.434L97.434 233.796L106.921 234.137Z" fill="#263238" stroke="#263238" stroke-miterlimit="10" stroke-linecap="round" stroke-linejoin="round"/>
<path d="M295.037 217.743H94.5281V233.882H295.037V217.743Z" fill="#919191" stroke="#263238" stroke-miterlimit="10" stroke-linecap="round" stroke-linejoin="round"/>
<path d="M295.036 217.743H237.602V233.882H295.036V217.743Z" fill="white" stroke="#263238" stroke-miterlimit="10" stroke-linecap="round" stroke-linejoin="round"/>
<path d="M295.037 220.305H94.5281V224.745H295.037V220.305Z" fill="#263238" stroke="#263238" stroke-miterlimit="10" stroke-linecap="round" stroke-linejoin="round"/>
<path d="M297.942 215.438H91.6221V220.817H297.942V215.438Z" fill="#919191" stroke="#263238" stroke-miterlimit="10" stroke-linecap="round" stroke-linejoin="round"/>
<path d="M297.942 215.438H241.277V220.817H297.942V215.438Z" fill="white" stroke="#263238" stroke-miterlimit="10" stroke-linecap="round" stroke-linejoin="round"/>
<path d="M237.089 115.361H209.226C206.235 115.361 203.756 117.838 203.756 120.826V131.073C203.756 134.062 206.235 136.538 209.226 136.538H223.841L218.371 151.737L228.799 136.538H237.089C240.08 136.538 242.559 134.062 242.559 131.073V120.826C242.559 117.838 240.08 115.361 237.089 115.361Z" fill="white" stroke="#263238" stroke-miterlimit="10" stroke-linecap="round" stroke-linejoin="round"/>
<path d="M215.722 128.255C216.808 128.255 217.688 127.376 217.688 126.291C217.688 125.206 216.808 124.327 215.722 124.327C214.636 124.327 213.756 125.206 213.756 126.291C213.756 127.376 214.636 128.255 215.722 128.255Z" fill="#263238"/>
<path d="M223.158 128.255C224.243 128.255 225.123 127.376 225.123 126.291C225.123 125.206 224.243 124.327 223.158 124.327C222.072 124.327 221.192 125.206 221.192 126.291C221.192 127.376 222.072 128.255 223.158 128.255Z" fill="#263238"/>
<path d="M232.645 126.291C232.645 125.181 231.79 124.327 230.679 124.327C229.568 124.327 228.713 125.181 228.713 126.291C228.713 127.401 229.568 128.255 230.679 128.255C231.79 128.255 232.645 127.401 232.645 126.291Z" fill="#263238"/>
<path d="M369.308 338.228H392.385" stroke="#263238" stroke-miterlimit="10" stroke-linecap="round" stroke-linejoin="round"/>
<path d="M5.21362 338.228H357.343" stroke="#263238" stroke-miterlimit="10" stroke-linecap="round" stroke-linejoin="round"/>
<path d="M140.766 187.344C138.288 183.075 130.937 166.68 130.937 166.68C130.937 166.68 131.365 163.179 132.049 161.471C132.647 159.763 134.185 154.555 133.843 153.53C133.501 152.42 129.057 150.456 128.63 150.285C128.202 150.114 129.228 147.553 127.519 146.955C125.809 146.357 125.211 147.296 125.211 147.296L124.613 151.566L122.647 154.64C122.647 154.64 121.45 153.701 120.083 152.932C118.715 152.164 115.468 151.822 115.297 153.103C115.126 154.298 117.861 155.408 118.801 156.177C119.741 156.945 120.938 160.617 122.049 161.642C123.16 162.752 124.784 164.972 124.784 164.972L125.382 166.936C125.382 166.936 127.519 187.088 127.69 192.126C127.946 197.164 128.715 210.399 130.168 212.363C131.707 214.327 131.963 215.608 136.151 214.156C140.424 212.619 141.194 210.655 142.134 206.13C143.33 201.604 143.33 191.614 140.766 187.344Z" fill="white" stroke="#263238" stroke-miterlimit="10" stroke-linecap="round" stroke-linejoin="round"/>
<path d="M142.305 206.129C143.33 201.604 143.33 191.613 140.766 187.344C140.51 186.917 140.168 186.234 139.826 185.551C134.185 183.928 128.801 186.575 128.801 186.575L127.433 187.173C127.604 189.222 127.775 191.016 127.775 192.04C128.032 197.078 128.801 210.314 130.254 212.278C131.792 214.241 132.049 215.522 136.237 214.071C140.595 212.619 141.279 210.655 142.305 206.129Z" fill="#1A1A1A" stroke="#263238" stroke-miterlimit="10" stroke-linecap="round" stroke-linejoin="round"/>
<path d="M122.562 119.631C122.562 119.631 123.587 123.217 123.587 126.547C123.587 129.878 122.562 131.927 124.1 132.952C125.638 133.976 126.92 133.976 126.664 136.026C126.408 138.075 125.382 139.1 125.382 139.1C125.382 139.1 124.869 149.603 124.356 150.627C123.844 151.652 117.177 150.371 115.639 150.115C114.1 149.859 109.741 151.908 106.921 146.272C104.1 140.637 106.408 132.098 111.536 127.743C116.579 123.473 122.562 119.631 122.562 119.631Z" fill="white" stroke="#263238" stroke-miterlimit="10" stroke-linecap="round" stroke-linejoin="round"/>
<path d="M123.587 126.547C123.587 126.547 122.22 125.523 121.45 127.316" stroke="#263238" stroke-miterlimit="10" stroke-linecap="round" stroke-linejoin="round"/>
<path d="M122.391 130.816C122.391 130.816 122.049 132.439 122.562 133.89" stroke="#263238" stroke-miterlimit="10" stroke-linecap="round" stroke-linejoin="round"/>
<path d="M124.869 142.857C124.869 142.857 123.245 143.369 122.647 141.576" stroke="#263238" stroke-miterlimit="10" stroke-linecap="round" stroke-linejoin="round"/>
<path d="M127.775 191.187C127.775 191.187 126.92 195.115 126.151 197.164C125.467 199.214 111.792 203.056 105.81 203.825C99.9122 204.593 94.0149 204.593 94.0149 204.593L94.3568 215.438C94.3568 215.438 105.895 215.694 106.664 215.438C107.519 215.267 126.835 206.557 126.835 206.557L135.211 205.447C135.211 205.447 138.715 204.593 138.886 201.861C139.057 199.128 135.894 191.358 134.527 190.163C133.159 188.967 130.168 185.722 128.373 187.772C126.578 189.736 127.775 191.187 127.775 191.187Z" fill="white" stroke="#263238" stroke-miterlimit="10" stroke-linecap="round" stroke-linejoin="round"/>
<path d="M102.134 210.656C102.134 205.96 103.331 205.875 104.698 203.996C99.143 204.679 94.015 204.594 94.015 204.594L93.7585 214.499C93.7585 214.499 100.083 215.097 103.929 215.353C103.587 215.865 102.134 213.645 102.134 210.656Z" fill="#1A1A1A" stroke="#263238" stroke-miterlimit="10" stroke-linecap="round" stroke-linejoin="round"/>
<path d="M139.313 231.662C132.305 223.464 122.476 220.476 122.476 220.476L107.434 226.88C107.434 226.88 105.639 222.269 102.818 218.853C99.9978 215.438 99.9978 215.438 99.9978 215.438L101.793 205.618C101.793 205.618 112.562 198.189 114.015 195.029C114.015 195.029 114.015 194.944 114.1 194.944C116.237 198.274 125.724 212.79 127.433 214.242C129.399 215.865 135.467 216.035 138.031 213.644C140.595 211.253 141.792 209.631 141.194 206.045C141.194 206.045 137.177 197.42 134.954 193.663C132.732 189.906 127.946 176.244 125.553 172.06C123.843 169.071 123.16 166.936 121.963 165.485C121.023 163.862 119.912 162.411 118.972 161.471C116.579 158.91 109.998 158.312 108.545 157.714C107.177 157.117 106.921 156.946 98.9722 154.555C90.9382 152.164 81.964 150.798 75.5539 155.75C75.5539 155.75 66.9216 165.912 63.5884 182.733C60.2551 199.555 59.9987 216.548 59.5714 219.536C59.144 222.525 55.8108 237.126 54.7851 245.495C53.7595 253.863 62.5627 262.316 67.9472 264.878C73.3317 267.44 96.5791 267.867 110.169 264.878C123.758 261.889 145.381 248.312 145.381 248.312C145.381 248.312 146.322 239.859 139.313 231.662Z" fill="#1A1A1A" stroke="#263238" stroke-miterlimit="10" stroke-linecap="round" stroke-linejoin="round"/>
<path d="M103.929 194.688L101.194 194.603" stroke="#263238" stroke-miterlimit="10" stroke-linecap="round" stroke-linejoin="round"/>
<path d="M102.904 190.333C108.288 192.041 114.1 195.029 114.1 195.029L107.092 194.773" stroke="#263238" stroke-miterlimit="10" stroke-linecap="round" stroke-linejoin="round"/>
<path d="M140.082 195.371C140.082 195.371 141.535 197.591 141.535 199.47C141.535 201.348 141.877 203.91 141.022 203.056C140.253 202.288 139.911 199.555 139.911 199.555L140.082 195.371Z" fill="white" stroke="#263238" stroke-miterlimit="10" stroke-linecap="round" stroke-linejoin="round"/>
<path d="M135.296 193.151C135.296 193.151 138.288 191.529 139.57 193.493C140.852 195.457 140.51 199.299 139.57 201.178C138.629 203.142 137.518 201.263 137.604 199.555C137.775 197.933 135.296 193.151 135.296 193.151Z" fill="white" stroke="#263238" stroke-miterlimit="10" stroke-linecap="round" stroke-linejoin="round"/>
<path d="M134.185 191.101C134.185 191.101 137.176 189.479 138.458 191.443C139.74 193.407 139.399 197.249 138.458 199.128C137.518 201.092 136.407 199.213 136.493 197.505C136.664 195.883 134.185 191.101 134.185 191.101Z" fill="white" stroke="#263238" stroke-miterlimit="10" stroke-linecap="round" stroke-linejoin="round"/>
<path d="M132.818 188.882C132.818 188.882 135.809 187.259 137.091 189.223C138.373 191.187 138.031 195.03 137.091 196.908C136.151 198.872 135.04 196.994 135.125 195.286C135.296 193.663 132.818 188.882 132.818 188.882Z" fill="white" stroke="#263238" stroke-miterlimit="10" stroke-linecap="round" stroke-linejoin="round"/>
<path d="M125.382 111.604C125.467 114.849 124.442 118.264 123.074 120.313C118.715 126.974 114.613 126.205 112.818 131.585C111.023 136.964 108.459 142.6 111.28 145.76C114.1 148.834 116.408 147.04 116.408 147.04C116.408 147.04 118.202 151.651 113.587 156.262C108.972 160.873 100.938 159.08 98.8867 158.312C96.8354 157.543 95.297 156.262 95.297 156.262C95.297 156.262 94.015 159.849 87.6049 159.849C81.1947 159.849 73.9299 155.494 73.9299 147.467C73.9299 139.526 78.2888 134.061 79.3144 130.987C80.3401 127.913 77.5196 118.35 81.8785 112.458C86.2374 106.566 92.9039 102.211 98.1174 102.211C103.246 102.211 113.245 105.029 113.331 105.029C114.015 105.37 118.373 103.663 119.485 103.748C123.758 104.175 125.296 107.761 125.382 111.604Z" fill="#263238" stroke="#263238" stroke-miterlimit="10" stroke-linecap="round" stroke-linejoin="round"/>
<path d="M108.63 148.236C109.485 148.322 110.425 148.407 111.451 148.236" stroke="#919191" stroke-miterlimit="10" stroke-linecap="round" stroke-linejoin="round"/>
<path d="M121.621 116.13C121.279 118.179 120.51 120.399 119.143 122.534C115.126 128.768 110.596 131.073 105.126 137.05C101.622 140.893 102.305 144.821 105.126 146.785" stroke="#919191" stroke-miterlimit="10" stroke-linecap="round" stroke-linejoin="round"/>
<path d="M121.707 109.469C121.707 109.469 121.963 110.579 121.963 112.287" stroke="#919191" stroke-miterlimit="10" stroke-linecap="round" stroke-linejoin="round"/>
<path d="M116.322 115.446C116.322 115.446 115.467 124.327 111.792 129.45C108.117 134.574 100.681 137.135 100.938 142.6" stroke="#919191" stroke-miterlimit="10" stroke-linecap="round" stroke-linejoin="round"/>
<path d="M150.766 263.341C150.766 263.341 156.065 290.751 160.68 303.986C165.21 317.307 169.825 329.432 170.937 330.628C172.048 331.738 175.124 335.922 175.124 335.922C175.124 335.922 172.817 337.8 170.167 337.8C167.518 337.8 164.099 334.385 161.022 332.506C157.945 330.628 157.603 329.432 151.535 327.212C145.467 324.907 150.424 318.844 151.877 315.77C153.416 312.696 153.416 310.476 153.416 310.476C153.416 310.476 150.339 297.923 140.852 287.25C131.365 276.576 129.399 251.899 129.399 251.899L147.689 245.067L150.766 263.341Z" fill="white" stroke="#263238" stroke-miterlimit="10" stroke-linecap="round" stroke-linejoin="round"/>
<path d="M170.167 329.347L169.056 329.603C169.056 329.603 162.561 320.893 157.603 317.819C155.125 316.282 153.159 315.94 151.877 315.94C150.339 319.014 145.381 325.077 151.535 327.383C157.603 329.688 158.031 330.798 161.022 332.677C164.099 334.555 167.518 337.971 170.167 337.971C172.817 337.971 175.124 336.092 175.124 336.092C175.124 336.092 172.048 331.908 170.936 330.798C170.766 330.457 170.509 330.03 170.167 329.347Z" fill="#1A1A1A" stroke="#263238" stroke-miterlimit="10" stroke-linecap="round" stroke-linejoin="round"/>
<path d="M167.09 336.775C164.099 334.726 161.364 330.115 156.492 327.212C152.048 324.565 149.74 324.479 148.715 324.735C149.056 325.76 149.911 326.614 151.535 327.212C157.603 329.517 158.031 330.627 161.022 332.506C162.988 333.787 165.125 335.665 167.09 336.775Z" fill="#1A1A1A" stroke="#263238" stroke-miterlimit="10" stroke-linecap="round" stroke-linejoin="round"/>
<path d="M170.167 337.885C169.996 337.885 169.74 337.885 169.569 337.8C169.825 337.885 169.996 337.885 170.167 337.885Z" fill="#1A1A1A" stroke="#263238" stroke-miterlimit="10" stroke-linecap="round" stroke-linejoin="round"/>
<path d="M116.835 222.097C116.835 222.097 135.125 215.608 136.835 219.877C138.544 224.147 146.407 240.029 143.501 246.604C140.681 253.179 120.596 227.818 117.69 227.306C114.955 226.708 116.493 224.061 116.835 222.097Z" fill="white" stroke="#263238" stroke-miterlimit="10" stroke-linecap="round" stroke-linejoin="round"/>
<path d="M134.783 230.466C134.783 230.466 155.552 228.758 159.569 232.43C163.586 236.102 149.911 280.504 142.476 294.508C130.852 316.282 134.356 322.003 134.356 322.003C134.356 322.003 135.211 325.419 140.937 330.799C146.664 336.178 148.373 337.032 146.322 337.886C144.356 338.74 135.809 337.886 134.954 337.288C134.1 336.69 127.861 331.567 122.134 329.859C116.408 328.151 117.263 327.041 119.827 321.918C122.391 316.795 122.134 321.064 124.955 312.269C128.032 302.705 131.365 288.958 132.989 279.053C134.527 269.916 136.835 259.84 136.151 250.532C136.236 250.703 134.783 230.466 134.783 230.466Z" fill="white" stroke="#263238" stroke-miterlimit="10" stroke-linecap="round" stroke-linejoin="round"/>
<path d="M149.997 244.384C149.997 244.384 147.347 236.784 139.228 231.661C130.168 225.854 122.391 220.475 122.391 220.475L107.348 226.879C107.348 226.879 111.023 233.112 92.2202 236.186C77.7761 238.577 64.4431 235.076 57.2637 230.892C56.2381 235.845 55.2125 241.395 54.6997 245.408C53.6741 253.776 62.4773 262.23 67.8618 264.792C73.2463 267.353 116.75 272.818 128.544 265.304C149.997 251.556 149.997 244.384 149.997 244.384Z" fill="#263238" stroke="#263238" stroke-miterlimit="10" stroke-linecap="round" stroke-linejoin="round"/>
<path d="M105.81 231.49C103.844 233.112 99.9125 234.905 92.3913 236.101C77.9471 238.492 64.6141 234.991 57.4347 230.807C57.1783 232.087 56.9219 233.368 56.6655 234.735C61.5372 237.723 71.8789 242.676 83.5026 241.224C97.3484 239.602 103.588 235.759 105.81 231.49Z" fill="#1A1A1A" stroke="#263238" stroke-miterlimit="10" stroke-linecap="round" stroke-linejoin="round"/>
<path d="M94.6989 249.764C94.0152 250.618 93.3315 251.471 92.6477 252.325" stroke="white" stroke-miterlimit="10" stroke-linecap="round" stroke-linejoin="round"/>
<path d="M105.126 233.625C105.126 233.625 101.536 240.456 96.3228 247.543" stroke="white" stroke-miterlimit="10" stroke-linecap="round" stroke-linejoin="round"/>
<path d="M98.8869 239.005C98.8869 239.005 93.7588 245.836 88.3743 249.849" stroke="white" stroke-miterlimit="10" stroke-linecap="round" stroke-linejoin="round"/>
<path d="M140.937 330.798C135.211 325.418 134.356 322.002 134.356 322.002C134.356 322.002 134.1 321.832 133.929 321.405C133.501 321.832 132.39 322.6 129.57 321.49C127.091 320.551 124.784 318.928 122.305 317.818C121.707 318.843 121.109 319.526 119.912 322.002C117.348 327.126 116.493 328.236 122.22 329.944C127.946 331.651 134.185 336.775 135.04 337.373C135.895 337.97 144.441 338.824 146.407 337.97C148.373 337.116 146.664 336.262 140.937 330.798Z" fill="#1A1A1A" stroke="#263238" stroke-miterlimit="10" stroke-linecap="round" stroke-linejoin="round"/>
<path d="M146.151 247.287L155.894 241.31" stroke="#263238" stroke-miterlimit="10" stroke-linecap="round" stroke-linejoin="round"/>
<path d="M30.4268 193.151C30.4268 193.151 61.2808 189.308 81.024 194.859L84.0154 269.831H37.6916C37.6916 269.831 40.6829 229.527 30.4268 193.151Z" fill="#919191" stroke="#263238" stroke-miterlimit="10" stroke-linecap="round" stroke-linejoin="round"/>
<path d="M81.024 194.859C61.2808 189.308 30.4268 193.151 30.4268 193.151C33.931 205.618 35.8967 218.597 37.0078 230.21C50.6827 237.041 67.6909 247.629 83.7589 263.512L81.024 194.859Z" fill="#757575" stroke="#263238" stroke-miterlimit="10" stroke-linecap="round" stroke-linejoin="round"/>
<path d="M139.228 340.021C138.544 340.021 137.86 339.594 137.604 338.911C130.767 320.467 129.057 272.734 128.972 270.685C128.972 269.746 129.655 268.977 130.596 268.892C131.536 268.892 132.305 269.575 132.39 270.514C132.39 271.026 134.185 319.784 140.852 337.63C141.194 338.484 140.766 339.509 139.826 339.85C139.57 339.936 139.399 340.021 139.228 340.021Z" fill="white" stroke="#263238" stroke-miterlimit="10" stroke-linecap="round" stroke-linejoin="round"/>
<path d="M101.964 340.021C101.28 340.021 100.596 339.594 100.34 338.911C93.5024 320.467 91.793 272.734 91.7075 270.685C91.7075 269.746 92.3913 268.977 93.3314 268.892C94.2716 268.892 95.0408 269.575 95.1262 270.514C95.1262 271.026 96.9211 319.784 103.588 337.63C103.929 338.484 103.502 339.509 102.562 339.85C102.391 339.936 102.22 340.021 101.964 340.021Z" fill="white" stroke="#263238" stroke-miterlimit="10" stroke-linecap="round" stroke-linejoin="round"/>
<path d="M138.715 269.831H36.9224V266.415H135.382C137.177 266.415 138.715 267.952 138.715 269.831Z" fill="#919191" stroke="#263238" stroke-miterlimit="10" stroke-linecap="round" stroke-linejoin="round"/>
<path d="M138.801 268.977H36.9224V272.392H138.801V268.977Z" fill="white" stroke="#263238" stroke-miterlimit="10" stroke-linecap="round" stroke-linejoin="round"/>
<path d="M80.2547 340.021C80.1693 340.021 79.9983 340.021 79.9129 340.021C78.9727 339.85 78.3744 338.911 78.6308 337.971C88.2888 292.203 79.4855 196.054 79.4001 195.029C79.3146 194.09 79.9983 193.236 80.9385 193.151C81.8786 193.065 82.7333 193.748 82.8188 194.688C82.9043 195.627 91.7929 292.373 82.0496 338.654C81.7077 339.423 81.024 340.021 80.2547 340.021Z" fill="white" stroke="#263238" stroke-miterlimit="10" stroke-linecap="round" stroke-linejoin="round"/>
<path d="M27.2644 338.74C27.0934 338.74 26.9225 338.74 26.837 338.655C25.8969 338.398 25.3841 337.459 25.6405 336.52C47.8622 257.705 28.9737 194.261 28.8028 193.578C28.5464 192.639 29.0592 191.699 29.9139 191.443C30.854 191.187 31.7942 191.699 32.0506 192.553C32.2215 193.236 51.4519 257.535 28.8883 337.374C28.6319 338.228 27.9481 338.74 27.2644 338.74Z" fill="white" stroke="#263238" stroke-miterlimit="10" stroke-linecap="round" stroke-linejoin="round"/>
<path d="M339.736 197.933C339.736 197.933 329.224 192.127 328.454 205.277C327.685 218.512 325.719 304.414 325.719 304.414" stroke="#263238" stroke-width="2" stroke-miterlimit="10" stroke-linecap="round" stroke-linejoin="round"/>
<path d="M322.984 206.473C322.984 206.473 331.531 225.515 327.685 303.304" stroke="#263238" stroke-width="2" stroke-miterlimit="10" stroke-linecap="round" stroke-linejoin="round"/>
<path d="M331.446 200.58C331.446 200.58 327.429 203.142 325.121 200.239C322.814 197.336 326.66 191.871 323.326 189.565C319.908 187.26 314.096 190.761 314.096 190.761C314.096 190.761 318.626 192.041 318.455 194.518C318.284 196.994 316.147 197.933 315.891 196.823C315.634 195.713 313.497 190.334 309.822 192.639C306.147 194.859 305.634 198.36 305.634 198.36C305.634 198.36 314.096 197.421 314.609 200.666C315.121 203.825 311.104 200.068 307.6 199.897C304.096 199.727 300.934 200.239 301.105 202.288C301.361 204.423 300.763 207.924 300.763 207.924C300.763 207.924 303.754 205.277 307.6 205.533C311.446 205.789 311.275 208.18 307.771 208.009C304.267 207.839 301.276 211.169 301.276 211.169C301.276 211.169 304.438 216.634 308.54 219.281C312.557 222.013 314.096 220.989 314.523 218.939C315.036 216.89 313.925 211.51 316.318 211.681C318.797 211.852 312.215 220.903 315.378 221.501C318.54 222.013 321.019 221.159 321.873 219.11C322.728 217.061 322.728 217.061 322.728 217.061C322.728 217.061 321.617 211.766 322.13 209.632C322.643 207.582 323.155 209.717 323.754 212.193C324.352 214.67 324.694 220.647 325.719 220.391C326.831 220.135 330.249 215.78 331.018 214.072C331.788 212.364 326.489 207.155 326.574 206.045C326.66 205.021 330.762 206.985 331.36 208.095C331.959 209.205 332.642 210.656 332.642 210.656C332.642 210.656 335.206 209.034 335.121 204.167C335.035 199.043 331.446 200.58 331.446 200.58Z" fill="#1A1A1A"/>
<path opacity="0.3" d="M331.446 200.58C331.446 200.58 327.429 203.142 325.121 200.239C322.814 197.336 326.66 191.871 323.326 189.565C319.908 187.26 314.096 190.761 314.096 190.761C314.096 190.761 318.626 192.041 318.455 194.518C318.284 196.994 316.147 197.933 315.891 196.823C315.634 195.713 313.497 190.334 309.822 192.639C306.147 194.859 305.634 198.36 305.634 198.36C305.634 198.36 314.096 197.421 314.609 200.666C315.121 203.825 311.104 200.068 307.6 199.897C304.096 199.727 300.934 200.239 301.105 202.288C301.361 204.423 300.763 207.924 300.763 207.924C300.763 207.924 303.754 205.277 307.6 205.533C311.446 205.789 311.275 208.18 307.771 208.009C304.267 207.839 301.276 211.169 301.276 211.169C301.276 211.169 304.438 216.634 308.54 219.281C312.557 222.013 314.096 220.989 314.523 218.939C315.036 216.89 313.925 211.51 316.318 211.681C318.797 211.852 312.215 220.903 315.378 221.501C318.54 222.013 321.019 221.159 321.873 219.11C322.728 217.061 322.728 217.061 322.728 217.061C322.728 217.061 321.617 211.766 322.13 209.632C322.643 207.582 323.155 209.717 323.754 212.193C324.352 214.67 324.694 220.647 325.719 220.391C326.831 220.135 330.249 215.78 331.018 214.072C331.788 212.364 326.489 207.155 326.574 206.045C326.66 205.021 330.762 206.985 331.36 208.095C331.959 209.205 332.642 210.656 332.642 210.656C332.642 210.656 335.206 209.034 335.121 204.167C335.035 199.043 331.446 200.58 331.446 200.58Z" fill="#263238"/>
<path d="M311.019 212.108C313.668 208.864 317.514 204.509 320.762 202.374" stroke="#263238" stroke-miterlimit="10" stroke-linecap="round" stroke-linejoin="round"/>
<path d="M308.028 216.036C308.028 216.036 308.711 215.097 309.822 213.73" stroke="#263238" stroke-miterlimit="10" stroke-linecap="round" stroke-linejoin="round"/>
<path d="M322.472 203.228C322.472 203.228 326.403 208.692 327.087 214.414" stroke="#263238" stroke-miterlimit="10" stroke-linecap="round" stroke-linejoin="round"/>
<path d="M318.027 206.472C318.027 206.472 319.138 205.874 318.711 212.791" stroke="#263238" stroke-miterlimit="10" stroke-linecap="round" stroke-linejoin="round"/>
<path d="M320.933 199.983C320.933 199.983 323.155 198.019 321.959 194.091" stroke="#263238" stroke-miterlimit="10" stroke-linecap="round" stroke-linejoin="round"/>
<path d="M317.856 203.312L316.318 200.409" stroke="#263238" stroke-miterlimit="10" stroke-linecap="round" stroke-linejoin="round"/>
<path d="M314.523 206.216C314.523 206.216 309.48 202.374 306.318 202.203" stroke="#263238" stroke-miterlimit="10" stroke-linecap="round" stroke-linejoin="round"/>
<path d="M345.719 190.163C345.719 190.163 345.548 195.969 341.018 196.225C336.489 196.482 333.754 188.967 329.138 190.76C324.523 192.554 324.096 200.836 324.096 200.836C324.096 200.836 328.454 197.25 330.848 199.043C333.241 200.836 332.642 203.654 331.36 203.227C330.078 202.8 323.241 201.263 322.985 206.472C322.728 211.681 325.89 214.584 325.89 214.584C325.89 214.584 330.762 205.447 334.352 207.155C337.941 208.778 331.446 210.229 328.796 213.645C326.232 216.975 324.523 220.561 326.831 221.757C329.138 222.952 332.215 225.941 332.215 225.941C332.215 225.941 331.617 221.159 334.437 217.487C337.258 213.816 339.651 215.609 337.087 218.939C334.523 222.269 335.805 227.563 335.805 227.563C335.805 227.563 343.411 228.076 348.881 225.856C354.351 223.635 354.351 221.501 352.642 219.622C350.847 217.744 344.779 215.182 346.574 212.791C348.369 210.4 353.069 223.123 355.719 220.391C358.368 217.658 359.223 214.499 357.685 212.279C356.146 210.059 356.146 210.059 356.146 210.059C356.146 210.059 350.078 207.497 348.283 205.618C346.488 203.74 349.052 204.594 351.958 205.789C354.864 206.899 361.103 210.656 361.531 209.375C361.958 208.095 359.907 201.69 358.796 199.726C357.599 197.762 348.796 199.47 347.77 198.702C346.745 197.933 351.531 195.201 353.069 195.286C354.608 195.372 356.488 195.713 356.488 195.713C356.488 195.713 356.659 192.041 351.616 188.797C346.659 185.552 345.719 190.163 345.719 190.163Z" fill="#1A1A1A"/>
<path opacity="0.2" d="M345.719 190.163C345.719 190.163 345.548 195.969 341.018 196.225C336.489 196.482 333.754 188.967 329.138 190.76C324.523 192.554 324.096 200.836 324.096 200.836C324.096 200.836 328.454 197.25 330.848 199.043C333.241 200.836 332.642 203.654 331.36 203.227C330.078 202.8 323.241 201.263 322.985 206.472C322.728 211.681 325.89 214.584 325.89 214.584C325.89 214.584 330.762 205.447 334.352 207.155C337.941 208.778 331.446 210.229 328.796 213.645C326.232 216.975 324.523 220.561 326.831 221.757C329.138 222.952 332.215 225.941 332.215 225.941C332.215 225.941 331.617 221.159 334.437 217.487C337.258 213.816 339.651 215.609 337.087 218.939C334.523 222.269 335.805 227.563 335.805 227.563C335.805 227.563 343.411 228.076 348.881 225.856C354.351 223.635 354.351 221.501 352.642 219.622C350.847 217.744 344.779 215.182 346.574 212.791C348.369 210.4 353.069 223.123 355.719 220.391C358.368 217.658 359.223 214.499 357.685 212.279C356.146 210.059 356.146 210.059 356.146 210.059C356.146 210.059 350.078 207.497 348.283 205.618C346.488 203.74 349.052 204.594 351.958 205.789C354.864 206.899 361.103 210.656 361.531 209.375C361.958 208.095 359.907 201.69 358.796 199.726C357.599 197.762 348.796 199.47 347.77 198.702C346.745 197.933 351.531 195.201 353.069 195.286C354.608 195.372 356.488 195.713 356.488 195.713C356.488 195.713 356.659 192.041 351.616 188.797C346.659 185.552 345.719 190.163 345.719 190.163Z" fill="#263238"/>
<path d="M343.411 218.427C341.958 213.559 340.164 206.728 340.335 202.117" stroke="#263238" stroke-miterlimit="10" stroke-linecap="round" stroke-linejoin="round"/>
<path d="M345.292 224.148C345.292 224.148 344.779 222.867 344.181 220.817" stroke="#263238" stroke-miterlimit="10" stroke-linecap="round" stroke-linejoin="round"/>
<path d="M342.3 200.922C342.3 200.922 350.505 200.751 356.659 203.91" stroke="#263238" stroke-miterlimit="10" stroke-linecap="round" stroke-linejoin="round"/>
<path d="M342.557 207.582C342.557 207.582 342.642 206.045 349.394 211.254" stroke="#263238" stroke-miterlimit="10" stroke-linecap="round" stroke-linejoin="round"/>
<path d="M337.941 200.324C337.941 200.324 337.514 196.738 332.728 195.286" stroke="#263238" stroke-miterlimit="10" stroke-linecap="round" stroke-linejoin="round"/>
<path d="M339.224 205.533L335.207 205.191" stroke="#263238" stroke-miterlimit="10" stroke-linecap="round" stroke-linejoin="round"/>
<path d="M339.907 210.912C339.907 210.912 332.642 213.388 330.335 216.377" stroke="#263238" stroke-miterlimit="10" stroke-linecap="round" stroke-linejoin="round"/>
<path d="M297.344 228.588C297.344 228.588 320.335 243.787 319.908 302.45" stroke="#263238" stroke-width="2" stroke-miterlimit="10" stroke-linecap="round" stroke-linejoin="round"/>
<path d="M325.634 224.66C325.634 224.66 324.865 231.32 319.651 231.235C314.438 231.15 311.874 222.184 306.404 223.892C300.934 225.514 299.652 234.992 299.652 234.992C299.652 234.992 305.036 231.235 307.6 233.541C310.164 235.846 309.224 239.005 307.857 238.408C306.404 237.81 298.626 235.334 297.857 241.311C297.088 247.288 300.421 250.96 300.421 250.96C300.421 250.96 306.917 240.884 310.848 243.19C314.78 245.41 307.173 246.52 303.84 250.106C300.506 253.778 298.284 257.706 300.763 259.328C303.241 260.951 306.575 264.622 306.575 264.622C306.575 264.622 306.318 259.072 309.993 255.059C313.669 251.045 316.147 253.351 312.899 257.023C309.566 260.694 310.592 266.842 310.592 266.842C310.592 266.842 319.395 268.209 325.891 266.159C332.386 264.11 332.643 261.634 330.762 259.328C328.882 256.937 322.13 253.436 324.438 250.96C326.745 248.398 330.933 263.512 334.266 260.609C337.6 257.706 338.796 254.119 337.343 251.387C335.805 248.654 335.805 248.654 335.805 248.654C335.805 248.654 329.053 245.153 327.173 242.763C325.292 240.372 328.198 241.652 331.361 243.275C334.608 244.897 341.446 249.764 342.044 248.313C342.642 246.861 340.933 239.347 339.736 236.956C338.54 234.565 328.198 235.761 327.087 234.736C325.976 233.711 331.788 231.064 333.583 231.32C335.377 231.577 337.429 232.174 337.429 232.174C337.429 232.174 337.942 227.99 332.472 223.721C327.087 219.366 325.634 224.66 325.634 224.66Z" fill="#1A1A1A"/>
<path opacity="0.3" d="M325.634 224.66C325.634 224.66 324.865 231.32 319.651 231.235C314.438 231.15 311.874 222.184 306.404 223.892C300.934 225.514 299.652 234.992 299.652 234.992C299.652 234.992 305.036 231.235 307.6 233.541C310.164 235.846 309.224 239.005 307.857 238.408C306.404 237.81 298.626 235.334 297.857 241.311C297.088 247.288 300.421 250.96 300.421 250.96C300.421 250.96 306.917 240.884 310.848 243.19C314.78 245.41 307.173 246.52 303.84 250.106C300.506 253.778 298.284 257.706 300.763 259.328C303.241 260.951 306.575 264.622 306.575 264.622C306.575 264.622 306.318 259.072 309.993 255.059C313.669 251.045 316.147 253.351 312.899 257.023C309.566 260.694 310.592 266.842 310.592 266.842C310.592 266.842 319.395 268.209 325.891 266.159C332.386 264.11 332.643 261.634 330.762 259.328C328.882 256.937 322.13 253.436 324.438 250.96C326.745 248.398 330.933 263.512 334.266 260.609C337.6 257.706 338.796 254.119 337.343 251.387C335.805 248.654 335.805 248.654 335.805 248.654C335.805 248.654 329.053 245.153 327.173 242.763C325.292 240.372 328.198 241.652 331.361 243.275C334.608 244.897 341.446 249.764 342.044 248.313C342.642 246.861 340.933 239.347 339.736 236.956C338.54 234.565 328.198 235.761 327.087 234.736C325.976 233.711 331.788 231.064 333.583 231.32C335.377 231.577 337.429 232.174 337.429 232.174C337.429 232.174 337.942 227.99 332.472 223.721C327.087 219.366 325.634 224.66 325.634 224.66Z" fill="#263238"/>
<path d="M320.25 257.023C319.053 251.302 317.686 243.275 318.198 237.896" stroke="#263238" stroke-miterlimit="10" stroke-linecap="round" stroke-linejoin="round"/>
<path d="M321.874 263.768C321.874 263.768 321.446 262.231 320.848 259.755" stroke="#263238" stroke-miterlimit="10" stroke-linecap="round" stroke-linejoin="round"/>
<path d="M320.592 236.7C320.592 236.7 329.993 237.298 336.831 241.482" stroke="#263238" stroke-miterlimit="10" stroke-linecap="round" stroke-linejoin="round"/>
<path d="M320.25 244.385C320.25 244.385 320.506 242.592 327.771 249.252" stroke="#263238" stroke-miterlimit="10" stroke-linecap="round" stroke-linejoin="round"/>
<path d="M315.72 235.504C315.72 235.504 315.549 231.32 310.164 229.186" stroke="#263238" stroke-miterlimit="10" stroke-linecap="round" stroke-linejoin="round"/>
<path d="M316.66 241.738L312.13 240.884" stroke="#263238" stroke-miterlimit="10" stroke-linecap="round" stroke-linejoin="round"/>
<path d="M317.002 247.972C317.002 247.972 308.37 250.106 305.378 253.351" stroke="#263238" stroke-miterlimit="10" stroke-linecap="round" stroke-linejoin="round"/>
<path d="M306.233 274.869C306.233 274.869 321.019 286.14 322.557 302.877L319.48 246.861" stroke="#263238" stroke-width="2" stroke-miterlimit="10" stroke-linecap="round" stroke-linejoin="round"/>
<path d="M342.044 266.757C322.557 263.256 322.557 302.877 322.557 302.877" stroke="#263238" stroke-width="2" stroke-miterlimit="10" stroke-linecap="round" stroke-linejoin="round"/>
<path d="M324.95 302.45C324.95 302.45 313.669 220.391 346.317 220.391" stroke="#263238" stroke-width="2" stroke-miterlimit="10" stroke-linecap="round" stroke-linejoin="round"/>
<path d="M334.608 264.366C331.959 261.378 326.318 261.378 322.985 268.977C319.651 276.577 322.643 275.296 322.643 275.296C322.643 275.296 328.967 273.332 332.899 271.966C336.916 270.6 342.215 267.355 342.557 269.319C342.899 271.283 339.907 273.332 336.232 273.93C332.557 274.613 322.985 277.26 323.925 279.224C324.95 281.188 327.258 287.165 327.258 287.165C327.258 287.165 331.873 283.152 336.232 280.505C340.591 277.858 343.24 278.882 340.847 281.871C338.54 284.86 331.873 288.19 333.241 292.118C334.608 296.131 342.557 301.084 342.557 301.084C342.557 301.084 343.582 292.801 345.89 290.154C348.198 287.507 348.198 290.495 347.514 295.106C346.83 299.717 346.83 301.084 346.83 301.084L356.146 304.414C356.146 304.414 359.479 299.461 361.103 297.754C362.727 296.131 362.727 296.131 362.727 296.131C362.727 296.131 355.377 289.812 355.121 285.884C354.779 281.871 360.078 285.884 361.787 286.567C363.411 287.251 366.146 291.862 366.146 291.862C366.146 291.862 367.77 284.262 368.112 281.615C368.454 278.968 368.454 278.968 368.454 278.968C368.454 278.968 361.445 276.321 358.796 276.321C356.146 276.321 354.779 278.285 354.779 275.638C354.779 272.991 357.428 271.283 360.42 271.624C363.411 271.966 368.368 273.588 368.368 273.588C368.368 273.588 370.334 271.966 369.736 266.928C369.052 261.975 367.428 261.975 363.411 263.256C359.394 264.622 356.744 267.611 353.753 267.611C350.762 267.611 352.386 263.939 354.437 263C356.403 261.975 361.445 260.011 362.385 259.67C363.411 259.328 357.086 254.717 353.753 254.034C350.42 253.351 346.146 255.742 346.403 258.987C347.258 265.989 337.343 267.355 334.608 264.366Z" fill="#1A1A1A"/>
<path d="M356.061 298.522C356.146 299.547 356.232 300.486 356.232 301.511" stroke="#263238" stroke-miterlimit="10" stroke-linecap="round" stroke-linejoin="round"/>
<path d="M349.394 274.698C351.702 280.078 354.437 287.507 355.633 295.277" stroke="#263238" stroke-miterlimit="10" stroke-linecap="round" stroke-linejoin="round"/>
<path d="M348.198 272.051C346.574 268.55 345.292 266.33 345.292 266.33C345.292 266.33 348.283 264.964 349.651 262.317C351.018 259.67 352.984 258.304 352.984 258.304" stroke="#263238" stroke-miterlimit="10" stroke-linecap="round" stroke-linejoin="round"/>
<path d="M333.668 277.602C333.668 277.602 345.634 272.649 345.634 273.588" stroke="#263238" stroke-miterlimit="10" stroke-linecap="round" stroke-linejoin="round"/>
<path d="M352.215 271.368C352.215 271.368 357.514 268.721 362.214 268.721" stroke="#263238" stroke-miterlimit="10" stroke-linecap="round" stroke-linejoin="round"/>
<path d="M350.249 279.31C350.249 279.31 347.258 281.615 343.924 285.628C340.591 289.642 339.309 293.228 339.309 293.228" stroke="#263238" stroke-miterlimit="10" stroke-linecap="round" stroke-linejoin="round"/>
<path d="M353.924 280.59C353.924 280.59 360.932 278.626 364.522 281.956" stroke="#263238" stroke-miterlimit="10" stroke-linecap="round" stroke-linejoin="round"/>
<path d="M366.573 235.761C362.984 233.626 358.967 233.541 357.001 231.321C355.035 229.101 358.881 227.905 360.932 228.759C362.984 229.613 367.77 232.089 368.71 232.602C369.65 233.114 368.966 225.344 367.342 222.355C365.633 219.452 361.103 217.744 358.796 220.135C353.924 225.173 346.403 218.598 346.916 214.584C347.428 210.657 343.753 206.387 335.805 208.863C327.856 211.34 330.848 212.706 330.848 212.706C330.848 212.706 336.488 216.121 340.078 218.342C343.668 220.476 349.651 222.355 348.369 223.892C347.086 225.429 343.582 224.49 340.676 222.184C337.77 219.879 329.48 214.328 328.625 216.378C327.771 218.427 324.779 224.148 324.779 224.148C324.779 224.148 330.848 225.087 335.634 226.539C340.505 228.076 341.446 230.723 337.685 230.894C333.924 231.065 327.001 228.247 324.865 231.833C322.728 235.42 324.181 244.727 324.181 244.727C324.181 244.727 331.104 240.031 334.608 240.031C338.112 240.031 335.89 241.994 331.959 244.556C328.027 247.118 327.001 247.972 327.001 247.972L330.591 257.194C330.591 257.194 336.574 256.425 338.882 256.596C341.189 256.767 341.189 256.767 341.189 256.767C341.189 256.767 341.189 247.118 343.924 244.3C346.745 241.397 347.172 248.057 347.77 249.765C348.369 251.473 346.574 256.511 346.574 256.511C346.574 256.511 353.411 252.754 355.633 251.302C357.855 249.85 357.855 249.85 357.855 249.85C357.855 249.85 355.291 242.848 353.582 240.884C351.873 238.92 349.48 239.177 351.445 237.469C353.411 235.761 356.488 236.615 358.197 239.091C359.907 241.568 361.958 246.435 361.958 246.435C361.958 246.435 364.522 246.862 367.855 243.105C371.274 239.177 370.163 237.896 366.573 235.761ZM335.121 246.435C332.471 245.069 338.796 242.421 338.796 242.421C341.104 242.08 337.77 247.716 335.121 246.435ZM339.565 234.053C338.454 233.456 341.873 232.346 341.873 232.346C346.745 233.285 340.762 234.566 339.565 234.053Z" fill="#1A1A1A"/>
<path d="M335.035 253.181C334.352 253.949 333.668 254.632 332.899 255.315" stroke="#263238" stroke-miterlimit="10" stroke-linecap="round" stroke-linejoin="round"/>
<path d="M348.71 232.517C346.146 237.811 342.3 244.727 337.258 250.705" stroke="#263238" stroke-miterlimit="10" stroke-linecap="round" stroke-linejoin="round"/>
<path d="M349.907 229.869C351.531 226.283 352.3 223.978 352.3 223.978C352.3 223.978 355.291 225.344 358.112 224.661C361.018 223.892 363.326 224.575 363.326 224.575" stroke="#263238" stroke-miterlimit="10" stroke-linecap="round" stroke-linejoin="round"/>
<path d="M347.001 229.016C347.77 228.332 336.146 222.611 336.146 222.611" stroke="#263238" stroke-miterlimit="10" stroke-linecap="round" stroke-linejoin="round"/>
<path d="M353.155 232.517C353.155 232.517 358.625 234.822 361.702 238.323" stroke="#263238" stroke-miterlimit="10" stroke-linecap="round" stroke-linejoin="round"/>
<path d="M345.804 236.188C345.804 236.188 342.129 235.419 336.916 235.59C331.702 235.676 328.113 237.127 328.113 237.127" stroke="#263238" stroke-miterlimit="10" stroke-linecap="round" stroke-linejoin="round"/>
<path d="M347.172 239.859C347.172 239.859 353.24 243.787 353.155 248.74" stroke="#263238" stroke-miterlimit="10" stroke-linecap="round" stroke-linejoin="round"/>
<path d="M314.95 281.785C312.044 280.077 308.797 279.992 307.258 278.199C305.72 276.406 308.797 275.466 310.421 276.15C312.044 276.833 315.891 278.797 316.66 279.224C317.429 279.651 316.916 273.332 315.549 271.026C314.181 268.635 310.506 267.269 308.626 269.233C304.78 273.332 298.711 267.952 299.053 264.793C299.481 261.633 296.489 258.132 290.079 260.182C283.669 262.231 286.062 263.341 286.062 263.341C286.062 263.341 290.592 266.159 293.498 267.867C296.404 269.575 301.19 271.026 300.164 272.307C299.139 273.588 296.318 272.819 294.011 270.941C291.703 269.062 284.951 264.622 284.267 266.244C283.584 267.867 281.19 272.478 281.19 272.478C281.19 272.478 286.062 273.161 289.994 274.442C293.925 275.637 294.694 277.772 291.618 277.943C288.541 278.114 283.071 275.808 281.361 278.711C279.652 281.614 280.849 289.043 280.849 289.043C280.849 289.043 286.404 285.286 289.224 285.286C292.045 285.286 290.25 286.909 287.088 288.958C283.925 291.007 283.071 291.69 283.071 291.69L285.977 299.119C285.977 299.119 290.763 298.522 292.643 298.607C294.523 298.778 294.523 298.778 294.523 298.778C294.523 298.778 294.523 291.007 296.746 288.702C298.968 286.396 299.395 291.69 299.822 293.057C300.335 294.423 298.882 298.522 298.882 298.522C298.882 298.522 304.438 295.533 306.233 294.338C308.027 293.142 308.027 293.142 308.027 293.142C308.027 293.142 305.976 287.506 304.523 285.884C303.156 284.262 301.19 284.518 302.814 283.152C304.438 281.785 306.831 282.468 308.198 284.518C309.566 286.482 311.19 290.41 311.19 290.41C311.19 290.41 313.241 290.751 315.891 287.677C318.711 284.518 317.856 283.493 314.95 281.785ZM289.652 290.324C287.515 289.214 292.558 287.079 292.558 287.079C294.438 286.823 291.788 291.349 289.652 290.324ZM293.241 280.334C292.301 279.907 295.036 278.967 295.036 278.967C298.968 279.736 294.182 280.761 293.241 280.334Z" fill="#1A1A1A"/>
<path d="M289.566 295.789C288.968 296.387 288.455 296.985 287.857 297.497" stroke="#263238" stroke-miterlimit="10" stroke-linecap="round" stroke-linejoin="round"/>
<path d="M300.592 279.139C298.54 283.408 295.464 288.958 291.361 293.826" stroke="#263238" stroke-miterlimit="10" stroke-linecap="round" stroke-linejoin="round"/>
<path d="M301.532 277.003C302.814 274.1 303.498 272.222 303.498 272.222C303.498 272.222 305.891 273.332 308.198 272.734C310.506 272.136 312.386 272.649 312.386 272.649" stroke="#263238" stroke-miterlimit="10" stroke-linecap="round" stroke-linejoin="round"/>
<path d="M290.506 271.111C290.506 271.111 299.822 275.722 299.224 276.235" stroke="#263238" stroke-miterlimit="10" stroke-linecap="round" stroke-linejoin="round"/>
<path d="M304.096 279.139C304.096 279.139 308.54 280.932 310.933 283.75" stroke="#263238" stroke-miterlimit="10" stroke-linecap="round" stroke-linejoin="round"/>
<path d="M298.199 282.127C298.199 282.127 295.207 281.529 291.019 281.615C286.831 281.7 283.926 282.81 283.926 282.81" stroke="#263238" stroke-miterlimit="10" stroke-linecap="round" stroke-linejoin="round"/>
<path d="M299.395 285.03C299.395 285.03 304.267 288.19 304.181 292.203" stroke="#263238" stroke-miterlimit="10" stroke-linecap="round" stroke-linejoin="round"/>
<path d="M303.07 226.966C303.07 226.966 299.395 229.613 297.088 226.966C294.78 224.319 298.113 219.025 294.78 216.976C291.447 215.012 286.148 218.598 286.148 218.598C286.148 218.598 290.507 219.623 290.507 221.928C290.507 224.234 288.541 225.258 288.199 224.234C287.857 223.209 285.549 218.256 282.216 220.562C278.883 222.867 278.541 226.198 278.541 226.198C278.541 226.198 286.49 224.831 287.173 227.82C287.857 230.809 283.84 227.478 280.507 227.478C277.174 227.478 274.182 228.162 274.524 230.126C274.866 232.089 274.524 235.42 274.524 235.42C274.524 235.42 277.174 232.773 280.849 232.773C284.524 232.773 284.524 235.078 281.191 235.078C277.857 235.078 275.208 238.408 275.208 238.408C275.208 238.408 278.541 243.361 282.558 245.752C286.575 248.057 287.857 247.118 288.199 245.069C288.541 243.105 287.173 238.067 289.566 238.067C291.874 238.067 286.233 247.033 289.225 247.374C292.216 247.716 294.524 246.691 295.207 244.727C295.891 242.763 295.891 242.763 295.891 242.763C295.891 242.763 294.524 237.811 294.865 235.761C295.207 233.797 295.891 235.761 296.489 238.067C297.173 240.372 297.857 246.008 298.797 245.666C299.823 245.325 302.814 241.055 303.412 239.348C304.096 237.725 298.797 233.029 298.797 232.004C298.797 230.979 302.814 232.687 303.412 233.627C304.096 234.651 304.78 235.932 304.78 235.932C304.78 235.932 307.087 234.31 306.746 229.613C306.404 225.344 303.07 226.966 303.07 226.966Z" fill="#1A1A1A"/>
<path d="M284.438 239.006C286.746 235.761 290.165 231.406 293.071 229.271" stroke="#263238" stroke-miterlimit="10" stroke-linecap="round" stroke-linejoin="round"/>
<path d="M281.789 242.934C281.789 242.934 282.387 241.995 283.327 240.629" stroke="#263238" stroke-miterlimit="10" stroke-linecap="round" stroke-linejoin="round"/>
<path d="M294.78 229.955C294.78 229.955 298.797 234.908 299.737 240.202" stroke="#263238" stroke-miterlimit="10" stroke-linecap="round" stroke-linejoin="round"/>
<path d="M290.763 233.285C290.763 233.285 291.789 232.602 291.789 239.263" stroke="#263238" stroke-miterlimit="10" stroke-linecap="round" stroke-linejoin="round"/>
<path d="M293.071 226.966C293.071 226.966 295.036 225.002 293.754 221.33" stroke="#263238" stroke-miterlimit="10" stroke-linecap="round" stroke-linejoin="round"/>
<path d="M290.421 230.296L288.797 227.649" stroke="#263238" stroke-miterlimit="10" stroke-linecap="round" stroke-linejoin="round"/>
<path d="M287.43 233.285C287.43 233.285 282.473 229.955 279.481 229.955" stroke="#263238" stroke-miterlimit="10" stroke-linecap="round" stroke-linejoin="round"/>
<path d="M336.574 301.34H310.933V338.228H336.574V301.34Z" fill="#263238" stroke="#263238" stroke-width="2" stroke-miterlimit="10" stroke-linecap="round" stroke-linejoin="round"/>
</g>
<defs>
<clipPath id="clip0_87_3065">
<rect width="397" height="353" fill="white"/>
</clipPath>
</defs>
</svg>
