<svg width="73" height="70" viewBox="0 0 73 70" fill="none" xmlns="http://www.w3.org/2000/svg">
<path d="M72.9167 53.6329C72.7458 53.9388 72.5939 54.2447 72.423 54.5507C71.6634 55.7361 70.5241 56.1377 69.1949 56.0803C68.8341 56.9598 68.4733 57.8203 68.1125 58.6998C68.8151 59.369 69.3468 60.1338 69.3848 61.1663C69.4227 62.1224 69.1379 62.9445 68.4733 63.6329C67.9226 64.2065 67.372 64.761 66.8213 65.3155C65.3022 66.826 63.5173 66.8451 61.9792 65.3728C61.9032 65.2964 61.8083 65.2199 61.7323 65.1434C60.8588 65.5067 60.0043 65.8509 59.1309 66.2333C59.1119 66.5201 59.1309 66.826 59.0739 67.1319C58.846 68.7954 57.5358 69.9618 55.8648 69.9809C55.0673 70 54.2508 69.9809 53.4532 69.9809C51.5164 69.9618 50.1872 68.7189 50.0922 66.7686C50.0732 66.3098 49.9213 66.1185 49.5036 65.9656C48.839 65.7361 48.1934 65.4302 47.5288 65.1625C47.111 65.4684 46.7122 65.8509 46.2375 66.0803C44.9843 66.673 43.788 66.5392 42.7246 65.6214C42.022 65.0096 41.3764 64.3403 40.7498 63.652C39.4396 62.2753 39.4206 60.4398 40.7498 59.044C41.0346 58.738 41.0536 58.5468 40.8827 58.1836C40.5599 57.4952 40.2751 56.7878 39.9712 56.0612C36.0596 56.0612 32.1099 56.0612 28.1793 56.0612C27.2298 56.0612 26.6222 55.6023 26.5272 54.8375C26.3943 53.9006 27.0209 53.1931 28.0273 53.174C30.5149 53.1549 33.0024 53.174 35.5089 53.174C35.7368 53.174 35.9836 53.174 36.2684 53.174C36.2684 52.2371 36.2684 51.3576 36.2684 50.4971C36.2874 48.3748 37.4837 47.1128 39.5535 46.9598C39.7624 46.9407 40.0472 46.7878 40.1232 46.6157C40.465 45.8891 40.7308 45.1243 41.0346 44.3403C40.313 43.6711 39.7814 42.8872 39.7434 41.8356C39.7244 40.8987 40.0092 40.0956 40.6548 39.4264C41.2625 38.7954 41.8891 38.1644 42.5157 37.5526C43.826 36.2906 45.6679 36.2524 46.9971 37.5143C47.3579 37.8585 47.6047 37.8585 48.0415 37.6482C48.6681 37.3231 49.3327 37.0937 49.9783 36.826C50.0353 36.3862 50.0543 35.9656 50.1492 35.5449C50.453 34.1874 51.5164 33.2122 52.8836 33.0975C53.871 33.021 54.8774 33.021 55.8648 33.0593C57.7257 33.1358 58.941 34.3403 59.0549 36.2141C59.0739 36.673 59.2068 36.8642 59.6436 36.9981C60.3461 37.2275 61.0107 37.5335 61.7513 37.8585C62.5298 36.9981 63.5173 36.4436 64.8275 36.5966C64.8275 31.74 64.8275 26.9025 64.8275 22.0268C44.1867 22.0268 23.584 22.0268 2.90527 22.0268C2.90527 22.2753 2.90527 22.4857 2.90527 22.696C2.90527 31.1281 2.90527 39.5602 2.90527 48.0115C2.90527 49.2543 3.17112 50.4206 3.89269 51.4532C4.67122 52.5813 5.73459 53.1931 7.13976 53.1931C9.72222 53.174 12.3047 53.1931 14.9061 53.1931C16.0075 53.1931 16.6531 53.7285 16.6531 54.6272C16.6531 55.5258 15.9885 56.0803 14.9061 56.0803C12.4186 56.0803 9.91211 56.0038 7.42459 56.0994C3.43696 56.2524 1.04438 53.3078 0.322808 50.478C0.246853 50.1912 0.132921 49.9235 0.0379774 49.6367C0 35.1816 0 20.7457 0 6.30975C0.0949436 6.08031 0.208876 5.85086 0.265842 5.62141C1.10135 2.25621 3.74078 0 6.93088 0C24.8942 0 42.8575 0 60.8209 0C62.6248 0 64.1439 0.650096 65.3971 1.93117C67.1061 3.69025 67.7327 5.85086 67.7327 8.26004C67.7327 18.0497 67.7327 27.8585 67.7138 37.6482C67.7138 38.3174 67.8277 38.8145 68.3594 39.2734C69.0999 39.9044 69.4038 40.7648 69.3848 41.7591C69.3658 42.8489 68.7961 43.6329 68.1125 44.3021C68.4353 45.1052 68.7202 45.8317 69.043 46.5392C69.1189 46.7113 69.3468 46.9216 69.4987 46.9216C71.3216 46.9407 72.366 47.9159 72.8977 49.5793C72.9167 50.956 72.9167 52.2945 72.9167 53.6329ZM64.7895 19.0631C64.7895 15.0287 64.9034 11.0134 64.7515 6.99809C64.6566 4.41683 62.7957 2.86807 60.2322 2.86807C53.3773 2.86807 46.5224 2.86807 39.6484 2.86807C28.8249 2.86807 18.0013 2.86807 7.17773 2.86807C6.01942 2.86807 5.03201 3.21224 4.25347 4.07266C3.26606 5.16252 2.8673 6.50096 2.8673 7.95411C2.8673 11.4914 2.8673 15.0287 2.8673 18.566C2.8673 18.7189 2.88628 18.891 2.90527 19.0631C23.546 19.0631 44.1678 19.0631 64.7895 19.0631ZM70.0494 51.4914C70.0494 49.8853 70.0494 49.8853 68.4163 49.8661C68.3784 49.8661 68.3214 49.8661 68.2834 49.8661C67.315 49.8279 66.9352 49.4837 66.6124 48.5277C66.2326 47.3996 65.7959 46.2906 65.2832 45.239C64.6945 44.0344 64.6756 43.6711 65.625 42.7151C66.8593 41.4532 66.8403 41.8164 65.625 40.5736C64.4097 39.3308 64.3907 39.3308 63.1375 40.5354C62.3969 41.2619 61.9032 41.2619 60.9728 40.8222C59.8524 40.2868 58.6941 39.8088 57.5168 39.3881C56.5674 39.044 56.2066 38.6616 56.1876 37.6291C56.1496 35.9273 56.1496 35.9273 54.5166 35.9273C52.9216 35.9273 52.9216 35.9273 52.9026 37.5526C52.9026 38.7189 52.5798 39.044 51.4594 39.4264C50.415 39.7705 49.3707 40.2103 48.3832 40.7075C47.168 41.3384 46.7882 41.3384 45.8198 40.3633C44.6425 39.1778 44.9273 39.1969 43.731 40.3824C42.4778 41.6252 42.4778 41.6252 43.674 42.8872C44.4146 43.652 44.4336 44.13 43.9779 45.0669C43.4652 46.1377 42.9904 47.2275 42.6107 48.3556C42.2309 49.5029 41.8891 49.847 40.6928 49.847C39.1168 49.8662 39.1168 49.8662 39.1168 51.434C39.1168 53.1549 39.1168 53.1549 40.7878 53.1549C41.9081 53.1549 42.2499 53.499 42.5917 54.5698C42.9525 55.6788 43.3892 56.7495 43.9019 57.8011C44.4526 58.891 44.4336 59.3308 43.5791 60.2103C42.4778 61.3384 42.4778 61.3384 43.5791 62.4474C44.7754 63.652 44.7754 63.652 45.9527 62.4665C46.7502 61.6635 47.187 61.6635 48.2313 62.1797C49.2377 62.6769 50.2821 63.1358 51.3645 63.499C52.6367 63.9197 52.9216 64.2256 52.9216 65.5832C52.9405 67.2658 52.7317 67.0554 54.4027 67.0746C56.1876 67.0746 56.1876 67.0746 56.2066 65.2581C56.2256 64.2639 56.5484 63.9197 57.5168 63.5755C58.6182 63.174 59.7385 62.7533 60.7829 62.2371C61.9602 61.6444 62.321 61.6444 63.2894 62.6004C64.5426 63.8241 64.1819 63.805 65.4161 62.5813C66.6504 61.3575 66.6504 61.3384 65.4351 60.0765C64.7325 59.3499 64.7135 58.8528 65.1503 57.9541C65.682 56.8451 66.1567 55.6979 66.5744 54.5507C66.9542 53.4799 67.258 53.174 68.4163 53.174C70.2962 53.174 70.0304 53.4226 70.0494 51.4914Z" fill="#030303"/>
<path d="M32.1289 37.5912C30.9896 36.3101 29.9073 35.0864 28.8249 33.8435C28.1223 33.0405 28.1033 32.1609 28.7869 31.5682C29.4326 31.0137 30.2681 31.1284 30.9706 31.9124C32.2049 33.2891 33.4392 34.6848 34.6544 36.0806C35.5469 37.094 35.5469 38.0692 34.6544 39.0825C33.4202 40.4975 32.1669 41.9124 30.9137 43.3082C30.2491 44.0539 29.3566 44.1495 28.73 43.5376C28.1223 42.964 28.1413 42.1227 28.7869 41.377C29.3376 40.746 29.8883 40.1342 30.439 39.5032C30.9706 38.8913 31.5213 38.2604 32.1289 37.5912Z" fill="#030303"/>
<path d="M11.2983 37.5905C12.3997 38.8334 13.482 40.038 14.5264 41.2617C14.7353 41.5102 14.9631 41.7779 15.0581 42.0838C15.248 42.7339 15.0771 43.3267 14.4694 43.7091C13.8808 44.0724 13.2352 44.0915 12.7605 43.5752C11.2793 41.9691 9.8172 40.3248 8.41204 38.6422C7.86136 37.9729 7.95631 37.0169 8.54496 36.3286C9.87417 34.7798 11.2414 33.2502 12.6085 31.7206C13.1782 31.0896 14.0517 31.0513 14.6403 31.5867C15.229 32.1221 15.286 32.9825 14.7163 33.6517C13.8238 34.7033 12.8934 35.7167 11.9819 36.7492C11.792 37.036 11.5642 37.3037 11.2983 37.5905Z" fill="#030303"/>
<path d="M24.5524 31.8161C24.2676 32.9825 23.9638 34.3018 23.6409 35.6211C23.0143 38.2788 22.3877 40.9557 21.7611 43.6134C21.7231 43.7473 21.6851 43.9002 21.6471 44.0341C21.3813 44.7607 20.6787 45.1813 19.9571 45.0092C19.2166 44.818 18.7229 44.1106 18.8938 43.3266C19.4824 40.7262 20.109 38.1259 20.7167 35.5446C21.0395 34.1679 21.3433 32.8104 21.6851 31.4337C21.932 30.4586 22.6915 29.9614 23.508 30.2291C24.1916 30.4203 24.5904 30.9748 24.5524 31.8161Z" fill="#040404"/>
<path d="M21.5522 53.1934C22.3687 53.1934 22.9954 53.8243 22.9954 54.6274C22.9954 55.4305 22.3497 56.0805 21.5522 56.0805C20.7737 56.0805 20.0901 55.4113 20.0901 54.6465C20.0901 53.8435 20.7357 53.1934 21.5522 53.1934Z" fill="#060606"/>
<path d="M49.0669 15.9082C46.9022 15.9082 44.7564 15.9464 42.5917 15.9082C40.446 15.87 38.5851 14.3594 38.0534 12.3136C37.5027 10.2485 38.3572 7.99233 40.2181 6.95982C40.9967 6.53917 41.9651 6.25237 42.8386 6.23325C46.9781 6.15676 51.1366 6.17588 55.2952 6.21413C58.1435 6.23325 60.2702 8.3365 60.2512 11.0898C60.2512 13.8432 58.1055 15.9082 55.2572 15.9273C53.1874 15.9273 51.1366 15.9082 49.0669 15.9082ZM49.0099 13.021C51.0797 13.021 53.1305 13.021 55.2002 13.021C56.4915 13.021 57.3649 12.2179 57.3839 11.0898C57.4029 9.90437 56.5294 9.10131 55.1812 9.10131C51.0987 9.10131 47.0351 9.08219 42.9525 9.10131C42.5347 9.10131 42.098 9.19692 41.7182 9.369C40.9587 9.75141 40.5979 10.6692 40.8258 11.5105C41.0536 12.4283 41.7752 13.0019 42.8196 13.021C44.8894 13.0401 46.9591 13.021 49.0099 13.021Z" fill="#030303"/>
<path d="M18.1342 11.0515C18.1342 13.7475 15.9695 15.9272 13.311 15.9272C10.6716 15.9081 8.52588 13.7475 8.52588 11.0897C8.52588 8.39372 10.6906 6.19487 13.349 6.21399C15.9884 6.21399 18.1342 8.3746 18.1342 11.0515ZM11.3932 11.0515C11.3932 12.1222 12.2667 13.0209 13.311 13.0209C14.3554 13.0209 15.2479 12.1413 15.2479 11.0706C15.2479 9.98072 14.3934 9.1203 13.33 9.10118C12.2667 9.10118 11.3932 9.98072 11.3932 11.0515Z" fill="#030303"/>
<path d="M30.6288 11.1093C30.6099 13.7479 28.4451 15.9276 25.8057 15.9085C23.1473 15.9085 20.9446 13.6714 21.0016 11.0137C21.0395 8.35592 23.2233 6.19531 25.8437 6.19531C28.4831 6.21443 30.6478 8.41329 30.6288 11.1093ZM25.7867 9.10162C24.7044 9.12074 23.8689 10.0003 23.8879 11.071C23.9068 12.1418 24.7993 13.0213 25.8437 13.0022C26.8881 12.9831 27.7805 12.0653 27.7616 11.0137C27.7426 9.96204 26.8501 9.10162 25.7867 9.10162Z" fill="#030303"/>
<path d="M45.8007 51.5491C45.7817 46.6734 49.6934 42.7155 54.5355 42.6964C59.3777 42.6772 63.3273 46.6352 63.3463 51.4918C63.3653 56.3292 59.3966 60.3445 54.5925 60.3637C49.7694 60.3637 45.8197 56.4057 45.8007 51.5491ZM48.687 51.4918C48.668 54.7996 51.3454 57.4956 54.5925 57.4765C57.8206 57.4574 60.479 54.7614 60.479 51.53C60.479 48.2604 57.8396 45.6027 54.5925 45.6027C51.3264 45.5835 48.687 48.2222 48.687 51.4918Z" fill="#030303"/>
</svg>
