<svg width="70" height="70" viewBox="0 0 70 70" fill="none" xmlns="http://www.w3.org/2000/svg">
<g clip-path="url(#clip0_87_2007)">
<path d="M62.8076 54.9195C63.2935 54.4336 63.7406 53.9672 64.246 53.4814C63.8184 52.8207 63.3907 52.1016 62.9436 51.4409C62.5743 50.8967 62.5937 50.3914 62.8853 49.8084C63.313 48.8951 63.7018 47.9622 64.0517 47.01C64.2655 46.4075 64.5765 46.0189 65.2374 45.8828C66.0344 45.7274 66.8314 45.533 67.6479 45.3387C67.6479 44.678 67.6479 44.0561 67.6479 43.337C66.9481 43.1816 66.2288 42.9872 65.4901 42.8706C64.6737 42.7346 64.2461 42.3265 63.9933 41.5103C63.7212 40.5969 63.2935 39.7224 62.8659 38.8479C62.5937 38.2843 62.5549 37.7984 62.9048 37.2737C63.3713 36.5936 63.7989 35.8939 64.2266 35.1943C63.7212 34.7279 63.2547 34.3004 62.7104 33.7951C62.1855 34.1255 61.5246 34.5142 60.8831 34.9611C60.261 35.4081 59.6779 35.4081 58.9975 35.0389C58.1616 34.5919 57.2869 34.2421 56.3927 33.9506C55.6929 33.7174 55.2846 33.3481 55.1486 32.6097C55.0125 31.8517 54.8376 31.0938 54.6626 30.3359C54.3127 30.3359 54.0017 30.3359 53.6712 30.3359C53.6712 32.668 53.6712 34.9611 53.6712 37.2932C56.2955 37.4292 58.3366 38.5564 59.6779 40.8107C61.5051 43.8812 60.6304 47.9234 57.7534 49.9639C57.3063 50.2748 56.8592 50.4498 56.3344 50.1777C55.5179 49.7501 55.479 48.7785 56.2955 48.1566C57.2286 47.4375 57.8895 46.5436 58.1616 45.3776C58.8226 42.4625 56.7426 39.7612 53.6323 39.6641C53.6323 39.9167 53.6323 40.1693 53.6323 40.422C53.6323 48.176 53.6323 55.93 53.6323 63.6841C53.6323 67.5708 51.2024 69.9806 47.3146 69.9806C39.0725 69.9806 30.8303 69.9806 22.6076 69.9806C18.7587 69.9806 16.3288 67.5514 16.3288 63.7035C16.3288 56.7462 16.3288 49.8084 16.3288 42.8512C16.3288 42.5791 16.3288 42.3265 16.3288 41.9767C15.7067 41.9767 15.1041 41.9767 14.5015 41.9767C13.8017 41.9767 13.3546 41.6463 13.2186 40.9467C13.1797 40.8107 13.1602 40.6552 13.1214 40.5192C12.6354 38.1094 12.6354 38.1094 10.361 37.2737C10.1861 37.2154 9.89447 37.2932 9.71952 37.3903C9.0586 37.779 8.39767 38.2066 7.75618 38.6341C7.13413 39.0422 6.58984 39.0033 6.04554 38.4592C5.19023 37.6041 4.33491 36.749 3.46015 35.8745C2.95473 35.3692 2.91586 34.8251 3.30464 34.2421C3.38239 34.1255 3.46015 33.9895 3.53791 33.8728C3.96557 33.1927 4.64593 32.5514 4.72369 31.8323C4.78201 31.1521 4.23771 30.3942 3.90725 29.6946C3.82949 29.5197 3.59622 29.3254 3.40183 29.2671C2.62427 29.0533 1.84671 28.8784 1.06915 28.7229C0.330464 28.5675 0 28.1399 0 27.4014C0 26.216 0 25.0111 0 23.8257C0 23.126 0.311025 22.6791 1.01083 22.5236C1.63288 22.3876 2.23549 22.2515 2.85754 22.1155C3.05193 22.0766 3.24632 22.0378 3.42127 21.9795C3.94613 21.8434 4.8792 19.4725 4.58762 19.0255C4.1794 18.3648 3.75174 17.7041 3.32408 17.0627C2.91586 16.4797 2.97417 15.9356 3.49903 15.4109C4.35435 14.5558 5.20966 13.6813 6.06498 12.8262C6.5704 12.3209 7.11469 12.2626 7.69786 12.6513C8.37823 13.0788 9.03916 13.5453 9.73896 13.9339C9.95279 14.0505 10.2638 14.0311 10.5165 13.9728C10.7692 13.9145 10.9831 13.7007 11.2358 13.6619C12.4993 13.487 12.8492 12.593 12.9853 11.4853C13.0242 11.0577 13.1408 10.6302 13.2769 10.2027C13.4713 9.58079 14.035 9.23098 14.6182 9.34758C15.2208 9.48362 15.6484 10.0083 15.5318 10.6496C15.2985 11.9128 15.0458 13.176 14.7154 14.4198C14.6182 14.7307 14.1905 15.0416 13.86 15.1971C12.8492 15.6635 11.7995 16.0522 10.7887 16.4992C10.2638 16.7324 9.81672 16.7518 9.35018 16.4409C8.65038 15.9939 7.97001 15.5469 7.19245 15.0611C6.76479 15.5664 6.35657 16.0911 5.87059 16.6741C6.20106 17.1988 6.62871 17.8984 7.09525 18.5786C7.46459 19.1227 7.42572 19.628 7.15357 20.211C6.70647 21.1244 6.33713 22.0572 5.98723 23.0094C5.7734 23.6119 5.44293 24.0006 4.78201 24.1172C3.985 24.2726 3.188 24.467 2.37156 24.6613C2.37156 25.322 2.37156 25.9634 2.37156 26.6435C3.188 26.8379 4.00444 27.0322 4.82088 27.2071C5.40405 27.3237 5.71508 27.6735 5.92891 28.2177C6.29825 29.2282 6.72591 30.2388 7.19245 31.2299C7.42572 31.7546 7.44515 32.2016 7.13413 32.668C6.66759 33.387 6.22049 34.0866 5.75396 34.8057C6.23993 35.2915 6.70647 35.7385 7.19245 36.2243C7.85337 35.8162 8.53374 35.4081 9.19467 34.9417C9.7584 34.553 10.2638 34.553 10.8859 34.8445C11.7995 35.2915 12.7326 35.6802 13.6851 36.0105C14.2877 36.2243 14.6765 36.5547 14.7931 37.2154C14.9292 38.0122 15.143 38.809 15.318 39.6058C15.6679 39.6058 15.9595 39.6058 16.2899 39.6058C16.2899 37.2932 16.2899 34.9806 16.2899 32.668C13.1602 32.4153 10.8859 30.9578 9.77784 28.0039C8.68925 25.1666 9.66121 21.96 12.0522 20.0944C12.8492 19.4725 13.5879 19.4725 14.035 20.075C14.4821 20.6968 14.3071 21.2604 13.5101 21.9212C11.9161 23.2038 11.3135 24.8751 11.8384 26.8573C12.3632 28.7618 13.6851 29.8695 15.629 30.2388C15.8428 30.2776 16.0567 30.2776 16.3288 30.2971C16.3288 29.9861 16.3288 29.7335 16.3288 29.4614C16.3288 21.7074 16.3288 13.9534 16.3288 6.19933C16.3288 2.44864 18.7781 0 22.5687 0C30.8498 0 39.1502 0 47.4313 0C51.2219 0 53.6518 2.44864 53.6712 6.25763C53.6712 13.4675 53.6712 20.6968 53.6712 28.0039C54.2349 28.0039 54.7792 28.0039 55.3235 28.0039C56.276 28.0039 56.6259 28.2954 56.8398 29.2282C56.9953 29.9472 57.1508 30.6469 57.3063 31.3659C57.4424 31.9489 59.7751 32.9206 60.2805 32.6097C60.9608 32.1821 61.6218 31.7546 62.3021 31.3076C62.9048 30.9189 63.449 30.9967 63.935 31.4825C64.7903 32.3376 65.6457 33.2121 66.5204 34.0672C67.0258 34.5725 67.0841 35.1166 66.6954 35.6996C66.2677 36.3798 65.8012 37.0405 65.4124 37.7401C65.2958 37.9539 65.3152 38.2649 65.3541 38.5175C65.4124 38.7896 65.6651 39.0422 65.704 39.3143C65.8789 40.4803 66.6371 40.8107 67.6868 40.9856C70.1555 41.4131 70 41.5103 69.9806 43.8617C69.9806 44.5614 69.9806 45.2804 69.9806 45.98C69.9806 46.9517 69.7279 47.2626 68.7753 47.4958C68.0367 47.6707 67.298 47.8068 66.5787 48.0011C66.3843 48.0594 66.1705 48.2343 66.0733 48.4092C65.8984 48.7396 65.8595 49.1671 65.6262 49.4781C65.043 50.2943 65.2569 50.9745 65.84 51.6741C66.1705 52.0627 66.4038 52.5291 66.6759 52.9567C67.0453 53.5203 67.0064 54.0644 66.5399 54.5503C65.6651 55.4636 64.7709 56.3576 63.8767 57.2321C63.3907 57.6985 62.8659 57.7568 62.2827 57.3876C61.6218 56.96 60.9997 56.513 60.2999 56.1632C60.0472 56.0272 59.6973 56.0272 59.4057 56.0855C59.0364 56.1827 58.7059 56.4742 58.3366 56.5325C57.4424 56.6685 57.1897 57.2321 57.0925 58.0289C57.0147 58.6313 56.8592 59.2143 56.7037 59.7973C56.5287 60.4386 55.965 60.769 55.3818 60.6718C54.7598 60.5552 54.3516 59.9917 54.4682 59.3115C54.7015 58.0872 54.9347 56.8823 55.2652 55.6968C55.3624 55.3665 55.7317 55.0167 56.0622 54.8612C57.1119 54.3559 58.1811 53.9089 59.2696 53.5203C59.6779 53.3842 60.2416 53.4231 60.6109 53.598C61.4079 53.9284 62.0883 54.4531 62.8076 54.9195ZM18.6615 34.9611C18.6615 44.5419 18.6615 54.1033 18.6615 63.6841C18.6615 66.2687 20.0417 67.668 22.6076 67.668C30.8692 67.668 39.1308 67.668 47.3924 67.668C49.9195 67.668 51.3385 66.2687 51.3385 63.7618C51.3385 44.5808 51.3385 25.4192 51.3385 6.2382C51.3385 3.73126 49.9389 2.33204 47.3924 2.33204C39.1502 2.33204 30.9081 2.33204 22.6854 2.33204C20.0222 2.33204 18.6615 3.69239 18.6615 6.37424C18.6615 15.9162 18.6615 25.4386 18.6615 34.9611Z" fill="#020202"/>
<path d="M9.33071 50.0025C9.35015 49.2641 9.87501 48.7199 10.5554 48.7588C11.1774 48.7977 11.6828 49.3418 11.6634 49.9637C11.644 50.6633 11.0802 51.2074 10.3999 51.188C9.73893 51.1686 9.31128 50.7216 9.33071 50.0025Z" fill="#070707"/>
<path d="M9.33069 54.706C9.33069 53.9675 9.8361 53.4039 10.5165 53.4233C11.1385 53.4233 11.6634 53.9675 11.6634 54.5894C11.6634 55.289 11.0996 55.872 10.4387 55.8525C9.75835 55.8525 9.33069 55.4056 9.33069 54.706Z" fill="#070707"/>
<path d="M9.33069 59.389C9.33069 58.6505 9.81666 58.0869 10.497 58.0869C11.1191 58.0869 11.6439 58.6116 11.6634 59.2335C11.6828 59.9331 11.1191 60.5161 10.4582 60.5161C9.77779 60.5356 9.35013 60.0886 9.33069 59.389Z" fill="#070707"/>
<path d="M58.3365 10.6104C58.3365 9.85248 58.842 9.32777 59.5223 9.3472C60.1638 9.36664 60.6692 9.89134 60.6692 10.5132C60.6692 11.1934 60.0666 11.8153 59.4446 11.7958C58.7642 11.7764 58.3365 11.2906 58.3365 10.6104Z" fill="#0A0A0A"/>
<path d="M58.3365 15.2559C58.3365 14.498 58.8614 13.9733 59.5418 13.9927C60.1833 14.0121 60.6692 14.5563 60.6692 15.1782C60.6498 15.8583 60.0666 16.4608 59.4251 16.4413C58.7642 16.4219 58.3171 15.9555 58.3365 15.2559Z" fill="#0A0A0A"/>
<path d="M58.3365 19.9583C58.3365 19.2004 58.8225 18.6562 59.5029 18.6562C60.1444 18.6562 60.6498 19.1615 60.6692 19.8028C60.6887 20.483 60.1055 21.1049 59.464 21.1049C58.8031 21.1243 58.3365 20.6579 58.3365 19.9583Z" fill="#0A0A0A"/>
<path d="M26.1455 35.0003C27.3313 36.1858 28.4587 37.2935 29.5668 38.4012C29.7223 38.5567 29.8778 38.7121 30.0139 38.8676C30.461 39.4117 30.4221 40.0531 29.9555 40.5C29.5084 40.9276 28.8475 40.9664 28.381 40.5195C26.787 38.9648 25.2124 37.3907 23.6378 35.7777C23.1324 35.253 23.1908 34.6505 23.735 34.0869C25.2319 32.5711 26.7481 31.0553 28.2643 29.5589C28.8086 29.0342 29.4696 29.0147 29.9555 29.4812C30.461 29.967 30.461 30.6472 29.8972 31.2302C28.692 32.4739 27.4479 33.6983 26.1455 35.0003Z" fill="#060606"/>
<path d="M43.8739 34.981C42.6104 33.7373 41.4246 32.5518 40.2388 31.3664C39.5779 30.7056 39.5001 30.0449 40.0055 29.5202C40.5304 28.976 41.2107 29.0343 41.9105 29.7145C43.3296 31.1137 44.7292 32.5324 46.1288 33.9316C46.9064 34.7089 46.8869 35.2531 46.1094 36.0499C44.7098 37.4685 43.2907 38.8677 41.8911 40.267C41.2302 40.9083 40.5693 40.986 40.0444 40.4807C39.5195 39.9755 39.5779 39.2759 40.2193 38.6345C41.3857 37.4491 42.5909 36.2636 43.8739 34.981Z" fill="#060606"/>
<path d="M33.9405 40.8297C33.1047 40.8492 32.5021 40.169 32.6964 39.4111C33.4546 36.2822 34.2321 33.1729 35.0291 30.044C35.2041 29.3833 35.8261 29.0335 36.4287 29.189C37.0702 29.3444 37.459 29.9663 37.2841 30.6465C36.5259 33.717 35.7484 36.7875 34.9708 39.858C34.8347 40.4605 34.4654 40.7714 33.9405 40.8297Z" fill="#050505"/>
<path d="M35.0291 4.66396C36.1177 4.66396 37.2063 4.66396 38.2949 4.66396C39.1502 4.66396 39.6556 5.13037 39.6556 5.82998C39.6556 6.5296 39.1307 6.97657 38.2754 6.97657C36.0983 6.97657 33.9016 6.97657 31.7245 6.97657C30.8692 6.97657 30.3443 6.54903 30.3249 5.82998C30.3054 5.09151 30.8303 4.64453 31.7439 4.64453C32.8519 4.66396 33.9405 4.66396 35.0291 4.66396Z" fill="#030303"/>
</g>
<defs>
<clipPath id="clip0_87_2007">
<rect width="70" height="70" fill="white"/>
</clipPath>
</defs>
</svg>
