<svg width="96" height="70" viewBox="0 0 96 70" fill="none" xmlns="http://www.w3.org/2000/svg">
<g clip-path="url(#clip0_87_2020)">
<path d="M73.3765 59.3304C73.3765 60.185 73.3765 60.9101 73.3765 61.6611C73.3765 63.4739 72.9858 63.8624 71.1104 63.8624C62.5406 63.8624 53.9709 63.8624 45.4272 63.8624C39.2278 63.8624 33.0545 63.8624 26.8551 63.8624C25.1359 63.8624 24.6931 63.4221 24.6931 61.7388C24.6931 59.3563 24.6931 56.9478 24.6931 54.5653C23.9898 54.2804 23.521 54.5394 23.0521 55.0574C20.6036 57.8283 21.0725 57.5435 17.8686 56.2486C16.0973 55.5235 14.3261 54.7984 12.5548 54.1251C11.6692 53.7884 11.1482 53.2187 11.3566 52.2864C11.8776 50.1887 10.9138 48.842 9.48119 47.4436C8.28299 46.2523 7.11083 45.7603 5.46982 46.0451C4.11533 46.2782 3.67252 45.9157 3.15156 44.6726C2.21384 42.4454 1.27612 40.2183 0.338395 37.9652C-0.182562 36.7222 -0.20861 36.256 0.859352 35.5309C2.47432 34.4432 2.81294 33.0448 2.83899 31.1802C2.86504 29.3156 2.42222 27.9948 0.8854 26.9071C-0.182562 26.1561 -0.182562 25.6641 0.312347 24.4728C1.25007 22.1939 2.21384 19.9408 3.12551 17.6619C3.51623 16.7037 4.11533 16.1857 5.1312 16.4188C7.11083 16.9108 8.41323 16.0303 9.76771 14.6578C10.9659 13.4406 11.565 12.327 11.3566 10.6178C11.1482 9.01221 11.3827 8.83093 12.9455 8.1835C15.1336 7.2512 17.3476 6.3707 19.5096 5.4384C20.4473 5.02405 21.2027 5.17943 21.8279 5.98224C22.2186 6.47429 22.6093 6.96633 23.0782 7.35479C23.4689 7.69145 23.9898 7.87273 24.7192 8.26119C24.7192 6.08583 24.7192 4.27303 24.7192 2.48613C24.7192 2.09767 24.6931 1.70921 24.7713 1.32075C24.9015 0.569737 25.3443 0.103589 26.1518 0.0517943C26.4383 0.0258972 26.7249 0.0258972 27.0374 0.0258972C37.4826 0.0258972 47.9538 0.0258972 58.399 0C59.3888 0 60.1182 0.284869 60.7954 0.984092C64.7287 4.99815 68.6879 8.96042 72.6732 12.9227C73.2203 13.4665 73.4807 14.0363 73.4026 14.8132C73.3505 15.616 73.3765 16.4188 73.3765 17.3511C75.0436 17.3511 76.7367 17.1698 78.3517 17.4029C80.9825 17.7395 82.9361 16.9367 84.5771 14.865C85.2283 14.0363 85.6711 13.4665 85.3586 12.3011C84.6813 9.89271 86.6088 7.17351 89.1094 6.70736C91.7924 6.18942 94.2669 7.87273 94.84 10.566C95.3609 13.0781 93.6418 15.7714 91.1151 16.1857C90.0732 16.3411 88.9532 16.1339 87.5726 16.0821C86.6609 17.0144 85.4367 18.1798 84.2906 19.4229C83.5873 20.1739 82.8319 20.4846 81.79 20.4588C79.0289 20.407 76.2679 20.4329 73.4547 20.4329C73.4547 22.66 73.4547 24.8095 73.4547 27.1143C74.8352 27.1143 76.2418 27.0625 77.6744 27.1402C78.1954 27.1661 78.8726 27.3992 79.1852 27.7876C79.4717 28.1243 79.5499 28.9271 79.3415 29.2638C79.055 29.704 78.4038 30.0925 77.8828 30.1443C76.4241 30.2479 74.9655 30.1961 73.4807 30.1961C73.4807 32.5009 73.4807 34.7022 73.4807 37.007C75.7208 37.007 77.8828 37.007 80.0708 37.007C81.5816 37.007 83.0663 36.9811 84.5511 37.0329C85.1762 37.0588 85.5148 36.9034 85.8274 36.3078C86.8693 34.2101 89.1094 33.226 91.4016 33.7699C93.4334 34.2619 94.9442 36.1265 94.9963 38.1983C95.0744 40.5032 93.5897 42.5231 91.3756 43.1447C89.1094 43.7921 86.8954 42.808 85.7753 40.7103C85.619 40.3996 85.2023 40.037 84.9157 40.037C81.2169 39.9852 77.4921 40.0111 73.7673 40.0111C73.6631 40.0111 73.5849 40.0629 73.4547 40.0888C73.4547 42.2642 73.4547 44.4654 73.4547 46.7444C74.8873 46.7444 76.2939 46.7444 77.6744 46.7444C78.8466 46.7444 79.5499 47.3141 79.5499 48.2464C79.5499 49.1528 78.8466 49.7225 77.6484 49.7225C76.2679 49.7225 74.8613 49.7225 73.4286 49.7225C73.4286 51.9497 73.4286 54.0992 73.4286 56.3781C73.7673 56.3781 74.1059 56.3781 74.4445 56.3781C77.0232 56.3781 79.602 56.404 82.1547 56.3781C82.9361 56.3781 83.5092 56.6112 84.0562 57.1809C85.2804 58.4758 86.5568 59.7188 87.807 60.936C91.1151 59.8483 93.7199 60.8842 94.7618 63.6811C95.4391 65.5457 95.0223 67.2031 93.6418 68.5757C92.2352 70 90.516 70.4144 88.6145 69.7669C86.7651 69.1454 85.6972 67.7729 85.4106 65.8565C85.3325 65.3903 85.2804 64.8465 85.4367 64.4062C85.8535 63.2926 85.2283 62.697 84.6032 61.8942C82.9882 59.8224 81.0086 59.0196 78.3777 59.3304C76.7888 59.4858 75.1217 59.3304 73.3765 59.3304ZM70.3029 60.8324C70.3029 45.7862 70.3029 30.8176 70.3029 15.7714C69.9382 15.7714 69.6257 15.7714 69.287 15.7714C66.0571 15.7714 62.8532 15.7714 59.6233 15.7714C58.1125 15.7714 57.5655 15.2275 57.5655 13.7255C57.5395 11.2912 57.5655 8.85683 57.5655 6.44839C57.5655 5.36071 57.5655 4.24713 57.5655 3.13356C47.5892 3.13356 37.717 3.13356 27.871 3.13356C27.871 22.401 27.871 41.6167 27.871 60.8583C41.9889 60.8324 56.0808 60.8324 70.3029 60.8324ZM3.30785 37.1624C4.01114 38.8198 4.68838 40.2701 5.20934 41.798C5.52192 42.7044 5.96473 43.0152 6.8764 42.8339C8.38718 42.5231 9.58538 43.0152 10.5491 44.2582C11.0962 44.9575 11.7734 45.6049 12.4767 46.1746C14.0135 47.4177 15.0033 48.8161 14.5084 50.9138C14.4563 51.1469 14.7689 51.613 15.0294 51.7425C16.6964 52.4935 18.3895 53.1669 20.1348 53.8661C21.333 52.4158 22.3488 50.7325 24.641 51.4058C24.641 49.2823 24.641 47.3141 24.641 45.3718C24.2764 45.2941 23.9638 45.2164 23.6512 45.1387C17.3737 44.0252 12.3985 38.535 11.9818 32.242C11.4869 24.8354 16.6704 18.3611 24.0419 17.1439C24.2764 17.118 24.6671 16.8849 24.6671 16.7296C24.7192 14.8132 24.6931 12.8709 24.6931 10.7732C22.1665 11.7314 21.359 9.60784 20.1087 8.44247C18.7282 9.01221 17.3997 9.55605 16.0973 10.0999C14.3782 10.825 14.3261 10.825 14.5866 12.6637C14.7168 13.596 14.4563 14.2952 13.7791 14.9168C12.9455 15.6937 12.112 16.4706 11.3566 17.3252C10.0021 18.9049 8.54346 20.0703 6.25126 19.5265C6.04287 19.4747 5.60006 19.7854 5.49587 20.0185C4.76653 21.6759 4.06324 23.3851 3.35994 25.0684C3.85485 25.5087 4.29767 25.9231 4.79258 26.3115C5.62611 26.933 5.96473 27.71 5.88659 28.7458C5.80844 29.7558 5.78239 30.7658 5.88659 31.7499C6.12102 34.0548 5.75635 36.0747 3.30785 37.1624ZM24.615 20.0962C18.5979 21.0026 14.5866 26.3633 15.1075 32.0607C15.5764 37.2919 20.265 42.0311 24.615 41.9793C24.615 34.7022 24.615 27.451 24.615 20.0962ZM67.8804 12.6637C65.5101 10.3071 63.1137 7.92453 60.7433 5.56789C60.7433 7.89863 60.7433 10.2553 60.7433 12.6637C63.1658 12.6637 65.5361 12.6637 67.8804 12.6637ZM90.0472 66.9441C91.1151 66.97 91.8445 66.2708 91.8445 65.2349C91.8445 64.2767 91.063 63.448 90.1774 63.4221C89.1355 63.4221 88.302 64.2249 88.328 65.2608C88.328 66.2449 89.0313 66.9182 90.0472 66.9441ZM88.328 38.4314C88.328 39.4155 89.0573 40.1406 90.0211 40.1665C90.9328 40.1924 91.7924 39.3637 91.8184 38.4832C91.8445 37.4991 91.063 36.6445 90.0993 36.6445C89.1355 36.6445 88.328 37.4473 88.328 38.4314ZM90.0993 13.104C91.1412 13.104 91.8184 12.4565 91.8445 11.4724C91.8705 10.4883 91.0891 9.73733 90.0472 9.76323C89.0313 9.76323 88.302 10.4883 88.328 11.4465C88.3801 12.3788 89.1094 13.0781 90.0993 13.104Z" fill="#020202"/>
<path d="M42.0152 18.4901C42.2757 13.0258 44.7242 10.0735 48.9179 9.99582C53.1897 9.89223 55.6643 12.8186 56.1331 18.516C56.5238 18.516 56.9406 18.516 57.3574 18.516C58.3472 18.5419 58.9984 19.0598 58.9984 20.0439C59.0244 23.6177 59.0244 27.1656 58.9984 30.7394C58.9984 31.6976 58.2951 32.3192 57.2792 32.3192C51.7831 32.3451 46.261 32.3451 40.7649 32.3192C39.8272 32.3192 39.1499 31.6458 39.1499 30.6359C39.1239 27.1397 39.1239 23.6436 39.176 20.1475C39.202 19.0598 39.8272 18.5419 40.9212 18.516C41.2598 18.4901 41.5984 18.4901 42.0152 18.4901ZM55.6903 21.6495C51.158 21.6495 46.7038 21.6495 42.2757 21.6495C42.2757 24.1875 42.2757 26.6736 42.2757 29.1597C46.7819 29.1597 51.2101 29.1597 55.6903 29.1597C55.6903 26.6477 55.6903 24.1616 55.6903 21.6495ZM52.825 18.4642C53.0334 15.9263 52.4083 14.476 50.7933 13.6214C49.4909 12.9481 47.7718 13.1294 46.5996 14.0876C45.3493 15.0976 44.9325 16.7291 45.4795 18.4642C47.928 18.4642 50.3505 18.4642 52.825 18.4642Z" fill="#030303"/>
<path d="M43.9948 47.6511C41.1035 47.6511 38.2122 47.5993 35.2948 47.677C34.2269 47.7029 33.4715 46.926 33.4454 46.1232C33.4194 45.2427 34.2269 44.5693 35.2948 44.5693C41.0775 44.5693 46.8861 44.5693 52.6687 44.5693C53.893 44.5693 54.5442 45.165 54.5181 46.175C54.4921 47.1332 53.8669 47.6511 52.6427 47.6511C49.7774 47.6511 46.8861 47.6511 43.9948 47.6511Z" fill="#020202"/>
<path d="M55.1173 36.8773C57.696 36.8773 60.2487 36.8514 62.8274 36.8773C64.2861 36.9032 65.0415 38.0944 64.3643 39.208C63.9475 39.9073 63.2963 39.959 62.593 39.959C60.2227 39.959 57.8523 39.959 55.482 39.959C52.8772 39.959 50.2724 40.0108 47.6937 39.9849C46.5215 39.9849 45.8443 39.467 45.7661 38.6124C45.6359 37.5247 46.3392 36.8255 47.6416 36.7996C50.1421 36.7737 52.6427 36.7996 55.1433 36.7996C55.1173 36.8514 55.1173 36.8773 55.1173 36.8773Z" fill="#040404"/>
<path d="M56.5757 55.2644C54.518 55.2644 52.4862 55.2644 50.4285 55.2644C49.2303 55.2644 48.6051 54.7205 48.6312 53.7105C48.6572 52.7524 49.2824 52.1826 50.4806 52.1826C54.5701 52.1826 58.6856 52.1826 62.7751 52.1826C63.6868 52.1826 64.3641 52.5193 64.5464 53.4775C64.6766 54.2026 64.3901 54.7723 63.7389 55.0572C63.4003 55.2126 62.9835 55.2385 62.6188 55.2385C60.6132 55.2903 58.6075 55.2644 56.5757 55.2644Z" fill="#060606"/>
<path d="M39.5666 55.2903C38.1079 55.2903 36.6493 55.3162 35.1906 55.2903C34.1226 55.2644 33.4714 54.6428 33.4714 53.7364C33.4714 52.9336 34.2529 52.1826 35.2427 52.1826C38.134 52.1567 41.0253 52.1826 43.9166 52.2085C44.9585 52.2344 45.6097 52.9336 45.5837 53.84C45.5576 54.7464 44.9585 55.2644 43.8906 55.2903C42.4058 55.2903 40.9732 55.2644 39.5666 55.2903Z" fill="#040404"/>
<path d="M38.1341 36.8262C39.0718 36.8262 40.0095 36.8003 40.9733 36.8262C42.0673 36.8521 42.8227 37.5772 42.7966 38.4318C42.7706 39.2864 42.0412 39.9598 40.9993 39.9857C39.0718 40.0375 37.1703 40.0375 35.2428 40.0116C34.2008 39.9857 33.4194 39.2346 33.4455 38.38C33.4715 37.4995 34.2269 36.8521 35.3209 36.8003C35.8158 36.7744 36.2847 36.7744 36.7796 36.7744C37.2224 36.7744 37.6913 36.7744 38.1341 36.7744C38.1341 36.8003 38.1341 36.8262 38.1341 36.8262Z" fill="#090909"/>
<path d="M61.1082 44.5691C61.7334 44.5691 62.3325 44.5432 62.9576 44.5691C63.9214 44.6209 64.6247 45.2942 64.6247 46.123C64.6247 46.9776 63.9214 47.6509 62.9576 47.6509C61.6813 47.6768 60.431 47.6768 59.1546 47.6509C58.243 47.625 57.5918 47.0035 57.5657 46.1747C57.5397 45.346 58.1648 44.6727 59.0505 44.5691C59.1025 44.5691 59.1807 44.5691 59.2328 44.5691C59.884 44.5691 60.4831 44.5691 61.1082 44.5691Z" fill="#030303"/>
</g>
<defs>
<clipPath id="clip0_87_2020">
<rect width="95.0746" height="70" fill="white"/>
</clipPath>
</defs>
</svg>
