<svg width="85" height="85" viewBox="0 0 85 85" fill="none" xmlns="http://www.w3.org/2000/svg">
<path d="M33 73H53M63 33C63 37.8517 61.2725 42.2999 58.3989 45.763C57.188 47.2223 56.3333 48.9912 56.3333 50.8875V56.3333C56.3333 60.0152 53.3486 63 49.6667 63H36.3333C32.6514 63 29.6667 60.0152 29.6667 56.3333V50.8875C29.6667 48.9912 28.812 47.2223 27.6011 45.763C24.7275 42.2999 23 37.8517 23 33C23 21.9543 31.9543 13 43 13C54.0457 13 63 21.9543 63 33Z" stroke="black" stroke-width="3" stroke-linecap="round" stroke-linejoin="round"/>
<circle cx="42.5" cy="42.5" r="41" stroke="black" stroke-width="3"/>
</svg>
