<svg width="341" height="1137" viewBox="0 0 341 1137" fill="none" xmlns="http://www.w3.org/2000/svg">
<path d="M304.693 1087C330.558 912.031 345.857 554.381 310.819 419.419C310.819 419.419 293.689 361.968 275.698 329.765C255.942 294.405 245.614 272.889 213.216 250.234C180.818 227.58 102.87 165.883 33.5281 218.422C33.5281 221.796 -32.2213 248.788 26.1772 303.255C44.146 315.466 84.0847 336.996 107.445 336.996C108.262 336.996 180.054 329.765 190.347 322.535C211.038 311.61 256.423 285.806 272.431 269.996C292.442 250.234 355.741 163.473 326.338 70.4452L298.159 2.00002" stroke="black" stroke-width="4" stroke-linecap="round"/>
<path d="M321.192 1117.15C332.089 1106.26 332.089 1088.61 321.192 1077.72C310.295 1066.83 292.628 1066.83 281.731 1077.72C270.834 1088.61 270.834 1106.26 281.731 1117.15C292.628 1128.04 310.295 1128.04 321.192 1117.15Z" fill="#F5AD7F"/>
</svg>
