<svg width="55" height="64" viewBox="0 0 55 64" fill="none" xmlns="http://www.w3.org/2000/svg">
<path d="M35.3982 2V11.5025C35.3973 13.7297 36.2801 15.8662 37.8528 17.4432C39.4255 19.0202 41.5596 19.9088 43.7868 19.914C48.0889 19.914 52.489 19.914 52.7863 19.914" stroke="#1A1A1A" stroke-width="3" stroke-miterlimit="10" stroke-linecap="round" stroke-linejoin="round"/>
<path d="M36.2568 2.03955H14.1811C10.9505 2.03955 7.85218 3.32292 5.56777 5.60732C3.28337 7.89173 2 10.9901 2 14.2207L2 49.66C2.00981 51.3224 2.35345 52.966 3.01054 54.4931C3.66763 56.0201 4.62477 57.3997 5.82517 58.5498C7.02558 59.6999 8.44478 60.5972 9.99857 61.1884C11.5524 61.7796 13.2091 62.0527 14.8704 61.9914H40.621C43.8672 61.9578 46.9688 60.6431 49.2502 58.3335C51.5317 56.0239 52.8083 52.9064 52.8021 49.66V19.2807L36.2568 2.03955Z" stroke="#1A1A1A" stroke-width="3" stroke-miterlimit="10" stroke-linecap="round" stroke-linejoin="round"/>
<path d="M32.4646 40.8665L21.1426 29.5444" stroke="#1A1A1A" stroke-width="3" stroke-miterlimit="10" stroke-linecap="round" stroke-linejoin="round"/>
<path d="M21.1458 40.8665L32.4678 29.5444" stroke="#1A1A1A" stroke-width="3" stroke-miterlimit="10" stroke-linecap="round" stroke-linejoin="round"/>
</svg>
