<svg width="52" height="52" viewBox="0 0 52 52" fill="none" xmlns="http://www.w3.org/2000/svg">
<path d="M36.291 15.6522L21.1844 30.8548L3.50136 19.9729C2.98199 19.6536 2.56636 19.1905 2.30482 18.6398C2.04327 18.0891 1.94703 17.4743 2.02776 16.87C2.10848 16.2657 2.36271 15.6977 2.75964 15.2349C3.15657 14.7722 3.67918 14.4344 4.26415 14.2626L46.0126 2.11921C46.5541 1.96552 47.1269 1.96034 47.671 2.10423C48.2151 2.24811 48.7105 2.53575 49.1052 2.93699C49.4998 3.33822 49.7793 3.83826 49.9142 4.38467C50.0491 4.93107 50.0345 5.50372 49.872 6.04254L37.4778 47.7564C37.3083 48.3381 36.9728 48.8578 36.5124 49.2517C36.052 49.6457 35.4867 49.8968 34.8858 49.9744C34.2848 50.0519 33.6743 49.9525 33.129 49.6884C32.5837 49.4242 32.1272 49.0068 31.8155 48.4871L21.1764 30.8575" stroke="#1A1A1A" stroke-width="3" stroke-miterlimit="10" stroke-linecap="round" stroke-linejoin="round"/>
</svg>
